<svg xmlns="http://www.w3.org/2000/svg" width="160" height="160" fill="none"><path fill="#fff" d="M92.9 53.45c.36 11.83-1.6 22.23-1.6 22.23s7.34 7.52 10.75 11.1c.36-1.07 8.6-13.97 8.6-13.97s-2.33-1.44-3.76-3.23c-1.43-1.79-1.79-3.05-1.79-3.05V29.8c0-2.34 1.25-2.7 5.56-8.78-1.97-1.8-22.41-13.98-26.54-16.13-4.12-2.16-6.8-3.95-12-2.16-5.2 1.8-24.39 17.39-24.39 17.39v6.8c15.78-15.05 29.76-7.34 29.76-7.34s-12 10.57-20.25 14.69c10.93 34.95-10.94 71.15-10.94 71.15l3.58 2.15C73.73 82.3 75.34 53.45 75.34 53.45h17.57ZM82.88 21.73 92 27.65v12H76.05c-.17-10.57 4.3-15.4 6.82-17.92Zm13.05 83.33h-5.74s-1.43.54-1.43 2.51v41.11s-1.08 8.78-5.2 9.32c-4.13-.54-5.2-9.32-5.2-9.32v-41.1c0-1.98-1.44-2.52-1.44-2.52h-5.74v-3.58h8.6V88.76c-1.96-5.02-1.07-6.48 2.88-6.48h1.79c3.94 0 4.84 1.46 2.86 6.48v12.72h8.6v3.58h.02Zm-27.98 4.66h6.3v2.62h-4.2s-1.04.4-1.04 1.84v26.2s-.8 6.43-3.81 6.83c-3.02-.4-3.82-6.82-3.82-6.82v-26.21c0-1.45-1.04-1.84-1.04-1.84h-4.2v-2.62h6.3v-9.32c-1.45-3.67-.79-4.73 2.1-4.73h1.31c2.89 0 3.54 1.06 2.1 4.73v9.32Zm36.73 0h6.3v2.62h-4.2s-1.05.4-1.05 1.84v26.2s-.79 6.43-3.8 6.83c-3.02-.4-3.82-6.82-3.82-6.82v-26.21c0-1.45-1.04-1.84-1.04-1.84h-4.2v-2.62h6.3v-9.32c-1.45-3.67-.79-4.73 2.1-4.73h1.3c2.9 0 3.55 1.06 2.1 4.73v9.32ZM33.03 43.24c.18-7.17 1.25-13.44 3.4-15.24 2.16-1.79 7.72-5.37 7.72-5.37s.71 10.04-2.16 13.26c-2.86 3.23-8.96 7.35-8.96 7.35Zm-7.7 1.61c-.19-6.27 1.78-8.6 4.47-14.16 1.26 3.4 2.33 18.28 1.62 25.45l1.61-2.86C35.54 42.7 41.1 42.34 47.2 43.24c-1.08.9-2.87 4.12-4.85 8.6-1.97 4.48-9.5 6.81-12.19 5.91-2.68-.9-4.65-6.63-4.84-12.9ZM19.94 65.1c-.72-1.97 0-15.05 0-15.05s3.22 6.1 6.63 10.21c3.4 4.13 5.38 8.25 5.55 14.7 1.8-.72 1.08-5.74.9-7.89-.18-2.15 1.44-5.55 3.95-7.7 2.5-2.16 10.22 0 10.22 0s-3.77 4.12-4.13 6.27c-.36 2.15-3.58 11.65-10.94 11.47-7.35-.19-11.47-10.04-12.18-12.01Zm29.4 3.77c-.9 3.22-2.52 16.13-3.77 18.1a110.4 110.4 0 0 0-3.94 7.7S30.52 93.42 25.3 91.1C20.1 88.76 16 74.59 16 74.59l6.63 2.52c9.65 2.1 13.85 8 16.25 12.54-1.3-3.03-2.65-7.51-1.37-10.94 2.14-5.7 7.17-7.34 11.83-9.85ZM118 35.89c-2.86-3.23-2.15-13.26-2.15-13.26s5.56 3.58 7.7 5.37c2.16 1.8 3.24 8.07 3.41 15.24 0 0-6.09-4.12-8.96-7.35Zm-5.2 7.35c6.1-.9 11.66-.54 14.17 10.04l1.61 2.86c-.72-7.17.36-22.04 1.62-25.45 2.69 5.55 4.66 7.89 4.48 14.16-.18 6.28-2.16 12-4.84 12.9-2.7.9-10.22-1.43-12.2-5.91-1.96-4.48-3.76-7.7-4.83-8.6Zm4.13 22.4c-.36-2.15-4.13-6.27-4.13-6.27s7.71-2.16 10.22 0c2.51 2.15 4.13 5.55 3.95 7.7-.18 2.15-.9 7.17.9 7.89.17-6.46 2.15-10.57 5.56-14.7 3.4-4.12 6.63-10.21 6.63-10.21s.72 13.08 0 15.05c-.72 1.97-4.84 11.83-12.19 12.01-7.35.18-10.58-9.32-10.94-11.47ZM144 74.6s-4.1 14.16-9.31 16.48c-5.21 2.33-16.33 3.59-16.33 3.59s-2.68-5.74-3.94-7.71c-1.26-1.97-2.87-14.87-3.76-18.1 4.66 2.51 9.69 4.16 11.83 9.86 1.28 3.42-.07 7.9-1.36 10.94 2.4-4.54 6.6-10.45 16.24-12.55l6.63-2.5v-.01Z"/></svg>