<svg width="80" height="80" viewBox="0 0 80 80" fill="none" xmlns="http://www.w3.org/2000/svg"><path fill-rule="evenodd" clip-rule="evenodd" d="M5.58 51.931c.535 3.04 2.42 5.025 5.21 6.17 4.095 1.675 8.335 1.87 12.515.585 3.545-1.09 6.54-3.09 7.225-7.11.244-1.436.303-2.901.361-4.367.029-.724.058-1.448.109-2.168.095-1.3-.51-1.7-1.755-1.665-2.475.07-4.955.105-7.425 0-1.485-.06-1.895.53-1.875 1.915.025 2.01-.005 4.035-.285 6.015-.085.595-1.095 1.48-1.665 1.465-.595-.015-1.38-.85-1.69-1.51-.256-.545-.243-1.231-.23-1.894l.005-.486c-.015-2.246-.013-4.49-.011-6.735v-.001l.001-2.244h.05l-.005-3.008c-.006-2.508-.012-5.016.02-7.527.015-1.295.16-2.755 1.875-2.785 1.814-.033 1.864 1.429 1.908 2.691l.007.189c.08 2.07.075 4.145.03 6.215-.025 1.265.47 1.72 1.745 1.68 2.53-.08 5.07-.075 7.6.01 1.325.045 1.76-.52 1.695-1.735-.043-.819-.075-1.639-.107-2.46-.062-1.593-.125-3.188-.263-4.775-.26-3-1.91-5.13-4.53-6.5-3.84-2.01-7.95-2.305-12.1-1.43-6.23 1.305-8.84 4.485-8.94 10.795-.085 5.35-.06 10.705 0 16.06.03 1.535.255 3.085.525 4.61zm69.2-22.585c-.06-4.58-2.29-7.445-6.795-7.91-4.03-.416-8.097-.504-12.16-.591-1.401-.03-2.802-.06-4.2-.104-2.325-.075-2.33-.015-2.335 2.24-.003 3.683-.002 7.367-.001 11.05l.001 5.525v17.335c-.001.873-.002 1.765 1.245 1.745 1.666-.022 3.332-.025 4.999-.029 4.148-.009 8.296-.019 12.426-.301 4.93-.335 6.77-2.565 6.835-7.555.085-7.135.075-14.275-.015-21.405zm-11.06 18.875c-.01.945-.145 2.02-.62 2.79-.32.52-1.32.7-2.05.815-.145.02-.635-.96-.645-1.48-.045-2.67-.039-5.343-.034-8.015l.004-2.67-.002-2.584v-.001c-.003-2.585-.006-5.172.017-7.756l-.021-.433c-.052-.712-.109-1.494 1.031-1.506 1.12-.01 2.005.52 2.26 1.72.081.369.08.757.08 1.137v.063l.005 2.827c.01 5.029.021 10.061-.026 15.093zm-26.675 10.495c-1.13.015-1.915-.54-2.515-1.41-.495-.715-.61-1.555-.61-2.41-.008-1.504-.007-3.011-.006-4.517l.001-1.503-.001-3.215c-.001-2.143-.002-4.287.001-6.43 0-.885.115-1.755.635-2.495.6-.85 1.385-1.4 2.5-1.385 2.145.025 4.29.015 6.435.005 1.245-.005 2.07.655 2.65 1.67.395.69.455 1.475.455 2.26v15.51c0 .785-.085 1.555-.45 2.265-.425.83-1.14 1.32-2 1.625-.083.032-.178.029-.27.026l-.075-.001-2.077-.004c-1.558-.004-3.115-.008-4.673.009zm3.595-19.18h-.79c-.575 0-.73.155-.73.715v11.885l-.001.589.001 1.176c.005.37.225.575.595.575h.975c.535 0 .695-.155.695-.69v-13.49c0-.63-.125-.76-.745-.76z" fill="white" /></svg>