<svg width="161" height="160" viewBox="0 0 161 160" fill="none" xmlns="http://www.w3.org/2000/svg">
<path d="M86.7093 43.6545H149.042C155.815 43.9407 160.721 49.202 161 55.9104V56.3764C160.923 57.9819 160.634 59.3754 160.133 60.5567C157.59 66.5564 155.039 72.5526 152.479 78.5452C150.379 83.4603 146.099 86.4478 140.766 86.4491C123.291 86.4544 105.813 86.4567 88.3319 86.4558C88.2839 86.4558 88.2501 86.4784 88.2306 86.5237L83.5268 97.5695C83.5234 97.577 83.522 97.5852 83.5227 97.5934C83.5233 97.6016 83.5261 97.6095 83.5306 97.6164C83.5351 97.6233 83.5412 97.6289 83.5485 97.6328C83.5558 97.6367 83.5639 97.6387 83.5721 97.6387C100.504 97.6396 117.443 97.6391 134.389 97.6374C135.283 97.6374 135.974 97.6973 136.462 97.8171C140.257 98.7477 142.153 102.764 140.651 106.339C139.638 108.748 138.607 111.151 137.559 113.548H56.9584C60.6649 104.749 64.3932 95.9595 68.1433 87.18C68.7184 85.8336 69.0717 85.0197 69.2033 84.7384C73.4298 75.7175 82.0508 70.351 92.0105 70.3497C106.704 70.347 121.397 70.3462 136.09 70.347C136.14 70.347 136.174 70.3244 136.193 70.2792L140.815 59.4277C140.833 59.3851 140.819 59.3638 140.773 59.3638H80.0682C80.0598 59.3638 80.0515 59.3618 80.0441 59.3578C80.0367 59.3539 80.0304 59.3481 80.0258 59.3411C80.0212 59.3341 80.0184 59.3261 80.0176 59.3177C80.0169 59.3094 80.0182 59.301 80.0216 59.2933L86.7093 43.6545ZM142.319 83.2766C145.407 82.8107 148.198 80.7405 149.442 77.8436C150.571 75.2156 152.946 69.6384 156.567 61.1118C157.495 58.9258 158.119 57.3123 157.892 55.1782C157.383 50.3496 153.451 46.7231 148.567 46.7218C128.635 46.7174 108.702 46.7156 88.7679 46.7165C88.7279 46.7165 88.6999 46.7351 88.6839 46.7724L84.6507 56.2326C84.6474 56.2401 84.646 56.2484 84.6467 56.2566C84.6473 56.2648 84.65 56.2727 84.6545 56.2795C84.659 56.2864 84.6652 56.2921 84.6724 56.296C84.6797 56.2999 84.6878 56.3019 84.696 56.3018H145.429C145.434 56.3019 145.439 56.3033 145.444 56.3058C145.449 56.3084 145.453 56.312 145.456 56.3165C145.459 56.3209 145.461 56.326 145.461 56.3314C145.462 56.3367 145.461 56.3421 145.459 56.3471L138.23 73.3332C138.22 73.3561 138.204 73.3756 138.183 73.3894C138.163 73.4031 138.139 73.4104 138.114 73.4104C122.788 73.4068 107.453 73.4073 92.1105 73.4117C90.9781 73.4126 90.0905 73.4463 89.4479 73.5129C81.5015 74.3356 74.8457 79.356 71.7112 86.6874C68.3273 94.606 64.9483 102.525 61.5742 110.444C61.5722 110.449 61.5714 110.454 61.5719 110.459C61.5723 110.463 61.574 110.468 61.5768 110.472C61.5796 110.476 61.5833 110.48 61.5878 110.482C61.5922 110.484 61.5972 110.486 61.6022 110.486H135.469C135.514 110.486 135.546 110.465 135.564 110.424C136.301 108.752 137.017 107.071 137.712 105.38C137.967 104.756 138.101 104.261 138.113 103.896C138.154 102.6 137.322 101.342 136.108 100.895C135.755 100.765 135.186 100.701 134.402 100.701C115.92 100.701 97.4414 100.701 78.9656 100.701C78.954 100.701 78.9426 100.698 78.9324 100.693C78.9222 100.687 78.9135 100.679 78.9071 100.669C78.9007 100.66 78.8969 100.649 78.8959 100.637C78.895 100.626 78.8969 100.614 78.9016 100.603L86.2 83.4564C86.2079 83.4374 86.2212 83.4213 86.2383 83.4099C86.2554 83.3985 86.2755 83.3925 86.296 83.3925C104.089 83.3951 121.876 83.3947 139.658 83.3911C140.93 83.3911 141.817 83.353 142.319 83.2766Z" fill="white"/>
<path d="M29.4887 33.0733L30.3474 32.2905C30.3829 32.2586 30.3909 32.2204 30.3713 32.176C28.0368 27.0732 30.5567 19.9707 36.2965 18.4437C36.8858 18.2866 37.5124 18.0909 38.0817 18.035C41.5603 17.6928 43.8629 19.9427 46.7788 21.2407C46.8232 21.2611 46.8574 21.2931 46.8814 21.3366L47.2334 21.9943C47.2556 22.0351 47.2579 22.0768 47.2401 22.1194L47.0681 22.5427C47.0494 22.5889 47.0503 22.6346 47.0708 22.6799C47.9467 24.6462 48.4747 26.8455 48.0414 28.9649C47.8307 29.994 47.5547 30.4161 46.5854 30.7702C46.0672 30.9592 45.5366 31.1221 44.9935 31.2588C44.9375 31.2721 44.9122 31.3071 44.9175 31.3639L45.2082 34.6829C45.2135 34.7397 45.2446 34.7712 45.3015 34.7774C47.2601 34.9891 48.9107 33.8149 50.872 33.8375C50.9119 33.8375 50.9364 33.8184 50.9453 33.7802L51.7253 30.6317C51.7293 30.6146 51.7388 30.5993 51.7523 30.588C51.7658 30.5767 51.7827 30.5702 51.8003 30.5693C51.8178 30.5684 51.8352 30.5732 51.8498 30.583C51.8645 30.5928 51.8755 30.6071 51.8813 30.6237C52.1319 31.3213 52.2435 32.042 52.2159 32.7858C52.2141 32.8372 52.2381 32.8696 52.2879 32.883L53.6132 33.2184C53.6738 33.2341 53.7275 33.2693 53.7659 33.3187C53.8042 33.3681 53.8251 33.4288 53.8252 33.4914V33.9919C53.8252 34.0461 53.8523 34.0731 53.9065 34.0731L79.7909 34.0918C79.9536 34.0918 80.03 34.173 80.0202 34.3354L79.9629 35.246C79.9594 35.3037 79.9865 35.3325 80.0443 35.3325L80.7789 35.3339C80.8376 35.3348 80.8669 35.3055 80.8669 35.246L80.8535 30.681C80.8535 30.6439 80.8682 30.6084 80.8942 30.5821C80.9202 30.5559 80.9554 30.5412 80.9922 30.5412H81.6522C81.6792 30.5412 81.7051 30.552 81.7243 30.5711C81.7435 30.5903 81.7545 30.6164 81.7549 30.6437L81.7589 34.1916C81.7589 34.2404 81.774 34.2835 81.8042 34.3208L82.4735 35.1475C82.5162 35.2007 82.5588 35.2007 82.6015 35.1475L83.0188 34.6216C83.0301 34.6077 83.0445 34.5965 83.0609 34.5891C83.0773 34.5816 83.0952 34.5781 83.1131 34.5788C83.1311 34.5794 83.1487 34.5842 83.1645 34.5928C83.1803 34.6014 83.1938 34.6135 83.2041 34.6283C83.6721 35.3006 83.4215 35.9489 83.3708 36.6798C83.3681 36.7251 83.3895 36.7482 83.4348 36.749C86.3422 36.8396 88.6613 36.84 90.3919 36.7504C90.7341 36.7326 91.0492 36.5578 91.3372 36.2258C91.3692 36.1886 91.4087 36.1775 91.4558 36.1926C91.8838 36.3363 92.2771 36.5746 92.7331 36.5653C93.71 36.5458 94.6842 36.5329 95.6557 36.5267C95.6692 36.5267 95.6825 36.5294 95.6949 36.5346C95.7073 36.5398 95.7185 36.5474 95.7279 36.557C95.7372 36.5666 95.7445 36.5779 95.7493 36.5903C95.754 36.6027 95.7562 36.616 95.7557 36.6292L95.7104 38.0471C95.7059 38.182 95.6366 38.2468 95.5024 38.2414C94.1735 38.1891 92.8509 38.2463 91.5345 38.4132C91.4936 38.4185 91.4558 38.4096 91.4212 38.3865C90.8816 38.0244 90.2932 37.8483 89.6559 37.858C88.0035 37.8846 86.5818 37.8838 85.3907 37.8554C83.6295 37.8141 82.2375 38.8765 80.4376 37.9006C80.4192 37.8905 80.3985 37.8854 80.3775 37.8859C80.3565 37.8863 80.336 37.8924 80.3181 37.9033C80.3002 37.9143 80.2856 37.9298 80.2756 37.9483C80.2657 37.9667 80.2608 37.9875 80.2616 38.0085C80.2842 38.7247 80.3202 39.4582 79.3749 39.4596C76.2008 39.4613 73.0267 39.4618 69.8526 39.4609C69.302 39.4596 68.674 39.8723 68.1873 40.1172C68.1473 40.1368 68.118 40.1674 68.0993 40.2091C67.4754 41.607 66.3581 42.5162 65.1354 43.3723C65.0995 43.3974 65.0702 43.4307 65.0498 43.4694C65.0294 43.508 65.0185 43.551 65.0181 43.5946C64.9941 45.5849 65.5848 47.5485 66.0394 49.4749C66.0696 49.6027 66.083 49.7305 66.0794 49.8584C66.0785 49.9063 66.055 49.9369 66.0087 49.9502L64.1941 50.5014C64.1461 50.5156 64.1124 50.5462 64.0928 50.5932C63.2008 52.7952 63.7302 55.7427 61.5622 57.3269C61.0707 57.6864 60.796 57.8905 60.7383 57.9393C59.5423 58.9684 58.4504 60.1932 56.7144 60.0841C56.7027 60.0834 56.691 60.0861 56.6808 60.0919C56.6706 60.0977 56.6622 60.1063 56.6567 60.1167C56.6513 60.127 56.6489 60.1388 56.6499 60.1504C56.6509 60.1621 56.6552 60.1733 56.6624 60.1826L56.9651 60.574C57.0362 60.6654 57.0153 60.6982 56.9024 60.6725C56.5913 60.6006 56.4109 60.4062 56.3611 60.0894C56.3556 60.0556 56.3394 60.0244 56.3149 60.0007C56.2904 59.9769 56.2589 59.9618 56.2251 59.9576C52.2119 59.4597 48.856 57.2777 45.3721 55.4365C45.368 55.4343 45.3635 55.4332 45.3588 55.433C45.3541 55.4329 45.3495 55.4338 45.3453 55.4358C45.341 55.4377 45.3373 55.4406 45.3343 55.4441C45.3314 55.4477 45.3292 55.4519 45.3282 55.4565L44.6428 58.2828C44.6331 58.3236 44.6486 58.3507 44.6895 58.364C47.5641 59.2493 47.5921 61.458 47.3668 64.0886C47.2539 65.4101 47.1312 66.7317 46.9988 68.0532C46.8974 69.0544 46.9934 70.0861 46.8401 71.0393C46.6285 72.3476 46.1424 73.5439 45.3815 74.6285C44.6388 75.6896 43.2656 75.0013 42.3176 74.6711C42.2767 74.6568 42.2319 74.6578 42.1917 74.6739C42.1515 74.6901 42.1185 74.7203 42.0989 74.759L41.527 75.8879C41.5047 75.9314 41.4985 75.9771 41.5083 76.025C41.6612 76.8203 41.8198 77.6128 41.9843 78.4027C42.1136 79.0231 42.1869 79.4478 42.6256 79.9297C44.9722 82.5071 47.0841 85.4347 48.56 88.5965C50.0053 91.6922 51.3039 94.8492 52.4559 98.0674C52.5866 98.4321 53.2505 98.6771 53.5999 98.8928C53.6399 98.9176 53.6621 98.9531 53.6665 98.9993L53.8639 100.91C53.8692 100.962 53.8869 101.01 53.9172 101.052L54.4692 101.836C54.4967 101.875 54.5109 101.919 54.5118 101.967C54.6092 106.351 54.1745 110.499 53.4265 114.991C53.2639 115.972 53.5585 117.113 53.7052 118.085C53.8758 119.215 53.8599 120.115 53.5999 121.144C53.4279 121.834 52.8452 122.457 52.7972 123.182C52.6772 125.041 52.6874 126.897 52.8279 128.751C52.8892 129.554 53.1679 130.287 53.6465 130.865C54.3354 131.695 55.2202 132.72 56.3011 133.941C56.9011 134.618 57.3904 134.964 58.3037 135.279C59.5863 135.718 60.8049 136.218 61.9449 136.96C61.9884 136.988 62.0173 137.027 62.0316 137.077C62.2751 137.918 62.3004 138.768 62.1076 139.625C62.1022 139.649 62.0896 139.672 62.0715 139.688C62.0534 139.705 62.0306 139.716 62.0062 139.72C59.489 140.106 56.8984 139.974 54.3585 139.974C52.6132 139.974 50.6173 139.197 49.4253 138.909C47.4721 138.436 44.7562 139.879 43.2002 138.046C43.1709 138.011 43.1611 137.971 43.1709 137.926C43.6642 135.681 43.8655 133.523 44.7188 131.494C45.0988 130.592 45.0615 129.285 44.9842 128.4C44.8197 126.534 44.7255 124.971 44.7015 123.711C44.7006 123.666 44.6833 123.631 44.6495 123.603L43.9469 123.016C43.9078 122.983 43.8886 122.941 43.8895 122.891C43.9255 121.55 43.4895 120.381 43.1749 119.2C43.0398 118.695 42.9469 118.13 42.8962 117.507C42.7371 115.57 42.5531 113.637 42.3443 111.707C42.2216 110.576 42.5869 109.684 43.4096 108.924C43.4433 108.893 43.462 108.855 43.4656 108.811C43.5509 107.654 43.6651 106.505 43.8082 105.364C43.8949 104.675 43.0029 103.535 42.5643 103.038C42.5358 103.006 42.5016 102.998 42.4616 103.013C40.8443 103.606 39.3177 103.2 38.3697 101.79C36.4667 98.9602 34.5516 96.129 32.6246 93.296C32.5704 93.217 32.4953 93.1766 32.3993 93.1748C31.5087 93.1575 30.3234 93.2561 29.77 92.3987C29.2678 91.6186 28.8305 90.8007 28.4581 89.9451C28.4506 89.9282 28.4386 89.9136 28.4234 89.903C28.4082 89.8924 28.3904 89.8862 28.372 89.885C28.3536 89.8839 28.3353 89.888 28.3192 89.8967C28.3031 89.9054 28.2898 89.9185 28.2808 89.9345C27.7128 90.913 27.5528 91.9687 26.7315 92.838C24.9529 94.7231 24.2609 97.2539 23.3396 99.645C23.1289 100.192 22.9805 100.685 22.8943 101.125C22.6916 102.169 22.6916 103.164 22.3196 104.186C21.8757 105.4 20.6224 105.435 20.1624 106.594C19.7571 107.617 19.2398 108.537 18.3451 109.178C17.3918 109.86 16.8825 111.372 16.5518 112.448C16.3919 112.967 16.6678 113.899 16.7105 114.474C16.7345 114.799 16.7003 115.132 16.6078 115.473C15.9959 117.74 14.8439 119.807 13.9186 121.958C13.1266 123.797 13.0026 126.377 10.7667 127.084C10.7249 127.098 10.6929 127.123 10.6707 127.162C8.76679 130.474 7.77883 134.767 9.07878 138.458C9.46144 139.541 9.5121 140.507 9.30944 141.602C9.30369 141.634 9.2874 141.664 9.26306 141.686C9.23873 141.708 9.2077 141.722 9.17478 141.725C6.26955 141.992 3.44565 142.256 0.619084 141.528C0.576419 141.516 0.546198 141.49 0.528421 141.449C-0.0408917 140.146 -0.143553 138.346 0.188435 136.976C1.0724 133.323 2.07903 129.716 2.89233 126.046C2.90211 126.002 2.89189 125.963 2.86167 125.93C2.0617 125.067 2.16169 124.01 2.21636 122.907C2.31102 120.943 3.34032 119.561 4.32029 117.957C4.43673 117.768 4.51094 117.562 4.54294 117.339C4.7896 115.622 4.81893 114.163 5.60957 112.547C6.53487 110.656 7.42551 108.87 8.73746 107.418C8.88146 107.26 8.98723 107.08 9.05479 106.879C9.5441 105.431 10.6454 104.255 10.8067 102.94C10.936 101.891 10.4254 100.89 10.5467 99.7808C10.9334 96.2581 11.5107 92.7408 12.112 89.2502C12.12 89.2067 12.1085 89.1694 12.0773 89.1383C11.192 88.2357 11.3 87.0802 11.1054 85.9286C11.02 85.4214 11.3974 84.7837 11.64 84.3576C11.6588 84.325 11.6656 84.2867 11.6593 84.2496C11.653 84.2124 11.6339 84.1786 11.6054 84.154L10.948 83.5961C10.9063 83.5615 10.8889 83.5172 10.8961 83.463C11.0334 82.4406 11.196 79.983 12.864 80.3744C12.8844 80.3792 12.9057 80.3794 12.9262 80.3748C12.9468 80.3702 12.966 80.361 12.9824 80.348C12.9988 80.3349 13.0121 80.3182 13.0211 80.2993C13.0302 80.2803 13.0348 80.2596 13.0346 80.2386C13.0026 76.1622 11.8933 72.2655 12.1347 68.1597C12.1471 67.9494 12.2205 67.925 12.3547 68.0865L12.812 68.6363C12.8227 68.649 12.8372 68.6579 12.8534 68.6618C12.8695 68.6656 12.8865 68.6641 12.9018 68.6575C12.9171 68.651 12.9298 68.6396 12.9381 68.6253C12.9464 68.6109 12.9499 68.5942 12.948 68.5778L12.812 67.4648C12.8067 67.4186 12.8244 67.384 12.8653 67.3609C13.7519 66.879 14.4746 66.7579 15.2546 66.465C15.2866 66.4526 15.2857 66.4428 15.2519 66.4357L11.1774 65.573C11.1184 65.5604 11.0645 65.5308 11.0223 65.4879C10.9802 65.4451 10.9515 65.3909 10.94 65.332C10.7347 64.2697 10.8707 63.5827 11.076 62.2261C11.5276 59.2254 11.7885 56.202 11.8587 53.156C11.8603 53.1041 11.8794 53.0542 11.9128 53.0146C11.9462 52.975 11.992 52.9478 12.0427 52.9376C13.0195 52.7406 14.0359 52.6319 15.0919 52.6115C15.6377 52.6008 16.2372 52.4575 16.8905 52.1815C16.9332 52.1628 16.9518 52.1304 16.9465 52.0843C16.6052 49.2034 16.4585 46.3291 16.9012 43.4575C17.7171 38.1709 21.3263 31.4505 27.6888 32.0322C28.3554 32.0926 28.919 32.4361 29.3794 33.0627C29.4123 33.1071 29.4487 33.1106 29.4887 33.0733ZM57.2864 42.68C56.5193 43.1308 55.7456 43.5684 54.9651 43.9926C54.7465 44.1116 54.6229 44.3508 54.5945 44.7102C54.59 44.7573 54.6003 44.8007 54.6252 44.8407C55.2278 45.8427 55.7567 46.8825 56.2118 47.9599C56.2145 47.966 56.2185 47.9713 56.2236 47.9756C56.2287 47.9798 56.2346 47.9828 56.2409 47.9844C56.2473 47.9859 56.2539 47.986 56.2601 47.9845C56.2664 47.983 56.2722 47.9801 56.2771 47.9759C57.6317 46.7964 58.6903 45.3945 59.453 43.7703C59.4699 43.7357 59.4916 43.7046 59.5183 43.6771L60.0423 43.1553C60.0823 43.1144 60.0992 43.0656 60.093 43.0088C60.0156 42.3272 59.8561 41.6651 59.6143 41.0225C59.6023 40.9907 59.5806 40.9635 59.5521 40.9446C59.5237 40.9257 59.4899 40.9162 59.4556 40.9173C58.937 40.94 58.181 40.8614 57.733 41.125C57.1944 41.4432 56.7797 42.0077 57.3024 42.5655C57.31 42.5737 57.3158 42.5835 57.3191 42.5942C57.3225 42.6048 57.3235 42.6161 57.322 42.6271C57.3204 42.6381 57.3164 42.6486 57.3103 42.6577C57.3041 42.6669 57.2959 42.6745 57.2864 42.68Z" fill="white"/>
</svg>
