<svg width="161" height="160" viewBox="0 0 161 160" fill="none" xmlns="http://www.w3.org/2000/svg">
<path d="M7.59094 73.4685C7.59094 62.5876 7.59094 60.5123 7.44339 58.1437C7.29583 55.9959 6.92858 53.9996 4.12829 53.7031C3.53807 53.6306 2.80357 53.6306 1.40342 53.4824C0.295112 53.4066 0 53.0377 0 52.6654C0 52.2207 0.442668 52 1.69526 52C3.53807 52 10.3158 52.2207 13.5588 52.2207C15.9918 52.2207 19.3069 52.1482 25.4944 52.0725C38.0957 52.1449 47.9688 53.7756 54.6745 60.6605C58.4322 64.4357 61.7473 70.6552 61.7473 79.464C61.7473 88.2727 57.842 95.7506 53.6416 99.7465C50.0314 103.449 43.2536 108.555 28.4423 108.555C25.4944 108.555 22.9892 108.483 20.5595 108.259C17.6871 107.962 14.6638 107.742 13.2637 107.742C11.4963 107.742 9.72559 107.742 7.66308 107.814C5.60057 107.887 4.6431 107.962 2.58059 107.962C1.328 107.962 1.10503 107.593 1.10503 107.221C1.10503 106.704 1.69526 106.48 2.50517 106.48C3.46265 106.407 3.97746 106.332 4.79065 106.183C6.26294 105.963 7.00072 104.556 7.22369 101.667C7.44339 98.1126 7.59094 92.8583 7.59094 86.4906V73.4619V73.4685ZM20.6316 81.76C20.6316 89.6069 20.707 94.7162 20.7792 96.1229C20.9267 99.1569 21.2218 100.639 22.0318 101.453C23.3565 103.08 26.3797 104.118 29.6227 104.118C34.7806 104.118 39.1286 103.008 43.0339 98.9361C46.8638 95.0852 47.8246 88.4967 47.8246 81.5393C47.8246 74.5819 45.3915 68.8071 42.2994 64.5872C37.2136 57.9263 30.2162 56.5197 25.3501 56.5197C23.7303 56.5197 22.035 56.7404 21.3727 57.1126C20.7825 57.4091 20.7103 57.7781 20.7103 58.4435C20.7825 60.9603 20.6349 66.2904 20.6349 72.2858V81.76H20.6316ZM66.6658 75.982C66.7117 74.6379 66.8888 73.8308 67.4233 73.8308C67.7807 73.8308 68.0037 73.9659 69.1612 74.9048C71.0335 76.4728 73.3518 78.7129 83.5659 88.1212C88.1139 92.3312 91.1929 95.3355 92.3963 96.4095L92.1275 79.6089C92.0389 77.0987 91.816 75.9358 90.0322 75.6229C89.4092 75.4878 88.6943 75.445 88.0713 75.3989C87.4909 75.3989 87.268 75.1749 87.268 74.9509C87.268 74.6379 87.668 74.5029 88.1598 74.5029C89.9436 74.5029 92.8423 74.6379 94.6261 74.6379C95.6065 74.6379 97.8362 74.5029 99.7086 74.5029C100.377 74.5029 100.689 74.6379 100.689 74.9048C100.689 75.1288 100.466 75.3989 99.9315 75.3989C99.3512 75.445 99.1282 75.445 98.8167 75.534C97.3444 75.7118 96.8985 76.4761 96.764 79.2531C96.4066 88.2596 96.4066 97.2198 96.2295 106.223C96.2295 108.509 95.918 109 95.3376 109C94.6228 109 93.2423 107.926 90.3437 105.37C87.3106 102.682 83.3856 99.1437 80.7099 96.6796C78.2113 94.3934 73.7518 90.1834 70.499 87.0012L70.945 102.28C71.0335 105.505 71.2138 106.714 72.4599 107.162C73.1288 107.386 73.9322 107.386 74.8241 107.475C75.493 107.521 75.716 107.653 75.716 107.923C75.716 108.282 75.3585 108.371 74.647 108.371C73.0862 108.371 71.6598 108.282 68.8956 108.236C67.8692 108.236 64.5705 108.371 62.8294 108.371C62.2064 108.371 61.849 108.282 61.849 107.923C61.849 107.653 62.0719 107.475 62.6949 107.475C63.095 107.429 63.6754 107.429 64.1672 107.34C65.9051 107.07 66.1281 105.95 66.2625 101.786C66.4855 92.5552 66.397 81.76 66.6626 75.9787L66.6658 75.982ZM105.844 73.4685C105.844 62.5876 105.844 60.5123 105.696 58.1437C105.549 55.9959 105.181 53.9996 102.381 53.7031C101.791 53.6306 101.056 53.6306 99.6561 53.4824C98.5511 53.4066 98.256 53.0377 98.256 52.6687C98.256 52.224 98.6986 52.0033 99.9512 52.0033C101.794 52.0033 108.572 52.224 111.815 52.224C114.248 52.224 117.563 52.1515 123.75 52.0758C136.352 52.1482 146.225 53.7789 152.93 60.6638C156.688 64.439 160.003 70.6585 160.003 79.4673C160.003 88.276 156.098 95.7539 151.898 99.7498C148.287 103.453 141.51 108.559 126.698 108.559C123.75 108.559 121.245 108.486 118.815 108.262C115.943 107.966 112.92 107.745 111.52 107.745C109.752 107.745 107.982 107.745 105.919 107.817C103.857 107.89 102.899 107.966 100.837 107.966C99.584 107.966 99.361 107.597 99.361 107.224C99.361 106.707 99.9512 106.483 100.761 106.483C101.719 106.411 102.233 106.335 103.047 106.187C104.519 105.966 105.257 104.559 105.48 101.67C105.699 98.1159 105.847 92.8616 105.847 86.4938V73.4652L105.844 73.4685ZM118.884 81.76C118.884 89.6069 118.96 94.7162 119.032 96.1229C119.179 99.1569 119.475 100.639 120.284 101.453C121.609 103.08 124.632 104.118 127.875 104.118C133.033 104.118 137.381 103.008 141.287 98.9361C145.117 95.0852 146.077 88.4967 146.077 81.5393C146.077 74.5819 143.644 68.8071 140.552 64.5872C135.466 57.9263 128.469 56.5197 123.603 56.5197C121.983 56.5197 120.288 56.7404 119.625 57.1126C119.035 57.4091 118.963 57.7781 118.963 58.4435C119.035 60.9603 118.888 66.2904 118.888 72.2858V81.76H118.884Z" fill="white"/>
</svg>
