<svg width="160" height="160" fill="none" xmlns="http://www.w3.org/2000/svg"><g clip-path="url(#clip0)" fill="#fff"><path d="M70.94 145.61c-2.19-2.93-4.43-5.83-6.57-8.8-5.01-6.93-9.97-13.9-14.95-20.85-.19-.26-.36-.54-.55-.84l18.85-19.27c.15.09.28.15.37.23 3.06 2.98 6.12 5.97 9.19 8.94.65.63.95 1.38.97 2.27.1 8.22.21 16.44.31 24.66.04 3.4.09 6.8.15 10.19.04 2.09-.17 2.39-2.19 3.03-.38.12-.76.28-1.13.43-1.49.01-2.97.01-4.45.01zM84.27 145.61c-.11-.07-.21-.17-.33-.21-1.83-.6-2.29-1.61-2.13-3.8.08-1.09.24-2.18.25-3.27.1-10.22.17-20.45.25-30.67.01-1.01.37-1.9 1.08-2.58 3.06-2.98 6.15-5.93 9.23-8.9.03-.03.1-.04.21-.09 6.23 6.4 12.48 12.81 18.79 19.29-1.02 1.45-2.01 2.87-3.01 4.29-3.44 4.83-6.89 9.66-10.33 14.49-2.64 3.7-5.27 7.39-7.9 11.09-.08.11-.13.24-.19.36h-5.92zM95.54 67.52c3.37-3.57 6.71-7.16 10.11-10.69 2.36-2.45 4.8-4.81 7.21-7.21 1.02-1.02 1.36-1.05 2.53-.2 9.63 6.98 19.26 13.95 28.89 20.93 1.44 1.04 1.55 1.43.99 3.11-.39 1.2-.75 2.4-1.12 3.61-.41 1.35-.9 1.74-2.3 1.73-2.99-.03-5.97-.1-8.96-.11-4.93-.03-9.87-.01-14.8-.04-3.86-.02-7.73-.07-11.59-.12-1.1-.01-2.03-.44-2.74-1.27-2.34-2.71-4.68-5.43-7.02-8.15-.53-.62-1.06-1.25-1.59-1.87.13.1.26.19.39.28zM65.06 93.1c-6.16 6.37-12.3 12.73-18.48 19.13-2.68-1.93-5.31-3.82-7.94-5.72-7.44-5.38-14.88-10.76-22.33-16.14-1.47-1.06-1.57-1.43-.95-3.16.44-1.21.82-2.43 1.23-3.65.35-1.05 1.12-1.5 2.19-1.5 11.46 0 22.92 0 34.37.01 1.93 0 3.41.84 4.63 2.36 2.09 2.6 4.3 5.11 6.45 7.65.27.32.53.64.83 1.02zM114.14 112.3c-6.18-6.42-12.32-12.79-18.49-19.2 1.54-1.81 3.04-3.58 4.55-5.34 1.25-1.45 2.51-2.89 3.76-4.34.6-.7 1.38-.95 2.27-.96 5.62-.05 11.24-.1 16.86-.13 6.25-.04 12.5-.08 18.75-.11 1.62-.01 1.86.18 2.32 1.72.34 1.15.7 2.3 1.04 3.45.4 1.33.07 2.32-1.12 3.18-9.88 7.14-19.73 14.32-29.59 21.49-.08.07-.17.12-.35.24zM111.67 45.55c-6.33 6.47-12.61 12.88-18.94 19.34-3.3-3.24-6.57-6.4-9.75-9.65-.46-.48-.64-1.4-.65-2.12-.1-3.95-.12-7.89-.16-11.84-.05-5.24-.07-10.47-.12-15.71-.03-2.6-.1-5.21-.14-7.81-.02-1.21.33-1.69 1.48-2.04 1.12-.35 2.26-.65 3.39-.97 1.53-.43 2.76.05 3.68 1.3 2.43 3.3 4.84 6.62 7.23 9.95 4.17 5.79 8.32 11.6 12.47 17.4.5.68.98 1.38 1.51 2.15z"/><path d="M80.16 98.95c-10.29.03-18.33-8.17-18.64-18.04-.35-10.78 8.04-19.42 18.81-19.36 10.35.06 18.52 8.16 18.55 18.65.04 10.73-8.68 18.82-18.72 18.75zm0-2.42c8.82.08 16.06-7.12 16.29-15.79.25-9.34-7.25-16.83-16.36-16.87-8.61-.03-16.05 7.44-16.26 15.94-.22 8.99 7.31 16.76 16.33 16.72z"/><path d="M80.18 90.2c-5.4-.01-9.86-4.49-9.87-9.91-.01-5.31 4.65-9.87 10.05-9.87 5.48.01 9.91 4.63 9.8 10.28-.1 5.19-4.57 9.52-9.98 9.5zm.04-4.28c3.24.01 5.64-2.36 5.64-5.56 0-3.24-2.36-5.61-5.59-5.6-3.23 0-5.62 2.39-5.61 5.6.01 3.18 2.38 5.55 5.56 5.56z"/><path fill-rule="evenodd" clip-rule="evenodd" d="M60.157 62.584A27.39 27.39 0 0142.5 69a27.38 27.38 0 01-16.716-5.662c-1.145.818-2.294 1.63-3.443 2.442a570.836 570.836 0 00-5.861 4.18c-1.45 1.05-1.7 2-1.17 3.74.196.644.428 1.273.66 1.903.135.367.271.735.4 1.107.34.98 1.29 1.68 2.34 1.68h16.61c3.055 0 6.11-.002 9.165-.005 3.055-.003 6.11-.005 9.165-.005 1.14 0 2.19-.25 2.97-1.14 1.681-1.925 3.35-3.863 5.015-5.798L62.79 70.1c.573-.661 1.139-1.336 1.725-2.034l.425-.506-4.783-4.976zM63.037 59.79A27.397 27.397 0 0070 41.5a27.384 27.384 0 00-6.03-17.186l.88-1.234c.69-.967 1.376-1.94 2.062-2.91 1.142-1.62 2.285-3.24 3.448-4.84.243-.368.593-.655.944-.943.155-.126.31-.253.456-.387h.99l1.25.468c.833.31 1.667.622 2.5.942 1.6.61 2.16 1.32 2.15 3.01-.033 5.325-.084 10.65-.135 15.977-.026 2.677-.052 5.354-.075 8.033l-.018 2.682a1086.155 1086.155 0 01-.045 5.75c-.005.782-.01 1.577-.157 2.328-.15.75-.38 1.63-.89 2.15-2.293 2.323-4.642 4.602-7.025 6.915-.828.803-1.66 1.61-2.495 2.425a12565.57 12565.57 0 00-4.773-4.89z"/><path fill-rule="evenodd" clip-rule="evenodd" d="M42.5 64C54.926 64 65 53.926 65 41.5S54.926 19 42.5 19 20 29.074 20 41.5 30.074 64 42.5 64zm2.615-13.187a.62.62 0 00.455.187h12.788c.196 0 .348-.062.455-.187A.616.616 0 0059 50.36v-1.895c0-.196-.062-.347-.187-.454-.107-.124-.259-.187-.455-.187h-7.625l3.8-3.842c1.373-1.103 2.39-2.135 3.05-3.096a5.47 5.47 0 001.016-3.229c0-1.085-.25-2.054-.75-2.908-.499-.854-1.248-1.522-2.247-2.002-.98-.498-2.184-.747-3.611-.747-1.374 0-2.569.285-3.585.854-1.017.551-1.793 1.29-2.328 2.215a6.098 6.098 0 00-.856 2.935c0 .143.054.267.16.374.108.107.242.16.402.16h2.381a.892.892 0 00.482-.133.825.825 0 00.294-.48c.125-.837.446-1.513.963-2.029.517-.534 1.222-.8 2.113-.8.91 0 1.588.24 2.034.72.463.48.695 1.139.695 1.975 0 .783-.365 1.583-1.097 2.401-.713.801-1.988 1.922-3.825 3.363l-4.227 4.19c-.446.355-.67.773-.67 1.254v1.36c0 .178.063.33.188.454zm-17.928 0a.62.62 0 00.455.187h6.662c2.657 0 4.619-.587 5.885-1.761 1.267-1.192 1.935-3.033 2.007-5.524.035-1.032.053-1.717.053-2.055 0-.356-.018-1.05-.053-2.081-.107-4.84-2.783-7.259-8.026-7.259h-6.528a.653.653 0 00-.482.187.711.711 0 00-.16.48V50.36c0 .178.062.329.187.453zm10.22-3.87c-.66.66-1.739.988-3.237.988h-3.451V35.39h3.317c1.498 0 2.595.347 3.29 1.04.714.695 1.089 1.77 1.124 3.23.036 1.032.054 1.69.054 1.974 0 .267-.018.934-.054 2.002-.035 1.53-.383 2.633-1.043 3.309z"/></g><defs><clipPath id="clip0"><path fill="#fff" transform="translate(15 14)" d="M0 0h130.57v131.61H0z"/></clipPath></defs></svg>