<svg width="160" height="160" fill="none" xmlns="http://www.w3.org/2000/svg"><path d="m112.43 87.64.04.18c-.07-.03-.14-.07-.04-.18ZM156 95.1c0 24.24-19.7 43.9-43.98 43.9a43.94 43.94 0 0 1-43.99-43.9c0-24.25 19.7-43.9 43.98-43.9A43.94 43.94 0 0 1 156 95.1ZM99.62 73.73c.2-2.18.47-4.31 2.16-5.95.26-.25.48-.55.7-.83.44-.54.3-.68-.38-.72-1.4-.08-2.77.26-4.16.2-1.2-.05-2.37.06-3.55.18-.64.07-1.43.63-2.02-.18-.06-.03-.13-.08-.2-.1-2.18-.32-4.3.08-6.42.54-.12.02-.07.18-.06.28.21.77.74.98 1.51 1.17 1.44.36 2.99.48 3.92 2.1.5.86.46 1.7.72 2.54.13.4.63.77.3 1.28-.39.6-.3 1.27-.3 1.93-.03 2-.3 4-.54 5.98-.2 1.8-.12 3.6.09 5.37.25 2.1 1.07 4.14.75 6.32-.28 1.97-.98 5.86-.54 8.88-.04.9.18 1.83-.3 2.67a3 3 0 0 0 .15 1.52c.27 2.66.16 5.35.73 7.98.04.16.03.38-.05.51-.37.57-.33 1.24-.5 1.85-.32 1.04-.69 2.01-1.85 2.58-1.45.7-3.36.4-4.42 1.97-.05.09-.33-.08-.45.22 1.99.65 4.01.96 6.09.86.55-.03 1.39.43 1.54-.66.03-.18.3-.13.48-.1 2.94.56 5.92.38 8.88.53.26.02.65.2.78-.15.12-.3-.2-.52-.36-.75-.1-.15-.24-.28-.36-.42a7.96 7.96 0 0 1-2.2-5.14c-.12-1.93-.42-3.85-.59-5.78a12.32 12.32 0 0 1 0-3.33c.55-.9.33-1.88.22-2.83-.27-2.43.94-4.8.22-7.24-.2-.53-.1-1.08-.07-1.62.36-1.37-.04-5.81-.1-8.31a4 4 0 0 0-.04-.39c-.11-1.9.08-3.8-.13-5.73-.27-2.4.13-4.83.35-7.24Zm39.17-8.82a.3.3 0 0 0-.38-.04c-.6.28-1.04.7-1.35 1.32a68.3 68.3 0 0 0-2.2 4.7c-.98 2.4-2.11 4.76-2.99 7.2-.9 2.5-2.1 4.82-3.28 7.18-.63 1.28-1.54 2.44-1.81 3.9-.18.95-.31 1.92-.88 2.75-.34.37-.16.79-.12 1.2.04.57.03 1.15.02 1.72 0 1.07-.63 1.74-1.44 2.33-.6.45-1.39.75-1.52 1.64.23 1.66-.51 3.07-1.19 4.6a22.1 22.1 0 0 1-.92-4.37s-.16-1.85-.57-2.5c-.07-.31-.25-.53-.46-.71-.5-.76-1.1-1.77-.98-2.38a33.5 33.5 0 0 0-.1-7.68c-.03-.83-.07-1.64-.75-2.27-.12-.1-.15-.32-.17-.5-.28-2-.62-3.97-1.92-5.64-.19-.23-.22-.61-.26-.93-.1-.8-.31-1.55-.67-2.29-.42-.88-.56-1.86.06-2.7.45-.63.83-1.3 1.25-1.93.18-.27-.03-.34-.22-.41-.5.05-.84.42-1.23.68-.16.1-.32.25-.5.12-.2-.17-.1-.43.02-.6.35-.46.77-.85 1.3-1.15 1.02-.6 2.07-1.17 3.06-2.08-1.74-.33-3.3-.05-4.86-.1-2.85-.1-5.67.4-8.51.27a.92.92 0 0 0-.78.31c-.08.09-.36.16-.16.29.84.55.8 1.57 1.27 2.28 1.12 1.68 2.37 3.26 2.7 5.34.38 2.4 2.36 4.47 1.5 7.14-.02.08.06.21.11.3 1 1.56.61 3.43 1.16 5.1.34 1.05.24 2.24 1.23 3.02.24.2.22.47.2.7-.28 2.2.48 4.13 1.54 5.98.31 1.21.26 2.24.96 3.24.77 2.28 1.54 4.56 2.28 6.85 1.58 4.85 3.13 9.71 4.7 14.57.1.3.05.71.53.71.4 0 .72-.15.88-.54.17-.4.45-.79.49-1.2.1-.98.59-1.76 1.23-2.39a5.01 5.01 0 0 0 1.36-2.55c.48-2.16 1.05-4.31 1.2-6.52.14-1.9.6-3.62 1.87-5.1.78-.89 1.1-2.07 1.43-3.16 1.14-3.93 2.17-7.9 3.2-11.87.35-1.37.85-2.72.13-4.21-.3-.62-.07-1.5.12-2.26.57-2.25 1.1-4.51 1.57-6.78a82.72 82.72 0 0 1 2.85-10.58Zm-59.97 59a43.8 43.8 0 0 1-8.69-15.37c-8.5.95-21.57.72-21.87-5.22-.68-2.72-.34-60.15 0-65.92 12.65-3.54 34.9 3.63 44.5 18.21a43.87 43.87 0 0 1 24.43-4.11 35.64 35.64 0 0 0-5.6-6.97c-4.78-4.42-2.72-8.03 9.86 0C92.52 7.15 4 25.5 4 25.5v5.44s16 .68 17.02 6.8c1.02 6.11 2.04 60.82 0 71.35C18.98 119.63 4 120.66 4 120.66s0 2.38 1.36 4.85c22.47-3.99 42.22-2.13 52.1-.44 5.03.87 13.1.41 21.36-1.16Z" fill="#fff"/></svg>