<svg xmlns="http://www.w3.org/2000/svg" width="160" height="160" fill="none"><path fill="#fff" d="M146.97 98.25c.16-.83-.31-2.1-.34-2.99a93.88 93.88 0 0 1-.02-6.06l-.01-.07c0-.02-.02-.04-.04-.06l-.06-.04-.07-.01-4.09.02c-.08 0-.11-.04-.09-.11.18-.74.53-1.07 1.27-1.38.41-.17.75-.35 1.04-.53.12-2.08.25-4.08.39-6.02.26-3.61.5-8.37-1.89-11.41a14.09 14.09 0 0 1-2.14-3.63.3.3 0 0 1 0-.19c.08-.25.16-.49.34-.69a38.66 38.66 0 0 0 2.15-2.71v-.09c-.22-.67-1.01-2.32-.28-2.8.71-.46 1.88-.79 2.48-1.27.91-.72.86-1.51.91-2.6.37-8.02.36-15.88-.04-23.59a30.41 30.41 0 0 0-.76-5.28c-.35-1.54.69-3.49.8-4.59.04-.36-.04-.99-.22-1.87-.12-.57-.09-1.08-.09-1.64a.25.25 0 0 0-.06-.16.28.28 0 0 0-.15-.08 5.32 5.32 0 0 1-2.14-.75c-.49-.31-1.11-1.21-1.62-1.35-2.44-.66-5.36-.55-7.88-.49-.53.01-1.89-.1-2.28-.46a2.16 2.16 0 0 1-.25-.27.27.27 0 0 0-.17-.1c-1.15-.19-1.64.26-2.21 1.21-.42.7-1.02 1.2-1.78 1.5h-.04l-.04-.01-.03-.03-.02-.04-.68-2.53-.05-.09-.1-.05c-4.86-.98-10.07-1.14-15.01-1.18-2.33-.02-9.46-1.45-10.79.94a9.35 9.35 0 0 0-.7 3.3c0 .03-.01.06-.03.08l-.07.04c-.96.11-1.91.24-2.85.38-2.34.34-4.31.54-4.64-2.25 0-.07-.05-.11-.12-.11l-4.86-.44a.29.29 0 0 1-.18-.07.57.57 0 0 1-.13-.14.3.3 0 0 1-.04-.19c0-.07.02-.13.05-.19l.88-1.52.02-.06-.01-.06c0-.02-.02-.04-.04-.05a.14.14 0 0 0-.06-.02c-2.8-.31-6.2-.58-8.72-.23-2.21.31-4.56.08-6.77-.13a6.87 6.87 0 0 0-1.79.08c-.98.16-2 .14-3.04-.05a.3.3 0 0 0-.19.03c-.84.51-1.46 1.31-2.31 1.74l-4.28 2.14c-1.37.69-3.17.63-4.65.51a44.95 44.95 0 0 0-6.14-.11c-.72.04-1.44-.09-2.15-.19-.57-.08-.57-.61-.97-.86-.46-.3-.92-.28-1.44-.35-.74-.1-1.49-.18-2.25-.23-.07 0-.13.01-.18.05-.2.14-.25.2-.51.2-6.21-.1-13.95-.52-21.04-.43-1.61.02-3.14.58-4.75.35-.91-.13-1.74-.08-2.64-.16-.17-.02-.28.05-.35.21a10.43 10.43 0 0 0-.91 4.78c.07 1.54.85 3.54.96 4.94a83.5 83.5 0 0 1-.05 7.88c-.11 3.07-.56 5.14-.92 7.76-.32 2.29-1.13 3.99-1.04 6.3.12 2.84.32 5.94 1.2 8.65a34.73 34.73 0 0 1 1.74 9.2c.02.5-.04 1.05-.18 1.66-.58 2.66-.89 5.07.78 7.41.31.44 1.28 1.36 1.26 1.89-.05 1.19.02 2.28-.18 3.46-.32 1.89-1.89 2.77-3.69 2.85a.1.1 0 0 0-.07.03l-.04.07c0 .04.01.07.04.11.04.04.06.1.07.16.36 3.37.36 6.91.51 10.18.06 2.21-.02 4.44 2.11 5.75 1.51.93 1.44 2.52 1.34 4.11a107.5 107.5 0 0 1-.89 8.6c-.07.44-.28 1.37-.52 1.59-1.07.99-2.3 2.64-2.27 4.15.07 4.08.03 7.79.5 12.18.35 3.22-.12 5.92-.44 8.99a6.32 6.32 0 0 0 .03 1.32 18.3 18.3 0 0 0 9.57 1.65c3.37-.39 6.76-.48 10.15-.28 1.26.08 2.32-.09 3.5-.32.65-.12 1.12.11 1.71.31 1.05.34 1.81.11 2.95-.06a8.71 8.71 0 0 1 3.62.34 3.6 3.6 0 0 0 1.41.19c.97-.16 2.18-.16 2.9-.22 3.25-.26 5.39-.6 7.61-.31.07 0 .13.04.18.08.48.41 1.09.59 1.84.54 1.28-.08 3.43-.02 4.85.77.03.02.06.02.1.02.03 0 .07-.02.09-.04l.97-.88s.11-.07.17-.09l.9-.18c.06-.01.13 0 .19.03.06.04.09.09.11.15.35 1.42 1.32 2.51 2.48 3.98.49.62 1.04.94 1.72 1.29.05.03.11.02.16-.01 1.64-1.19 1.98-3.17 4.41-2.91 2.08.22 3.79 1.73 6.12.65a.15.15 0 0 1 .13 0c.04.02.08.04.1.09.56 1.14 1.6 2.3 3.02 1.62 2.25-1.08 4.1-2.37 7-2.52 2.06-.1 4.12-.17 6.18-.2 2.05-.03 4.44.15 6.67.16 1.9 0 4.01-.37 6.06-.39 1.4-.01 2.7-.7 3.81-1.51a.11.11 0 0 1 .08-.03c.03 0 .06 0 .09.02a8.24 8.24 0 0 0 5.22 1.43l11.74.52c.06 0 .12-.01.17-.05.98-.61 1.36-.8 2.54-.73.11 0 .15-.04.1-.14l-.36-.9c-.03-.07-.07-.1-.15-.1h-.96c-.1 0-.15-.05-.15-.15v-.98c.01-.06.04-.1.11-.1 3.09-.31 5.1-.51 7.64.19.91.25 1.81.39 2.7.64 1.14.32 2.4 1.06 3.67 1.51h.08a.1.1 0 0 0 .07-.03.1.1 0 0 0 .05-.06.19.19 0 0 0 .02-.08c0-3.49.32-7.52.13-10.58-.16-2.58-.24-4.33-.24-5.24l.08-25.72c0-.77.13-1.81.38-3.14l-.02.03Zm-54.68-56.7 14.04-3.67c1.05-.27 2.97-.66 4.42-1.17.46-.16.98-.46 1.49-.69a.21.21 0 0 1 .19 0c1.7.87 3.46 1.68 5.02 2.7 1.36.89 2.49 1.78 4.09 2.47.06.03.09.08.1.14.03 2.64.06 4.82-.58 7.17-.5 1.84-1.17 3.66-1.42 5.54-.21 1.56-.25 3.19-.35 4.78-.06.95-.39 1.63-1.46 1.61-1.49-.02-2.27-.88-3.34-1.93-.3-.29-.67-.42-1.02-.65-2.16-1.44-4.57-2.86-6.52-4.55-1.24-1.07-2.56-1.91-3.87-2.82-1.92-1.33-3.65-2.88-5.41-4.4-.56-.48-1.3-.67-1.82-1.17a22.44 22.44 0 0 0-2.62-2.14c-.45-.31-.66-.68-.98-1.09-.06-.08-.04-.12.05-.15l-.01.02Zm-27.83 77.23-.03.04a.22.22 0 0 1-.05.03c-1.48.49-3.36.87-4.69 1.66a8.56 8.56 0 0 1-3.6 1.18c-1.49.15-2.91.54-4.24 1.16-2 .93-3.75 1.63-5.76 1.58-1.82-.04-3.64-.07-5.46-.06-.96 0-1.87-.86-2.59-1.5-1.5-1.35-2.95-2.98-4.78-3.87-.64-.32-.99-1.08-1.59-1.48-.96-.64-2.4-.95-2.54-2.28a10.4 10.4 0 0 1-.01-2.02c.14-1.73 1.32-3.69 1.96-5.28 2.04-5 4.14-9.96 6.3-14.88 0-.02.02-.03.03-.04a.08.08 0 0 1 .05-.02h.05l.05.02c.61.49 1.2 1 1.77 1.54 5.02 4.75 9.7 9.69 14.9 14.41 2.98 2.7 5.94 5.42 8.91 8.14.51.47.94.99 1.29 1.58l.02.05v.05l.01-.01Zm63.95-7.64c-1.01 3.71-2.59 6.95-4.41 10.43-.81 1.54-2.13 1.79-3.76 1.7-2.53-.13-5.05-.31-7.57-.54-1.67-.16-3.33-.4-4.98-.73a4.6 4.6 0 0 1-2.42-1.26 74.55 74.55 0 0 1-4.79-5.21c-1.35-1.61-2.99-2.98-4.42-4.54-2.33-2.56-4.67-5.11-7.02-7.65a7.6 7.6 0 0 1-1.02-1.69c-.67-1.35-2.92-2.37-4.02-3.49-2.99-3.03-5.86-6.16-8.74-9.28-1.18-1.28-2.61-2.21-3.76-3.45a648.98 648.98 0 0 0-5.69-6.06c-2.68-2.82-5.44-5.95-8.02-8.49-3.01-2.96-6.02-5.93-9.02-8.91a28.59 28.59 0 0 1-2.66-3.06c-.48-.64-.93-1.17-1.37-1.61-4.63-4.59-9.2-9.24-13.7-13.95a70.75 70.75 0 0 0-2.52-2.47 5.38 5.38 0 0 1-1.37-2.33c-.03-.08 0-.12.08-.13 2.99-.39 5.44-1.85 7.72-2.8 2.64-1.1 4.34-.06 6.22 1.6.89.79 2 1.24 3.01 1.87l7.08 4.38c.06.03.09.08.1.15.4 2.17 1.66 2.93 3.51 3.73.86.37 2.11.66 2.64 1.46.69 1.03 2.36 1.46 3.49 1.84.68.22 1.19.71 1.83 1.14 8.43 5.58 16.2 10.82 23.31 15.7.87.6 1.74 1.39 2.62 1.94 1.85 1.16 3.86 2.19 5.58 3.35 1.94 1.31 3.42 2.33 5.84 3.9 1.41.92 2.79 2.09 4.04 2.93l6.41 4.3c.95.64 2.06 1.12 3.09 1.73 2.03 1.71 3.72 3.89 6.34 4.15.93.09 2.19 1.53 2.64 1.81a63.1 63.1 0 0 1 5.93 4.26c.77.62 1.72 1.21 2.85 1.78.06.03.09.08.09.15-.29 4.44-1.72 8.14-3.13 13.35h-.03Z"/></svg>