<svg width="160" height="160" fill="none" xmlns="http://www.w3.org/2000/svg"><path fill-rule="evenodd" clip-rule="evenodd" d="M124.276 14.247V5H155v9.247h-9.264v31.127H132.86V14.247h-8.584ZM63.57 10.765V5H5v30.482c0 10.708 17.323 9.885 17.323 9.885H63.57v-9.893H27.274V28.06H42.12v-6.588H28.098V10.765H63.57ZM50.532 84.89V59.33H31.64v-4a4.337 4.337 0 0 0-2.658-4.108 4.354 4.354 0 0 0-5.736 2.413 4.337 4.337 0 0 0-.3 1.694v4H9.807A4.35 4.35 0 0 0 6.734 60.6 4.336 4.336 0 0 0 5.46 63.67v21.22h45.07Zm-45.05 4.373a13.036 13.036 0 0 0 3.065 7.614 13.067 13.067 0 0 0 7.013 4.28l-7.987 48.801a4.335 4.335 0 0 0 2.483 4.647c.575.262 1.2.396 1.833.392h34.263a4.34 4.34 0 0 0 4.292-3.642l4.944-30.253h9.3c3.099.012 6.1-1.082 8.462-3.085a12.97 12.97 0 0 0 4.419-7.839l1.42-8.684h47.222a4.347 4.347 0 0 0 4.289-3.627l1.437-8.604H5.481ZM39.23 113.82l-3.434 21.011a4.34 4.34 0 0 1-1.467 2.61 4.352 4.352 0 0 1-3.516.986 4.34 4.34 0 0 1-3.591-4.983l3.434-21.013a4.34 4.34 0 0 1 3.288-3.619 4.37 4.37 0 0 1 3.33.543 4.349 4.349 0 0 1 1.938 2.757 4.34 4.34 0 0 1 .026 1.719l-.008-.011Zm29.719-5.041a4.322 4.322 0 0 1-1.47 2.612 4.334 4.334 0 0 1-2.82 1.03h-7.88l1.785-10.927H70.14l-1.19 7.285Zm76.112-23.974-14.038.085 3.661-25.56h12.765a4.358 4.358 0 0 1 3.284 1.495 4.336 4.336 0 0 1 1.021 3.456l-2.388 16.792a4.339 4.339 0 0 1-1.455 2.668 4.354 4.354 0 0 1-2.85 1.064Zm-90.438.085h72.793l3.607-25.56v-4a4.34 4.34 0 0 0-4.347-4.448 4.358 4.358 0 0 0-3.112 1.309 4.34 4.34 0 0 0-1.236 3.138v4H54.623v25.56ZM65.688 5.44v40.012h23.595l.121-15.107h13.494v-7.35h-13.9v-8.164h32.712v-9.8l-56.022.409Z" fill="#fff"/></svg>
