<svg width="160" height="160" viewBox="0 0 160 160" fill="none" xmlns="http://www.w3.org/2000/svg">
<path fill-rule="evenodd" clip-rule="evenodd" d="M24 0H51.3402L37.6508 24.1551C37.6455 24.1643 37.638 24.172 37.629 24.1774C37.6199 24.1827 37.6097 24.1856 37.5992 24.1856C37.5888 24.1856 37.5785 24.1827 37.5695 24.1774C37.5604 24.172 37.5529 24.1643 37.5477 24.1551L24 0.107643V0ZM62.548 0H96.5567L87.7843 14.9813C87.6947 15.1346 87.5607 15.2113 87.3825 15.2113H64.985C64.9293 15.2113 64.8872 15.2358 64.8588 15.2847L62.4824 19.3318C62.4752 19.3439 62.4713 19.3577 62.4711 19.3718C62.471 19.3859 62.4746 19.3998 62.4816 19.412C62.4886 19.4243 62.4987 19.4345 62.511 19.4416C62.5232 19.4487 62.5371 19.4525 62.5513 19.4525H85.0308C85.0443 19.4523 85.0576 19.4557 85.0693 19.4623C85.0811 19.469 85.0908 19.4786 85.0975 19.4903C85.1042 19.502 85.1077 19.5152 85.1075 19.5287C85.1072 19.5421 85.1034 19.5552 85.0964 19.5667L76.2354 34.7111C76.2059 34.7611 76.1622 34.7861 76.1042 34.7861H53.5181C53.4981 34.7862 53.4783 34.7915 53.4608 34.8015C53.4432 34.8115 53.4285 34.8259 53.4181 34.8432L48.5899 43.0745C48.583 43.0863 48.5731 43.0961 48.5611 43.103C48.5492 43.1098 48.5357 43.1134 48.5219 43.1134C48.5081 43.1134 48.4946 43.1098 48.4826 43.103C48.4707 43.0961 48.4607 43.0863 48.4538 43.0745L39.793 28.2106C39.78 28.1883 39.7732 28.163 39.7732 28.1372C39.7732 28.1114 39.78 28.0861 39.793 28.0638C43.8624 21.1028 47.9443 14.1363 52.0389 7.16439C52.7277 5.9899 53.329 5.10904 53.8429 4.52179C56.0618 1.98195 59.1056 0.221848 62.548 0ZM141.773 0H107.627C104.329 0.263759 101.554 1.98228 99.4152 4.44294C98.9135 5.0196 98.3271 5.88733 97.6561 7.04612C87.3579 24.8408 77.0493 42.63 66.7305 60.4138C64.6929 63.9262 64.5691 68.3217 65.8151 72.1388C65.9503 72.5533 66.1636 72.935 66.3786 73.3101C71.872 82.8688 77.3664 92.4187 82.8619 101.96C82.8691 101.972 82.8793 101.982 82.8916 101.989C82.9039 101.996 82.9178 102 82.9319 102C82.9408 102 82.9496 101.999 82.9579 101.996C82.9605 101.995 82.963 101.994 82.9655 101.993C82.9678 101.992 82.97 101.991 82.9722 101.989C82.9788 101.986 82.9847 101.981 82.9899 101.976C82.9922 101.973 82.9944 101.971 82.9964 101.968C82.9984 101.965 83.0003 101.963 83.002 101.96L116.683 43.53C116.728 43.4524 116.706 43.4137 116.617 43.4137H99.4038C99.3364 43.4137 99.286 43.4426 99.2523 43.5005L82.9531 71.6506C82.9495 71.6568 82.9444 71.6619 82.9382 71.6654C82.9359 71.6667 82.9334 71.6677 82.9309 71.6685C82.9293 71.6691 82.9275 71.6695 82.9258 71.6698C82.9231 71.6703 82.9204 71.6705 82.9176 71.6704C82.9161 71.6704 82.9146 71.6703 82.9131 71.6701C82.9114 71.6699 82.9097 71.6695 82.908 71.6691C82.9042 71.6681 82.9004 71.6665 82.8969 71.6644C82.8905 71.6607 82.8852 71.6553 82.8814 71.6489L80.5262 67.5451C80.4806 67.4665 80.4806 67.3878 80.5262 67.3092L110.59 15.4323C110.603 15.4109 110.621 15.3931 110.643 15.3808C110.665 15.3685 110.69 15.362 110.716 15.3619L115.437 15.3537C115.528 15.3537 115.55 15.3925 115.504 15.47L101.844 39.0461C101.835 39.0613 101.831 39.0786 101.831 39.0961C101.831 39.1137 101.835 39.1308 101.844 39.146C101.852 39.1611 101.865 39.1736 101.879 39.1822C101.894 39.1909 101.911 39.1953 101.928 39.1952H119.06C119.098 39.1952 119.135 39.1852 119.168 39.1663C119.2 39.1473 119.228 39.12 119.247 39.0871L141.773 0ZM51.5515 105H73.1423C73.5576 105.023 73.9723 105.033 74.3864 105.03C77.6169 105.004 80.3211 107.67 80.018 111.002C79.9419 111.844 79.6748 112.666 79.2167 113.47C74.2259 122.223 69.2312 130.974 64.2327 139.723C64.1639 139.844 64.0774 139.978 63.986 140.119C63.8276 140.364 63.6542 140.632 63.5317 140.897C63.5207 140.92 63.5033 140.94 63.4815 140.954C63.4597 140.968 63.4345 140.975 63.4086 140.975H37.9231C37.8909 140.975 37.8669 140.989 37.8511 141.017L34.183 147.398C34.1778 147.407 34.1749 147.417 34.1749 147.427C34.1748 147.438 34.1775 147.448 34.1827 147.457C34.1879 147.466 34.1954 147.474 34.2044 147.479C34.2134 147.484 34.2236 147.487 34.234 147.487L59.3725 147.484C59.3854 147.484 59.3886 147.49 59.3822 147.501L52.2042 160H12.0273L12.0079 159.974C11.998 159.959 11.9974 159.944 12.0062 159.928C16.1823 152.66 20.3587 145.392 24.5355 138.125C24.9378 137.426 25.2398 136.921 25.4413 136.612C27.968 132.729 32.3152 129.077 37.0419 128.51C37.4226 128.464 37.9304 128.441 38.5653 128.441C44.252 128.438 49.9244 128.438 55.5823 128.44C55.6263 128.44 55.6591 128.421 55.6807 128.383L61.8167 117.706C61.8395 117.666 61.8281 117.646 61.7824 117.646L51.5453 117.646C51.5014 117.646 51.4683 117.666 51.446 117.704L47.8509 123.952C47.8382 123.974 47.8198 123.992 47.7978 124.005C47.7757 124.018 47.7507 124.025 47.7253 124.025H32.8977C32.8561 124.025 32.8458 124.007 32.8669 123.97C34.6633 120.843 36.4474 117.74 38.2192 114.663C38.6216 113.965 38.9235 113.461 39.125 113.152C41.8196 109.024 46.4821 105.255 51.5515 105ZM104.089 105H89.0723C84.1989 113.55 79.3267 122.107 74.4556 130.672C74.3218 130.907 74.2113 131.194 74.1242 131.534C73.6239 133.481 73.7101 135.38 74.3828 137.231C75.1999 139.48 76.9437 141.06 79.4205 141.085C84.1893 141.135 88.9525 141.147 93.7102 141.121C93.7155 141.121 93.7207 141.122 93.7253 141.125C93.7299 141.127 93.7337 141.131 93.7364 141.136C93.739 141.14 93.7405 141.145 93.7405 141.151C93.7405 141.156 93.7391 141.161 93.7365 141.166L82.9361 160H97.8676L108.669 141.169C108.676 141.157 108.686 141.147 108.698 141.14C108.71 141.133 108.724 141.129 108.738 141.129L115.822 141.13C115.841 141.13 115.859 141.127 115.877 141.121C115.891 141.117 115.905 141.111 115.918 141.104C115.947 141.087 115.971 141.063 115.989 141.033L123.094 128.632C123.098 128.626 123.1 128.619 123.1 128.612C123.1 128.607 123.099 128.603 123.098 128.6C123.097 128.597 123.096 128.594 123.094 128.591C123.093 128.589 123.092 128.587 123.091 128.585C123.088 128.582 123.084 128.578 123.08 128.576C123.073 128.572 123.066 128.57 123.059 128.571L115.935 128.572C115.93 128.572 115.925 128.571 115.921 128.569C115.918 128.567 115.916 128.565 115.914 128.563C115.913 128.562 115.912 128.56 115.911 128.558C115.908 128.554 115.907 128.549 115.907 128.544C115.907 128.539 115.908 128.534 115.911 128.53L129.367 105.063C129.37 105.057 129.372 105.051 129.371 105.045C129.371 105.038 129.368 105.032 129.365 105.027C129.358 105.017 129.354 105.008 129.355 105H114.468L100.976 128.528C100.96 128.557 100.934 128.571 100.901 128.571H90.6487C90.6466 128.571 90.6445 128.571 90.6425 128.571C90.6398 128.57 90.6372 128.569 90.6349 128.567C90.6307 128.565 90.6272 128.561 90.6248 128.557C90.6225 128.553 90.6212 128.548 90.6212 128.543C90.6213 128.538 90.6226 128.533 90.625 128.529L104.089 105Z" fill="#FFF"/>
</svg>
