<svg width="160" height="160" fill="none" xmlns="http://www.w3.org/2000/svg"><path d="M120.389 102.805c-11.619-1.162-17.169 6.97-21.558 7.102-4.389.132-6.328-4.132-4.777-7.49 1.55-3.359 7.486-2.321 7.632-.774.146 1.547 1.551.389 1.808-1.162.494.692.926 1.427 1.29 2.196 0 0 .906-2.453-.256-3.872 1.162 0 1.935 1.041 1.935 1.041s-.517-3.615-5.162-2.838c-4.645.777-7.632-4.132-11.362-7.23-3.73-3.098-12.777-2.196-13.811-1.419-2.678-25.076 37.402-16.652 37.402-16.652s-11.584-5.069-12.617-9.586c-1.034-4.517 2.324-12.653 28.795-11.49-17.17-6.592-34.468 1.29-35.887-10.97-1.419-12.26 32.528-16.524 40.015-6.973-8.777-13.166-26.203-11.102-26.203-11.102s4.454-19.588 35.241-17.555c-38.631-15.105-98.85 14.329-91.007 54.121-.388 1.29-6.713 2.838-4.51 13.555 2.082-5.94 6.592-7.633 8.65-5.166 2.056 2.467 11.361 13.426 11.618 15.612.257 2.185 0 7.098-2.325 7.486-.645-2.58-.517-4.131-.517-4.131l-3.611 5.679s-2.325-3.47-2.585-6.196c-2.32 6.324-.902 9.294-.902 9.294s-4.649-2.325-4.777-3.227a20.468 20.468 0 0 0 2.325 5.808s-.257 1.162-.903 1.294c-.645.132-16.652-.777-15.362-13.298.646-2.581 9.166-.902 9.166-.902s-13.183-3.486-17.17-6.973C26.98 73.5 18.057 57.882 24.638 39.81c-12.26 11.747-3.612 31.37-4 33.822-.389 2.453-2.325 5.936-1.551 7.615 1.162 4.51 11.265 6.117 10.2 17.558-.517 5.551 2.324 7.872 2.324 7.872s-3.098-7.098 3.615-7.632c6.713-.535 10.842 1.419 14.974 6.067 4.132 4.649 2.081 9.021 2.081 9.021l-3.098-.774.905-3.355-5.939 3.615s.645-3.875 1.808-4.905c-3.615 1.935-4.778 4.128-4.778 4.128s.26-3.355 2.582-8.517l-5.936 8.26-.26 4.261-4 6.969.128 3.487-1.548 2.064.514 5.811 4.003-.645 7.876-8.781a3.318 3.318 0 0 1 0 3.358c3.615-1.807 1.675-7.229 3.355-7.875 1.679-.645 3.743-1.419 5.162 1.936-.257 4.51.132 5.939 1.55 8.909-.256-5.683 3.227-5.682 3.227-5.682s-1.162 6.591 4.51 8.649c-1.68-5.291.385-8.518 3.872-8.518 3.486 0 5.034-.26 6.591-1.939 1.558-1.679 3.359-5.679 2.197-8.777-1.163-3.098 3.354-3.227 3.354-1.548 0 1.68-.902 4.774.26 5.936 1.163 1.163.517 4.389.646 4.778.128.388 1.162-1.936 1.162-1.936l.902 1.807.777-1.807.902 1.419s1.162-3.098.517-4.389c-.645-1.291-4.777-3.355-3.47-5.679 1.309-2.325 3.744-.517 5.166 1.419 1.423 1.936 2.967 2.841 2.321 5.939-.645 3.098-2.71 6.842-3.098 11.875-5.679 3.227-9.165 5.68-10.456 9.555-1.29 3.875-.645 11.875-.645 11.875l-1.041.257s.128 3.743-.777 4.649c3.875-2.453 3.743-4.649 3.743-4.649s-1.29-7.875 2.082-12.777c3.372-4.902 7.098-5.811 7.098-5.811-2.71 16.524 8.52 16.912 10.456 16.912s12.264-2.324 9.166-12.652c-3.098-10.328-14.328-8.132-14.328-8.132s3.47-1.936 4-1.808c-2.32-4.132 1.808-5.294 2.585-5.294.777 0-3.615-4-2.453-6.196 1.162-2.196 6.324-5.422 9.679-3.615 3.355 1.808 7.633 6.973 7.633 6.973s-5.811-7.101-3.744-8.909c1.582-1.388 4.684-1.096 6.8.347-3.945-4.225-3.31-5.936-2.154-7.434 1.203-1.652 3.271-3.199 8.305-4.112Zm-19.848 42.569c-.777 3.469-5.55 5.283-8.132 3.871-1.422-.773-5.94-2.192-4.26-11.875 9.166-1.027 13.461 3.195 12.392 8.011v-.007Z" fill="#fff"/></svg>
