<svg width="160" height="160" fill="none" xmlns="http://www.w3.org/2000/svg"><path fill-rule="evenodd" clip-rule="evenodd" d="M79.526 11.174a.674.674 0 0 1 .483-.173l.015.015a.746.746 0 0 1 .712.655l.338 1.14.002.007.002.006c1.168 3.95 2.35 7.95 4.564 11.46a10.088 10.088 0 0 0 3.624 3.45c3.33 1.928 7.036 3.06 10.701 4.178l.321.098c.652.166 1.265.46 1.803.864.121.685-.498.918-1.035 1.121h-.001c-.108.041-.213.081-.308.123-2.869.883-5.74 1.77-8.516 2.92l-1.747.824c-1.587.853-3.181 1.818-4.258 3.308-.603.749-1.052 1.593-1.501 2.437-.205.385-.41.77-.63 1.146l-.256.075.082.22a91.953 91.953 0 0 0-3.103 9.334c-.019.771-1.162 1.326-1.45.373a408.12 408.12 0 0 1-.497-1.617c-.849-2.774-1.698-5.547-2.855-8.21h-.033c-1.08-2.265-2.373-4.626-4.582-5.99-3.232-2.056-6.903-3.204-10.536-4.339-.559-.174-1.116-.348-1.67-.526a4.32 4.32 0 0 1-1.49-.923c.419-.46.952-.802 1.545-.991.399-.125.798-.25 1.198-.373 3.486-1.082 6.997-2.171 10.178-3.99a10.172 10.172 0 0 0 3.67-3.389c2.223-3.449 3.404-7.4 4.57-11.303v-.002c.146-.489.292-.978.44-1.464a.674.674 0 0 1 .22-.464Zm36.687 25.254a4.097 4.097 0 0 0-3.032 1.117c-.773.814-1.33 1.791-1.885 2.766h-.001c-.248.436-.496.87-.763 1.29-1.236 2.154-2.834 4.15-4.95 5.491-.206.141-.453.217-.697.293-.401.123-.797.245-.998.65a7.709 7.709 0 0 0-.961 2.607c4.141 1.234 8.429 1.66 12.713 2.085 1.561.155 3.122.31 4.675.504 9.223 1.162 18.551 2.853 26.954 7.007.712.372 1.438.775 2.15 1.173a69.591 69.591 0 0 1-2.92-.844c-.544-.166-1.087-.331-1.632-.49-.063.186-.111.386-.16.589-.148.61-.302 1.248-.861 1.606-.685.461-1.462.757-2.237 1.052-.985.374-1.967.748-2.755 1.458 2.396.267 4.819.15 7.179-.346 4.596-.894 9.282-2.608 12.638-5.994h.041c.718-1 1.162-2.17 1.289-3.393-5.379-4.98-11.882-8.635-18.703-11.246-7.677-2.98-15.604-5.215-23.59-7.178a5.916 5.916 0 0 0-1.49-.227l-.004.03Zm-72.232-.004a4.466 4.466 0 0 0-1.434.186 199.962 199.962 0 0 0-21.314 6.288c-5.216 1.862-10.289 4.157-14.9 7.245A55.115 55.115 0 0 0 .956 54.24l-.042.038c-.39.343-.807.709-.915 1.248.544 3.352 3.744 5.17 6.508 6.574 4.54 2.09 9.658 3.29 14.665 2.723-.8-.68-1.768-1.053-2.737-1.426-.835-.322-1.67-.644-2.4-1.163-.505-.379-.621-.997-.732-1.587-.03-.157-.059-.313-.095-.461-.842.167-1.66.419-2.478.67-.677.209-1.354.417-2.044.578.88-.542 1.807-.99 2.737-1.438.554-.268 1.11-.535 1.655-.824 7.822-3.352 16.248-4.79 24.618-5.937 1.276-.14 2.558-.258 3.841-.377 4.584-.423 9.184-.848 13.592-2.23-.08-.224-.154-.465-.23-.712-.352-1.158-.746-2.449-2.094-2.611-2.876-1.503-4.536-4.308-6.146-7.029a76.683 76.683 0 0 0-1.08-1.789 4.266 4.266 0 0 0-3.599-2.063Zm4.88 24.25a40.696 40.696 0 0 0-8.12.767c-9.287 1.863-17.657 7.387-23.431 14.844a45.04 45.04 0 0 0-7.242 13.809 46.798 46.798 0 0 0 .838 30.813l.045.022a42.978 42.978 0 0 0 4.329 8.557c.086.085.157.208.228.334.142.249.29.508.576.5l-.19.045a43.42 43.42 0 0 0 8.49 9.126h.111a36.877 36.877 0 0 0 10.173 5.893 39.016 39.016 0 0 0 16.357 2.552c9.018-.339 18.252-2.109 26.075-6.843a24.908 24.908 0 0 0 6.403-4.925c0-1.922 0-3.84.03-5.759 0-.851.004-1.703.008-2.555.01-2.161.02-4.322-.034-6.481.032-.549.03-1.104.03-1.66-.003-1.44-.006-2.884.57-4.233l-.067.093a8.195 8.195 0 0 1 3.616-3.528c.596-.328 1.258-.519 1.918-.71.898-.259 1.793-.518 2.511-1.119 0-.138-.016-.369-.03-.572a16.67 16.67 0 0 1-.018-.27 23.237 23.237 0 0 0-3.133-.093h-38.24c-.745-.194-1.707.514-1.118 1.3.671.647 1.59.881 2.492 1.111.314.081.626.16.924.256 3.442.716 6.787 2.321 8.966 5.159.685 1.308 1.37 2.679 1.37 4.195.023 2.071.017 4.142.01 6.212-.007 2.415-.014 4.829.024 7.246-.023.323-.044.647-.064.971-.126 1.996-.253 4.022-1.105 5.857-1.347 1.478-3.334 1.382-5.236 1.29-.645-.031-1.279-.062-1.876-.031a21.235 21.235 0 0 1-10.966-5.166 32.19 32.19 0 0 1-6.928-8.966 46.924 46.924 0 0 1-3.692-9.57 83.9 83.9 0 0 1-1.17-5.83 65.636 65.636 0 0 1-.454-10.508 59.122 59.122 0 0 1 2.205-13.037h.056a41.59 41.59 0 0 1 6.403-12.896c1.863-2.273 3.92-4.418 6.392-6.024 4.076-2.767 9.28-3.93 14.103-2.752 5.215 1.2 9.529 4.76 12.736 8.906a40.749 40.749 0 0 1 5.062 9.108c.574 1.508 1.118 3.028 1.539 4.589.062.202.116.41.17.62.202.775.409 1.569 1.022 2.129.94-1.756 1.046-3.74 1.152-5.71.038-.717.077-1.433.155-2.135.146-2.633.213-5.267.216-7.9a87.197 87.197 0 0 1-.038-1.56c-.04-2.154-.08-4.328-.77-6.379-4.757.123-9.275-1.605-13.388-3.859a41.693 41.693 0 0 0-19.995-5.24v.007Zm33.342 1.952c4.228-.168 8.467-.22 12.706-.22h-.03c2.761-.003 5.521.013 8.281.03 4.304.025 8.61.05 12.922.003 2.092.049 4.187.023 6.281-.003 3.501-.043 7-.086 10.482.22-.064 1.51-1.459 1.856-2.739 2.173-.379.094-.747.185-1.068.304-3.524.797-7.164 2.41-9.067 5.64-1.25 1.94-1.199 4.207-1.149 6.446.019.804.037 1.605-.006 2.385 0 2.2.006 4.398.011 6.597.011 4.398.021 8.795-.011 13.19.019 5.882.019 11.76.019 17.646-.015 3.007-.01 6.012-.005 9.018.002 1.504.005 3.007.005 4.511-.001.499-.008 1-.016 1.501-.033 2.219-.067 4.445.493 6.612l-.149.469.484.101a12.365 12.365 0 0 0 7.014 5.379c.695.264 1.433.441 2.173.619 1.37.33 2.744.661 3.854 1.541.33 1.248-.882 1.234-1.825 1.224-.197-.002-.383-.004-.54.006-5.664-.035-11.328-.022-16.992-.009-8.349.019-16.698.037-25.045-.096l-1.661.026a24.118 24.118 0 0 1-4.638-.093c-.087-1.562 1.365-1.92 2.67-2.241.377-.094.743-.184 1.055-.299 4.38-.864 8.907-3.453 10.143-8.035.103-2.234.098-4.47.093-6.707-.003-1.084-.006-2.167.004-3.25-.002-.57-.008-1.139-.015-1.707-.019-1.578-.037-3.152.045-4.726-.071-3.234-.055-6.468-.039-9.703.01-2.034.02-4.068.01-6.102 0-3.085.005-6.169.012-9.253.012-6.169.024-12.337-.013-18.506.402-3.334-.495-6.94-3.274-9.055-1.735-1.625-3.946-2.262-6.156-2.898-1.458-.42-2.916-.84-4.237-1.543a18.83 18.83 0 0 0-.03-.37 12.062 12.062 0 0 1-.052-.825Z" fill="#fff"/></svg>
