<svg xmlns="http://www.w3.org/2000/svg" width="160" height="160" fill="none"><path fill="#fff" d="M115.984 40.07s-9.401-.014-9.401 7.495v22.646H149V25.088c0-7.633-9.407-7.618-9.407-7.618h-23.607s-9.402-.016-9.402 7.618v11.173h18.91v-3.689h4.592v7.498h-14.102Zm14.101 22.706h-4.592v-7.603h4.592v7.603ZM60.603 35.903H55.9V20.89h4.45L60.342 14h18.947l-.015 6.89h23.759v15.012H79.528v26.554h4.7V39.708h18.804v30.258h.005c0 .083-.001.164-.003.245H60.607a8.796 8.796 0 0 1-.004-.242V35.902Zm-49.599-7.32L11 73.995c0 7.44 9.458 7.486 9.458 7.486H34.66v3.815H11v15.031l33.316-.008c9.373 0 9.39-7.89 9.39-7.89V21H20.422c-5.703 0-9.416 4.042-9.416 7.582Zm19.037 7.568h4.612v30.297H30.04V36.15Zm30.117 50.917c-.014-.216-.036-.375-.035-.535.034-3.724.069-7.45.109-11.174.008-.711.019-.712.75-.712l59.169.001 28.084-.003c.75 0 .751.003.751.746.001 3.578-.01 7.157.014 10.735.004.539-.16.687-.69.676-1.537-.032-3.079.037-4.615-.027-1.435-.06-2.648.427-3.77 1.235-1.776 1.28-3.109 2.962-4.113 4.853-1.387 2.612-2.651 5.289-3.911 7.964-2.278 4.838-4.512 9.696-6.767 14.544-3.007 6.465-6.017 12.928-9.025 19.392-1.667 3.581-3.342 7.159-4.995 10.747-.176.382-.405.491-.808.489a855.993 855.993 0 0 0-9.065.002c-.435.003-.66-.142-.856-.521-3.633-7.061-7.278-14.116-10.924-21.171-3.848-7.446-7.704-14.888-11.55-22.335-1.704-3.299-3.384-6.61-5.085-9.91-1.457-2.824-3.866-4.366-6.94-4.983-1.69-.338-3.392-.297-5.093-.084-.197.025-.394.044-.635.071Zm47.78-9.408H64.624c-.26 0-.52.013-.778-.004-.323-.021-.468.08-.465.43.013 1.817.012 3.633 0 5.45-.002.34.13.43.46.44.888.024 1.782.035 2.66.15 1.6.21 3.123.624 4.288 1.854a29.916 29.916 0 0 1 4.334 5.906c1.247 2.21 2.411 4.465 3.61 6.7L92.88 124.98c3.17 5.913 6.342 11.826 9.501 17.746.182.341.394.464.778.46a281.82 281.82 0 0 1 5.282 0c.365.003.562-.11.718-.448 1.051-2.287 2.126-4.564 3.192-6.844 4.219-9.022 8.441-18.042 12.654-27.066 2.191-4.695 4.373-9.395 6.547-14.098 1.295-2.802 2.799-5.468 5.04-7.653 1.515-1.478 3.217-2.698 5.38-2.997 1.092-.151 2.219-.082 3.329-.066.473.007.647-.102.637-.607a122.104 122.104 0 0 1 0-5.063c.013-.567-.156-.7-.716-.699-10.157.018-20.313.014-30.47.014h-.647l-.099.675h-5.96l-.108-.675Zm8.096 1.877h27.126c.744 0 .744.003.745.752 0 .367-.029.737.007 1.1.045.463-.101.62-.599.656-2.51.184-4.841.91-6.839 2.475-1.635 1.281-2.806 2.963-3.952 4.66-2.319 3.433-3.98 7.204-5.725 10.932l-17.808 38.052c-.405.865-.823 1.725-1.208 2.6-.14.318-.331.428-.675.421a59.324 59.324 0 0 0-2.892.003c-.392.01-.59-.137-.769-.471-2.631-4.911-5.274-9.816-7.916-14.72l-11.59-21.512c-2.72-5.05-5.405-10.12-8.172-15.144-1.56-2.83-3.695-5.16-6.763-6.44-.972-.406-2.064-.547-3.113-.751-.329-.064-.498-.111-.484-.481.024-.638.007-1.277.007-1.962h40.645v2.422c-1.013.187-2.011.295-2.963.565-1.98.56-3.496 1.686-4.076 3.752-.341 1.211-.269 2.442.014 3.651.14.602.332 1.209.607 1.761 4.235 8.487 8.488 16.965 12.738 25.445.057.113.123.222.244.438.112-.221.194-.366.261-.517 3.495-7.857 6.982-15.718 10.49-23.57.557-1.245 1.127-2.476 1.286-3.846.376-3.243-.947-5.54-4.037-6.718-1.231-.47-2.561-.707-3.863-.965-.544-.108-.823-.215-.74-.837.072-.54.015-1.096.015-1.75h-.001Zm-44.095 2.3c.91.889 1.891 1.292 3.148.983-.889-.871-1.873-1.258-3.148-.982Zm5.903 1.138c-.898-.835-1.858-1.236-3.105-1.024.89.827 1.842 1.248 3.105 1.024Zm-.359 1.305c-.932-.78-1.892-1.141-3.107-.883.883.873 1.892 1.069 3.107.883Zm3.114-.993c-.712-.828-1.937-1.27-2.959-1.066.833.779 1.777 1.154 2.96 1.066Zm-3.37.238c1.07.857 1.92 1.104 2.93.878-.825-.753-1.816-1.06-2.93-.878Zm2.644 2.09c-.956-.733-1.932-.984-3.11-.796.935.733 1.902 1.013 3.11.795Zm-.426 1.22c-.92-.728-1.86-.906-2.979-.7.885.775 1.845.868 2.98.7Zm2.938.089c-.935-.711-1.92-.875-3.07-.777.938.716 1.919.892 3.07.777Zm-1.879-4.38c1.078.907 2.127 1.273 2.864 1.035-.788-.707-1.706-1.044-2.864-1.035Zm1.476 5.48c-.935-.675-1.89-.811-3.041-.647.981.598 1.903.876 3.041.648Zm1.988-5.387c-.711-.778-1.845-1.304-2.78-1.086.736.766 1.686.994 2.78 1.086Zm-3.83 1.116c1.052.844 2.079 1.157 2.871.912-.81-.657-1.73-.941-2.872-.912Zm1.499 5.374c-.937-.614-1.861-.694-2.956-.496.962.575 1.868.761 2.956.496Zm-1.826-4.183c.763.722 1.951 1.058 2.862.823-.846-.635-1.778-.905-2.862-.823Zm3.72-1.893c.951.835 2.102 1.262 2.93 1.13-.814-.7-1.774-1.002-2.93-1.13Zm1.47 5.06c-.946-.578-1.845-.781-2.938-.657.93.589 1.824.801 2.938.657Zm-1.194 4.121c-1-.458-1.879-.486-2.897-.224.96.483 1.84.495 2.897.224Zm-.597-8.04c.944.737 1.914 1.053 2.671.903-.804-.634-1.503-.877-2.67-.903Zm.92-2.125c.835.785 1.698 1.105 2.769 1.233-.773-.783-1.656-1.062-2.768-1.233Zm.437 7.028c-.927-.552-1.792-.634-2.83-.518.927.517 1.773.713 2.83.518Zm.67-1.994c-.923-.645-1.98-.9-2.656-.67.777.536 1.616.752 2.657.67Zm-2.282-1.8c.753.62 1.622.88 2.707.832-.87-.618-1.731-.893-2.707-.831Zm.945 5.837c-.9-.487-1.75-.505-2.78-.29.965.406 1.797.589 2.78.29Zm.36-1.023c-.919-.5-1.802-.594-2.852-.416.954.498 1.833.624 2.852.416Zm-4.953-.307c.245.67 1.144.849 1.963.387-.648-.256-1.235-.628-1.963-.387Zm2.015 3.317c.344.5 1.201.563 2.195.143-.766-.244-1.452-.443-2.195-.143Zm7.53-7.29.066-.182c-.69-.553-1.501-.779-2.364-.86l-.07.191 2.367.851Zm-13.73-1.036c.743.896.992.993 1.872.76-.658-.583-1.302-.855-1.872-.76Zm14.026.187.088-.17c-.545-.56-1.63-.992-2.32-.79l2.232.96Zm-1.858-2.499.056-.144c-.649-.633-1.353-1.114-2.228-.714l2.172.858Zm-.316 7.737.047-.338-2.213-.331-.048.29 2.214.38Zm-6.08-8.053c-.486-.757-1.134-.917-1.955-.466l1.955.466Zm9.248 1.217.136-.293-2.153-1.04-.134.273 2.152 1.06Zm-3.634 8.728.032-.31-2.228-.234-.034.321 2.23.223Zm1.444-4.594.084-.344c-.742-.192-1.483-.386-2.225-.579l-.077.272 2.218.65v.001Zm-.39-4.648-.08.172c.617.579 1.376.861 2.197 1.012l.085-.182-2.201-1.003Zm.251 5.434c-.754-.535-1.506-.658-2.46-.65.806.54 1.554.672 2.46.65Zm-.46.99.065-.323-2.27-.4a57.74 57.74 0 0 1-.053.287l2.258.436Zm-1.208-3.687-.072.185c.685.435 1.41.75 2.243.723l.063-.192-2.233-.716Zm-2.151 7.145-.01.205 2.246.109.01-.21c-.733-.32-1.489-.23-2.246-.104Zm2.713-1.618.039-.327-2.27-.25-.035.28 2.266.297Zm-2.928 3.674.002.192h2.092l-.002-.192h-2.092Zm2.217-.83-.005-.213h-2.102c0 .07 0 .142-.002.212h2.109Zm4.535-11.41.098-.19c-.54-.398-1.017-.919-1.776-.896l-.084.155 1.762.931Zm-11.396 5.403-1.545-.68c.38.89.563.974 1.545.68Zm6.523 8.036-.02-.285-1.891.142.02.27 1.891-.127Zm-1.99.9c.856.345 1.376.29 1.843-.186l-1.843.185Zm1.88 1.011-.023-.187-1.444.144.022.22c.51.255.973-.02 1.446-.177Zm6.535-12.216.119-.23-1.716-.72-.09.206 1.687.744Zm-8.842 8.578-1.284-.199c.228.668.391.696 1.284.199Zm8.001-7.138.12-.24-1.79-.566-.068.197 1.738.609Zm.484-.713.096-.222-1.778-.662-.076.193 1.759.69v.001Zm.79-1.431c.036-.078.07-.155.106-.231l-1.706-.766-.09.188 1.69.809Zm-1.667 2.887.073-.239-1.672-.485-.064.205 1.663.519Zm-1.596 4.018.06-.25-1.644-.168-.025.222 1.61.196Zm-.24-3.89-.053.24 1.567.4.06-.227-1.573-.413Zm4.84-4.967.146-.2-1.54-.92-.108.172 1.501.948Zm-1.865-.432-.112.192 1.546.867.109-.191-1.543-.868Zm-2.063 7.616.04-.22-1.719-.285-.036.204 1.715.3Zm-1.013 3.32.008-.127h-1.695l-.003.126h1.69Zm4.053-9.214.121-.203-1.536-.794c-.034.065-.068.13-.103.193l1.519.805Zm-5.048 6.26-.017.215 1.545.195.029-.224-1.557-.185Zm.89-1.697-.06.225 1.522.309.043-.2-1.505-.334Zm5.617-6.43.134-.189-1.313-.847-.13.196 1.309.84ZM88.6 94.48l-.014-.133H87.05v.133h1.55Zm-4.04 4.375-.003.21c.335.327.613.005.903-.21h-.9Zm3.026-6.412-.019.194h1.474l.008-.113-1.463-.08Zm.42 4.768-.03-.213-1.161.182.022.15 1.168-.12Zm.058 1.849-.024-.215-1.276.284.027.132 1.273-.201Zm-8.03-8.068c.206.715.6.535 1 .35l-1-.35Zm6.97 4.273.002.19 1.366-.083-.006-.107h-1.361Zm-10.22-13.75-.022.073 1.396.156.012-.23h-1.385Z"/></svg>