<svg width="160" height="160" fill="none" xmlns="http://www.w3.org/2000/svg"><path d="M77.308 110.398H139c-.498.677-.902 1.222-1.316 1.767-7.218 9.493-14.445 18.995-21.664 28.497-.319.423-.648.564-1.165.564-29.324-.01-58.647-.01-87.98-.01h-.809c.179-.3.301-.517.433-.733 4.802-7.349 9.605-14.69 14.389-22.049a2.7 2.7 0 00.395-1.363c.018-25.037.018-50.075 0-75.104 0-.507-.179-1.071-.442-1.504-4.436-7.302-8.929-14.586-13.412-21.87-.113-.188-.216-.376-.376-.649h50.255v92.454zM66.96 120.633V28.179H45.418c.197.33.339.583.489.827 1.786 2.895 3.58 5.79 5.338 8.694.207.338.339.77.339 1.166.018 27.133.018 54.267 0 81.401 0 .385-.132.827-.348 1.156-1.88 2.923-3.788 5.827-5.686 8.741-.132.206-.245.432-.442.77H109.705c.451 0 .827 0 1.156-.441 2.33-3.121 4.699-6.213 7.058-9.314.113-.141.188-.311.338-.536-17.133-.01-34.145-.01-51.297-.01z" fill="#fff"/><path d="M131.584 100.06h-10.629c4.229-13.045 3.449-25.677-3.224-37.689-6.645-11.983-16.871-19.427-30.141-22.791V29.09c15.178 3.11 27.293 10.837 36.165 23.478 11.166 15.893 11.861 34.53 7.829 47.491zM30.991 52.4v64.436c-12.387-16.692-14.784-43.515 0-64.436z" fill="#fff"/></svg>