<svg width="80" height="80" viewBox="0 0 80 80" fill="none" xmlns="http://www.w3.org/2000/svg">
<path fill-rule="evenodd" clip-rule="evenodd" d="M54.425 8.5L57.48 11.555L50.27 18.765L48.74 14.185L54.425 8.5ZM78.58 32.655C70.055 41.18 61.53 44.02 61.53 44.02L59.56 34.195L69.84 23.915L78.58 32.655ZM60.0986 14.1897L52.8897 21.3986L59.9925 28.5014L67.2014 21.2925L60.0986 14.1897ZM10.235 23.915L20.515 34.195L18.55 44.02C18.55 44.02 10.025 41.18 1.5 32.655L10.235 23.915ZM31.34 14.185L25.655 8.5L22.6 11.555L29.81 18.765L31.34 14.185ZM57.375 31.125L45.84 42.66C47.145 44.11 48.48 45.53 49.855 46.91L64.955 62.01L63.535 71.955L40.04 48.46L16.545 71.955L15.125 62.01L30.225 46.91C31.6 45.53 32.935 44.105 34.24 42.66L22.705 31.125L29.8 24.03C34.63 28.96 37.87 32.855 39.94 35.575C39.9557 35.5952 39.9714 35.6144 39.9867 35.6331L39.9868 35.6332C39.9974 35.6462 40.0079 35.6589 40.0179 35.6715C40.0255 35.681 40.0329 35.6905 40.04 35.7L40.0581 35.6772L40.0868 35.6418C40.1055 35.619 40.1235 35.597 40.14 35.575C42.21 32.855 45.455 28.96 50.28 24.03L57.375 31.125ZM19.9768 14.1866L12.874 21.2895L20.0828 28.4983L27.1857 21.3955L19.9768 14.1866ZM30.99 71.955H21.795L39.81 53.94L57.825 71.955H48.63L39.81 63.135L30.99 71.955Z" fill="white"/>
</svg>
