<svg width="160" height="160" fill="none" xmlns="http://www.w3.org/2000/svg"><path fill-rule="evenodd" clip-rule="evenodd" d="M42.413 33.222c10.37-8.37 23.57-13.13 36.922-13.216 13.812-.207 27.505 4.56 38.232 13.216l-11.331 13.156c-5.273-4.1-11.523-6.983-18.091-8.247-11.952-2.376-24.837.7-34.4 8.247L42.412 33.222ZM20.005 80.424c-.221-16.447 6.78-32.753 18.719-43.97l.568-.541 11.332 13.156c-3.283 3.15-6.113 6.817-8.25 10.835-6.84 12.542-6.67 28.578.435 40.982L66.1 78.395 77.768 53.24c.086 7.342.055 15.033.025 22.66a2134.48 2134.48 0 0 0-.025 15.413l-23.495 22.682a42.313 42.313 0 0 0 14.26 7.079c12.644 3.581 26.913.902 37.312-7.178L82.508 91.313l.018-38.032 11.651 25.114 23.092 22.305a42.35 42.35 0 0 0 5.263-17.79c.94-12.532-4.046-25.235-13.176-33.841l11.331-13.156c9.259 8.553 15.769 20.06 18.166 32.478 3.261 16.22-.588 33.713-10.412 46.977-10.093 13.958-26.419 23.145-43.62 24.426-15.873 1.348-32.132-3.979-44.087-14.435C27.8 114.267 20.012 97.497 20.005 80.425Z" fill="#fff"/></svg>
