<svg width="160" height="160" viewBox="0 0 160 160" fill="none" xmlns="http://www.w3.org/2000/svg">
<path d="M59.7268 9.31009H61.685C61.8879 9.31009 62.0503 9.39094 62.172 9.55264L64.8658 13.1393C64.936 13.232 64.9797 13.3427 64.9919 13.4591C65.0041 13.5755 64.9845 13.6931 64.9351 13.7988C64.8858 13.9046 64.8086 13.9944 64.7122 14.0583C64.6159 14.1222 64.504 14.1578 64.3889 14.1611C61.3383 14.2609 58.9574 15.5545 57.2461 18.0419C56.9823 18.4203 56.9721 18.8521 57.2156 19.3372C57.29 19.492 57.4067 19.5385 57.5657 19.4765C58.286 19.1927 60.1377 18.1812 60.6349 19.1205C60.6571 19.1632 60.6704 19.2101 60.674 19.2583C60.6775 19.3064 60.6712 19.3546 60.6554 19.3999C60.6396 19.4451 60.6147 19.4863 60.5824 19.5208C60.55 19.5554 60.5109 19.5825 60.4675 19.6004C58.5093 20.4313 56.9062 22.0723 57.5454 24.3843C58.5059 27.8763 60.3 30.8506 62.9279 33.307C63.1207 33.4894 63.2441 33.4498 63.2982 33.1883C63.6263 31.5679 64.5665 30.479 66.1189 29.9217C66.3285 29.846 66.4351 29.6946 66.4385 29.4675C66.4486 28.7485 66.2592 28.0827 65.8703 27.4704C65.8283 27.4077 65.8085 27.3323 65.814 27.2567C65.8196 27.1811 65.8501 27.1096 65.9008 27.0539C65.9514 26.9982 66.0191 26.9616 66.0928 26.9501C66.1665 26.9385 66.2418 26.9528 66.3066 26.9904C67.1588 27.4618 67.4176 28.2118 67.0827 29.2405C66.9948 29.5122 67.0827 29.7015 67.3465 29.8081C68.8279 30.4068 69.4197 31.4991 69.1221 33.0851C69.0883 33.2606 68.997 33.3965 68.8482 33.4928C68.1515 33.9366 67.4801 33.9074 66.8342 33.4051C66.7861 33.3681 66.748 33.3194 66.7233 33.2636C66.6985 33.2077 66.6879 33.1465 66.6925 33.0854C66.697 33.0243 66.7165 32.9653 66.7493 32.9139C66.782 32.8624 66.8269 32.8202 66.8798 32.791L67.7625 32.2955C67.9316 32.1992 68.0043 32.053 67.9807 31.8569C67.8927 31.1241 67.492 30.6183 66.7784 30.3397C66.589 30.2674 66.4114 30.2898 66.2457 30.4068C64.7846 31.4389 64.1556 34.0966 65.3275 35.6396C66.4943 37.1827 74.8192 36.7285 76.3512 36.6047C85.3847 35.8822 92.8658 35.4883 98.7945 35.4229C114.359 35.2526 136.898 36.4757 133.692 59.874C132.429 69.0908 121.963 77.1053 114.501 81.177C107.71 84.8858 100.932 88.6135 94.1679 92.3601C92.4362 93.32 91.0428 94.1853 89.9876 94.9559C89.8388 95.0626 89.7526 95.2088 89.7289 95.3946C89.6173 96.2891 89.6122 97.4072 89.7137 98.749C90.1043 103.853 89.871 108.637 89.8811 114.876C89.9065 131.003 85.432 149.752 67.9401 154.855C64.9673 155.722 64.115 152.497 65.3224 150.36C65.6809 149.727 66.8172 148.393 68.7315 146.356C69.9287 145.079 71.0127 143.196 71.9833 140.705C74.8682 133.318 76.3665 125.634 76.4781 117.652C76.5356 113.445 76.615 109.096 76.7165 104.606C76.7192 104.478 76.6894 104.351 76.6298 104.237C76.5703 104.124 76.4831 104.029 76.3768 103.96C76.2704 103.891 76.1486 103.852 76.0232 103.846C75.8978 103.84 75.7731 103.867 75.6613 103.925C69.7613 106.991 65.2818 109.948 63.0141 116.011C62.1822 118.246 59.0825 122.08 56.3177 120.883C51.3968 118.752 57.7077 110.613 59.8536 108.926C64.3078 105.427 68.9547 102.207 73.7944 99.265C74.7414 98.6905 75.5412 97.968 76.194 97.0976C76.2954 96.96 76.3495 96.8052 76.3563 96.6331C76.5829 88.4518 76.5271 82.9557 76.1889 80.1449C75.1946 71.8673 74.6822 62.5626 71.5876 55.0126C69.7461 50.5229 63.2221 49.0263 59.0013 49.0624C58.7731 49.0624 58.4636 49.2069 58.2607 48.8921C58.2192 48.8297 58.201 48.754 58.2093 48.6784C58.2177 48.6029 58.252 48.5324 58.3063 48.4793C59.8249 46.938 61.641 46.1897 63.7548 46.2344C63.9814 46.2378 64.1099 46.2275 64.1404 46.2034C64.194 46.1645 64.2391 46.1146 64.2727 46.0569C64.3062 45.9991 64.3275 45.9349 64.3352 45.8683C64.3428 45.8016 64.3367 45.7341 64.3171 45.6701C64.2975 45.6061 64.265 45.5469 64.2215 45.4964C62.1754 43.1742 60.2814 40.9241 58.5397 38.7463C56.4496 36.1351 52.0969 34.5611 50.8489 39.0147C49.8647 42.5188 55.4502 42.88 54.7095 39.5411C54.6791 39.3966 54.5945 39.3054 54.4559 39.2676L53.5884 39.0405C53.2163 38.9442 53.1944 38.7945 53.5224 38.5915C54.165 38.1924 54.7805 38.1976 55.369 38.607C55.4975 38.6999 55.5686 38.8255 55.5821 38.9837C55.851 42.72 51.0062 44.005 49.7734 40.3306C49.7126 40.1586 49.5942 40.0864 49.4183 40.1139C48.2346 40.3134 47.2217 40.0072 46.3795 39.1953C46.3343 39.1502 46.3032 39.0922 46.2904 39.0289C46.2776 38.9656 46.2837 38.9 46.3078 38.8408C46.332 38.7816 46.3731 38.7315 46.4258 38.6971C46.4784 38.6628 46.5401 38.6457 46.6028 38.6483L49.1291 38.7515C49.3388 38.7618 49.4758 38.6655 49.5401 38.4625C50.1793 36.4395 51.5355 35.2887 53.6087 35.01C53.675 35.0002 53.7373 34.971 53.7879 34.9262C53.8385 34.8813 53.8752 34.8227 53.8935 34.7575C53.9118 34.6923 53.911 34.6233 53.891 34.5591C53.871 34.4949 53.8329 34.4382 53.7812 34.3959C47.6427 29.3643 41.687 26.7995 33.707 29.0392C32.0887 29.4933 25.5292 32.5691 29.7805 34.8913C29.8788 34.9451 29.9885 34.9736 30.1001 34.9744C30.2118 34.9752 30.3219 34.9482 30.4209 34.8958C30.5199 34.8434 30.6049 34.7672 30.6683 34.6738C30.7317 34.5803 30.7718 34.4726 30.7849 34.3598L30.9067 33.2812C30.9202 33.1539 30.9912 33.0868 31.1198 33.08C31.9112 33.0387 31.9872 34.881 30.8052 35.2371C29.4423 35.6465 28.2247 35.3833 27.1526 34.4475C27.0241 34.334 26.9767 34.1895 27.0106 34.014C28.1419 28.7089 32.6315 27.4549 37.2632 26.7427C37.4425 26.7152 37.5558 26.612 37.6031 26.4331C38.2423 23.9869 38.5924 22.9135 40.9666 21.8453C41.1695 21.7524 41.2794 21.8195 41.2963 22.0465C41.4485 24.0953 38.0902 24.9571 38.4757 26.3866C38.5231 26.5586 38.6347 26.6361 38.8105 26.6188C42.4733 26.2782 47.6377 27.3671 50.9555 28.8689C55.0849 30.7474 57.7229 33.9882 61.7002 35.9544C61.7887 35.9966 61.8889 36.0057 61.9834 35.9802C62.0778 35.9547 62.1604 35.8962 62.2167 35.8149C62.273 35.7337 62.2993 35.6349 62.2912 35.5358C62.283 35.4368 62.2408 35.3438 62.172 35.2732C58.6412 31.733 56.8351 27.8626 54.4914 22.7587C53.6949 21.0196 52.589 20.4674 50.8236 20.328C50.7628 20.3245 50.7044 20.3031 50.6554 20.2664C50.6064 20.2298 50.5689 20.1795 50.5474 20.1216C50.5259 20.0637 50.5214 20.0007 50.5344 19.9403C50.5474 19.8798 50.5774 19.8245 50.6206 19.781C51.6555 18.7145 52.7615 18.6594 53.9384 19.6159C54.3646 19.9599 54.4762 19.8739 54.2732 19.3578C53.7795 18.0952 52.9965 16.7758 51.9244 15.3996C50.6105 13.7121 48.9059 14.2333 47.0644 13.3818C46.9055 13.3061 46.8091 13.1806 46.7752 13.0051C46.5977 11.9988 48.8856 10.4764 49.5553 9.99646C49.7041 9.8898 49.814 9.75047 49.885 9.57845C50.1894 8.80779 50.2587 8.01477 50.093 7.19939C50.0592 7.03769 50.0778 6.88116 50.1488 6.72978C50.7576 5.40349 52.7615 6.7917 53.4717 7.3955C53.638 7.53755 53.842 7.62615 54.0579 7.65004C54.2738 7.67393 54.4917 7.63203 54.6842 7.52967L57.449 6.06922C57.5259 6.02911 57.6103 6.00586 57.6965 6.00097C57.7828 5.99608 57.8689 6.00968 57.9494 6.04086C58.0299 6.07204 58.1028 6.12011 58.1634 6.18191C58.2241 6.24372 58.271 6.31786 58.3013 6.3995L59.2702 8.99013C59.3514 9.20344 59.5036 9.31009 59.7268 9.31009ZM107.15 74.9946C111.614 70.584 114.102 65.2926 114.612 59.1205C115.099 53.1755 111.919 45.1816 106.901 42.0749C103.573 40.0107 100.722 40.1036 95.9586 39.9642C92.651 39.8713 85.8987 39.154 83.0122 40.5835C82.8696 40.6538 82.7446 40.756 82.6463 40.8824C82.548 41.0089 82.479 41.1564 82.4444 41.314C82.4098 41.4717 82.4105 41.6354 82.4464 41.793C82.4824 41.9506 82.5526 42.0981 82.652 42.2246C86.5532 47.1375 87.8316 53.6709 88.1968 59.8843C88.7346 69.1424 89.663 78.3593 89.389 87.6536C89.3856 87.8084 89.6021 88.0097 90.0384 88.2574C90.1906 88.3469 90.4138 88.297 90.708 88.1078C96.6503 84.3267 102.131 79.9557 107.15 74.9946Z" fill="white"/>
</svg>
