<svg width="160" height="160" fill="none" xmlns="http://www.w3.org/2000/svg"><path fill-rule="evenodd" clip-rule="evenodd" d="M81.24 37.213c6.972 0 12.624-5.644 12.624-12.606C93.864 17.644 88.212 12 81.24 12c-6.973 0-12.625 5.644-12.625 12.607 0 6.962 5.652 12.606 12.625 12.606Zm-19.096-5.248c0 5.016-4.072 9.083-9.097 9.083-5.024 0-9.096-4.067-9.096-9.084 0-5.016 4.072-9.083 9.096-9.083 5.025 0 9.097 4.067 9.097 9.084Zm56.68 0c0 5.016-4.073 9.083-9.097 9.083-5.024 0-9.097-4.067-9.097-9.084 0-5.016 4.073-9.083 9.097-9.083 5.024 0 9.097 4.067 9.097 9.084ZM85.739 56.338c.811.74 1.504 1.8 2.078 3.184a21.708 21.708 0 0 1 1.308 4.987c.312 2.156.461 4.332.447 6.51-.002 3.13-.222 5.844-.66 8.143-.442 2.31-1.126 4.094-2.054 5.354-.927 1.26-2.14 1.89-3.64 1.89a3.998 3.998 0 0 1-2.768-1.12c-.818-.747-1.51-1.812-2.08-3.195a22.154 22.154 0 0 1-1.297-4.996 43.378 43.378 0 0 1-.445-6.51c-.001-3.123.215-5.834.648-8.132.43-2.295 1.114-4.072 2.05-5.332.935-1.26 2.153-1.89 3.655-1.89 1.028 0 2.016.397 2.758 1.107Zm-35.435-.783-1.218-.069v17.22l1.218-.068c2.031-.126 3.579-.95 4.643-2.475 1.064-1.523 1.599-3.522 1.603-5.997 0-2.441-.504-4.456-1.511-6.043-1.008-1.588-2.586-2.443-4.735-2.568Zm104.888 2.418a13.698 13.698 0 0 1-8.509 2.977h-9.412v6.096h16.746a13.666 13.666 0 0 1-4.808 7.617 13.7 13.7 0 0 1-8.51 2.978h-10.021v6.096h16.744a13.663 13.663 0 0 1-4.808 7.617 13.698 13.698 0 0 1-8.509 2.976h-20.083c-1.809.907-4.24 2.584-5.183 5.354-2.445 7.18-1.133 14.698 3.963 16.959-1.698 6.218-8.295 11.305-8.295 11.305s-7.718-4.805-9.14-11.023c5.375-2.687 5.612-11.584 1.11-17.555a85.63 85.63 0 0 1-10.765 1.383c-1.97 6.843-3.278 35.013 8.358 36.157-1.698 6.218-12.355 11.306-12.355 11.306s-11.78-4.804-13.201-11.022c8.936-.297 9.606-30.501 6.135-36.382a86.149 86.149 0 0 1-11.298-1.357l-.013.033a4.27 4.27 0 0 0-.074.196c-2.444 7.18-1.132 14.698 3.964 16.959-1.7 6.218-8.294 11.305-8.294 11.305s-7.718-4.805-9.14-11.023c6.723-3.352 3.672-17.624-4.874-22.595H25.89a13.7 13.7 0 0 1-8.51-2.976 13.665 13.665 0 0 1-4.81-7.617h16.744v-6.096H19.297a13.698 13.698 0 0 1-8.51-2.977 13.662 13.662 0 0 1-4.808-7.618h16.744V60.95h-9.406a13.697 13.697 0 0 1-8.509-2.977A13.663 13.663 0 0 1 0 50.357h35.187c.516-.783 1.03-1.572 1.545-2.363 1.758-2.702 3.534-5.432 5.496-8.053a13.447 13.447 0 0 0 5.91 4.526 13.468 13.468 0 0 0 14.064-2.663 13.426 13.426 0 0 0 3.84-6.373 18.658 18.658 0 0 0 6.734 5.79 18.686 18.686 0 0 0 23.877-6.103 13.423 13.423 0 0 0 3.432 6.212 13.456 13.456 0 0 0 19.332-.057c1.435 2.168 2.776 4.417 4.129 6.688.475.797.951 1.597 1.434 2.396H160a13.663 13.663 0 0 1-4.808 7.616Zm-96.3 15.072c2.048-.785 3.673-1.952 4.875-3.5 1.204-1.547 1.803-3.469 1.798-5.766 0-3.22-1.18-5.659-3.538-7.315-2.359-1.657-5.694-2.485-10.007-2.485H37.825v1.33c.58.116 1.14.317 1.662.595.369.213.647.553.782.957.157.55.226 1.12.203 1.692v24.54a5.383 5.383 0 0 1-.203 1.693 1.739 1.739 0 0 1-.782.955c-.522.28-1.082.48-1.662.596v1.33H51.94v-1.33a5.038 5.038 0 0 1-1.796-.608 1.982 1.982 0 0 1-.84-1.11 6.4 6.4 0 0 1-.224-1.877v-8.518h2.941a19.023 19.023 0 0 0 6.873-1.179Zm35.8 10.116a16.907 16.907 0 0 0 3.233-5.565l-.01.013a21.556 21.556 0 0 0-.051-13.956 15.977 15.977 0 0 0-3.345-5.476 14.854 14.854 0 0 0-5.09-3.522 16.27 16.27 0 0 0-6.398-1.238 15.564 15.564 0 0 0-6.52 1.331 14.756 14.756 0 0 0-5.028 3.71 16.79 16.79 0 0 0-3.225 5.552 20.49 20.49 0 0 0-1.125 6.885 20.178 20.178 0 0 0 1.186 7.083 16.221 16.221 0 0 0 3.335 5.475 14.703 14.703 0 0 0 5.091 3.535c2.038.84 4.224 1.26 6.428 1.237a15.366 15.366 0 0 0 6.5-1.342 14.934 14.934 0 0 0 5.018-3.722Zm4.943 4.505h24.489l.26-10.54h-1.094a26.39 26.39 0 0 1-1.156 4.119 7.594 7.594 0 0 1-1.643 2.659 5.981 5.981 0 0 1-2.437 1.458c-1.158.346-2.353.55-3.561.608l-3.609.187v-14.96l3.266.118c.906.048 1.609.246 2.108.595.544.408.953.969 1.176 1.61.339.934.584 1.9.732 2.882h1.015V64.5h-1.015c-.15.978-.395 1.94-.732 2.87a3.377 3.377 0 0 1-1.186 1.622c-.507.35-1.207.547-2.098.594l-3.266.094V55.494l3.063.163c1.179.044 2.348.24 3.477.584.879.274 1.681.75 2.342 1.389a7.103 7.103 0 0 1 1.541 2.413 20.9 20.9 0 0 1 1.055 3.687h1.096l-.243-9.753h-23.58v1.33c.58.117 1.141.317 1.663.595.368.214.645.554.78.957.157.55.226 1.12.203 1.692v24.54a5.383 5.383 0 0 1-.203 1.693 1.744 1.744 0 0 1-.78.955 6.07 6.07 0 0 1-1.663.596v1.33Z" fill="#fff"/></svg>
