<svg width="160" height="160" viewBox="0 0 160 160" fill="none" xmlns="http://www.w3.org/2000/svg">
<path d="M114.031 79.941C123.226 81.127 129.682 85.262 130.597 95.3077C131.1 100.791 131.596 109.19 129.006 114.045C123.129 125.069 106.292 123.403 96.0794 123.494C95.9951 123.496 95.9149 123.53 95.8558 123.589C95.7968 123.649 95.7637 123.728 95.7637 123.812V129.236C95.7636 129.347 95.726 129.454 95.6571 129.541C95.5881 129.628 95.4918 129.69 95.3836 129.716L68.1792 135.983C67.9258 136.044 67.7969 135.942 67.7926 135.678L67.5349 124.174C67.522 123.673 67.2664 123.429 66.7681 123.442C56.5037 123.662 36.1166 125.354 30.9103 112.846C30.3089 111.398 30.006 109.387 30.0017 106.812C29.9931 102.564 30.0168 98.33 30.0727 94.1087C30.0744 93.9981 30.1192 93.8926 30.1976 93.815C30.2759 93.7374 30.3815 93.6939 30.4914 93.6939L75.1188 93.7846C75.3379 93.7846 75.4539 93.8948 75.4668 94.1152C75.557 96.3101 75.6536 98.5353 75.7567 100.791C75.9629 105.438 83.7724 105.684 85.4348 101.931C85.9074 100.855 86.1479 99.3756 86.1565 97.4918C86.1758 92.7606 85.6475 89.008 79.8033 88.7488C76.2636 88.5933 72.9259 88.5306 69.7901 88.5608C69.12 88.5652 68.7871 88.2303 68.7914 87.5563L68.8172 70.5369C68.817 70.5122 68.8221 70.4877 68.832 70.4651C68.8419 70.4425 68.8565 70.4223 68.8748 70.4058C68.893 70.3892 68.9145 70.3768 68.9379 70.3692C68.9613 70.3617 68.986 70.3592 69.0105 70.3619C73.392 70.7292 77.6876 70.5023 81.8974 69.6814C89.011 68.288 86.0083 56.8423 78.0506 59.9597C75.731 60.8671 74.7795 62.5911 75.1962 65.1317C75.2121 65.231 75.2063 65.3326 75.1793 65.4294C75.1522 65.5262 75.1045 65.616 75.0396 65.6925C74.9746 65.7689 74.8939 65.8303 74.803 65.8722C74.7121 65.9141 74.6132 65.9357 74.5132 65.9353L30.6783 65.9418C30.5154 65.9418 30.359 65.8779 30.2432 65.7638C30.1274 65.6497 30.0615 65.4948 30.0598 65.3326C30.0082 62.3426 30.0211 59.357 30.0984 56.3757C30.4914 40.2831 52.9727 40.7822 63.7075 41.2618C65.052 41.3223 66.4073 41.2855 67.7734 41.1516C67.9881 41.1343 68.0955 41.0155 68.0955 40.7951L68.0826 31.3587C68.0831 31.0599 68.1831 30.7701 68.3667 30.536C68.5502 30.302 68.8065 30.1375 69.0942 30.0689L94.649 24.0091C94.6984 23.9973 94.7498 23.997 94.7994 24.0081C94.849 24.0193 94.8954 24.0416 94.9352 24.0734C94.9749 24.1053 95.0069 24.1458 95.0288 24.1919C95.0506 24.238 95.0618 24.2885 95.0614 24.3396L95.1065 40.9896C95.1065 41.2445 95.2332 41.3676 95.4866 41.359C106.672 41.0155 129.502 39.4924 130.745 56.1359C131.332 63.9197 131.203 71.4378 123.496 75.7153C120.52 77.3658 117.356 78.634 114.005 79.5197C113.956 79.531 113.912 79.5595 113.882 79.6001C113.852 79.6407 113.837 79.6907 113.84 79.7413C113.843 79.7919 113.864 79.8398 113.899 79.8764C113.934 79.9129 113.981 79.9358 114.031 79.941ZM81.9296 30.1337C81.9425 29.8356 81.8029 29.7146 81.5108 29.7708L79.6164 30.1661C79.5332 30.1843 79.4586 30.2309 79.4051 30.2981C79.3516 30.3652 79.3228 30.4486 79.3235 30.5338C79.3243 30.6191 79.3546 30.7008 79.4093 30.765C79.4639 30.8293 79.5394 30.8719 79.6228 30.8855L81.4914 31.2355C81.541 31.2438 81.5918 31.2415 81.6403 31.2285C81.6889 31.2156 81.7342 31.1924 81.7732 31.1606C81.8122 31.1287 81.844 31.0888 81.8665 31.0437C81.8891 30.9985 81.9018 30.949 81.9038 30.8985L81.9296 30.1337ZM87.3614 49.0585C86.6849 49.7326 85.8472 50.0696 85.0998 50.6983C80.5335 54.5264 76.0038 58.3956 71.5105 62.3059C71.3 62.4917 71.227 62.7272 71.2915 63.0124C71.3013 63.0544 71.322 63.0931 71.3514 63.1246C71.3808 63.1561 71.4179 63.1793 71.4591 63.1917C71.5002 63.2042 71.5439 63.2056 71.5857 63.1957C71.6275 63.1858 71.6661 63.1651 71.6974 63.1355C72.8486 62.0553 74.0321 61.0075 75.2478 59.9922C76.53 58.9293 77.6511 57.4581 79.146 56.3692C81.6783 54.5156 83.1152 53.0639 85.0869 51.1843C86.1501 50.1733 87.5998 49.4798 88.7532 48.3845C90.7314 46.4985 92.7224 45.0986 94.2624 43.0376C94.2867 43.0042 94.2978 42.963 94.2938 42.9218C94.2898 42.8806 94.2708 42.8424 94.2406 42.8143C94.2103 42.7863 94.1709 42.7705 94.1297 42.7698C94.0886 42.7691 94.0487 42.7837 94.0176 42.8108C91.7452 44.8372 89.5264 46.9198 87.3614 49.0585ZM70.6149 51.5019C71.1132 51.6964 71.4805 51.5754 71.7168 51.139C71.7663 51.0484 71.7846 50.9442 71.769 50.8424C71.7534 50.7405 71.7048 50.6465 71.6304 50.5746C71.556 50.5027 71.4599 50.4569 71.3569 50.4441C71.2539 50.4314 71.1495 50.4523 71.0595 50.5038L70.0349 51.1066C69.8545 51.2103 69.861 51.2967 70.0543 51.3658C70.2154 51.4241 70.4409 51.4306 70.6149 51.5019ZM88.6308 57.7497L88.895 59.1755C88.9092 59.248 88.9492 59.3128 89.0074 59.3579C89.0657 59.4029 89.1382 59.4251 89.2116 59.4203C89.2849 59.4156 89.354 59.3842 89.406 59.332C89.458 59.2798 89.4893 59.2104 89.4942 59.1367C89.5243 58.5231 89.3031 58.0219 88.8305 57.633C88.6544 57.4905 88.5879 57.5293 88.6308 57.7497ZM125.191 59.3376C125.255 59.316 125.307 59.2987 125.346 59.2857C125.689 59.1907 125.679 59.0481 125.313 58.858C124.459 58.4043 124.379 58.5555 125.075 59.3116C125.105 59.3462 125.144 59.3549 125.191 59.3376ZM115.103 66.8354C115.117 66.7574 115.113 66.6772 115.093 66.5994C115.072 66.5215 115.035 66.4475 114.983 66.3816C114.931 66.3157 114.866 66.2592 114.791 66.2153C114.716 66.1714 114.633 66.141 114.546 66.1258C114.46 66.1105 114.371 66.1108 114.286 66.1266C114.201 66.1424 114.12 66.1733 114.049 66.2177C113.979 66.2621 113.918 66.319 113.873 66.3853C113.827 66.4515 113.797 66.5257 113.783 66.6037C113.77 66.6816 113.773 66.7618 113.794 66.8397C113.815 66.9176 113.852 66.9916 113.904 67.0575C113.955 67.1234 114.021 67.1799 114.095 67.2238C114.17 67.2677 114.254 67.2981 114.34 67.3133C114.427 67.3286 114.515 67.3283 114.601 67.3125C114.686 67.2967 114.766 67.2657 114.837 67.2214C114.908 67.177 114.968 67.1201 115.014 67.0538C115.059 66.9876 115.09 66.9134 115.103 66.8354ZM88.5876 79.1706C88.7199 79.0852 88.8031 78.9349 88.819 78.7528C88.8349 78.5707 88.782 78.3716 88.6721 78.1995C88.6177 78.1143 88.551 78.0382 88.4757 77.9757C88.4003 77.9131 88.3179 77.8653 88.2332 77.8349C88.1484 77.8046 88.0629 77.7923 87.9815 77.7987C87.9002 77.8052 87.8246 77.8303 87.7591 77.8726C87.6268 77.958 87.5436 78.1084 87.5277 78.2905C87.5118 78.4726 87.5646 78.6716 87.6745 78.8437C87.7289 78.929 87.7956 79.005 87.871 79.0676C87.9463 79.1302 88.0287 79.178 88.1135 79.2083C88.1983 79.2387 88.2838 79.251 88.3651 79.2445C88.4465 79.2381 88.5221 79.213 88.5876 79.1706ZM88.8434 79.7206L88.5471 81.0363C88.5281 81.1177 88.5398 81.2028 88.58 81.2752C88.6203 81.3476 88.6863 81.4023 88.7653 81.4288C88.8443 81.4553 88.9308 81.4517 89.0082 81.4188C89.0857 81.3858 89.1486 81.3258 89.185 81.2502C89.4556 80.6409 89.4749 80.1138 89.2429 79.6688C89.221 79.6304 89.1881 79.5991 89.1486 79.5792C89.109 79.5593 89.0646 79.5517 89.0214 79.5573C88.9781 79.5629 88.938 79.5815 88.9062 79.6107C88.8744 79.6398 88.8526 79.6782 88.8434 79.7206ZM90.1772 82.5982C90.5724 82.8791 90.9698 82.8791 91.3693 82.5982C91.6013 82.4341 91.6034 82.2656 91.3757 82.0927C91.0879 81.8767 90.7593 81.827 90.3899 81.9436C90.3083 81.9653 90.2373 82.0084 90.1772 82.0733C90.1085 82.1467 90.0656 82.2094 90.0484 82.2612C90.0261 82.3165 90.0268 82.3802 90.0503 82.4416C90.0737 82.5029 90.1185 82.5583 90.1772 82.5982ZM118.864 87.2711C118.864 87.1181 118.803 86.9714 118.696 86.8632C118.588 86.7551 118.442 86.6943 118.29 86.6943C118.138 86.6943 117.992 86.7551 117.885 86.8632C117.777 86.9714 117.717 87.1181 117.717 87.2711C117.717 87.4241 117.777 87.5708 117.885 87.679C117.992 87.7872 118.138 87.8479 118.29 87.8479C118.442 87.8479 118.588 87.7872 118.696 87.679C118.803 87.5708 118.864 87.4241 118.864 87.2711ZM106.692 93.2791C106.151 93.9877 105.803 94.6034 105.648 95.1262C105.614 95.2126 105.598 95.3048 105.599 95.3977C105.601 95.4905 105.621 95.5821 105.657 95.6673C105.694 95.7524 105.747 95.8295 105.814 95.894C105.88 95.9585 105.958 96.0092 106.044 96.0433C106.13 96.0773 106.222 96.094 106.314 96.0924C106.406 96.0908 106.498 96.0709 106.582 96.0339C106.667 95.9969 106.743 95.9435 106.808 95.8767C106.872 95.8099 106.922 95.7311 106.956 95.6447C107.321 94.8972 107.315 94.1173 106.937 93.305C106.868 93.1668 106.786 93.1581 106.692 93.2791ZM47.5409 99.7602C47.0297 99.5658 46.6602 99.7926 46.4325 100.441C46.3337 100.717 46.4304 100.84 46.7225 100.81L47.412 100.739C47.526 100.729 47.6332 100.68 47.716 100.601C47.7987 100.521 47.852 100.416 47.8671 100.302C47.8821 100.187 47.8579 100.072 47.7986 99.9732C47.7393 99.8747 47.6484 99.7996 47.5409 99.7602ZM105.925 99.8704C105.461 100.449 105.487 100.974 106.002 101.445C106.043 101.482 106.092 101.507 106.145 101.518C106.199 101.529 106.254 101.526 106.305 101.508C106.357 101.49 106.402 101.458 106.438 101.417C106.473 101.375 106.496 101.324 106.505 101.27L106.685 100.22C106.702 100.126 106.687 100.028 106.643 99.9424C106.599 99.8571 106.527 99.789 106.44 99.749C106.353 99.7089 106.255 99.699 106.162 99.721C106.069 99.743 105.985 99.7955 105.925 99.8704ZM85.4284 108.387C85.4618 108.394 85.4969 108.39 85.5284 108.375C85.5599 108.36 85.5859 108.334 85.6024 108.302C85.9202 107.68 85.7227 107.33 85.0096 107.252C84.9584 107.247 84.9066 107.254 84.8586 107.273C84.8106 107.292 84.7676 107.321 84.7331 107.36C84.6986 107.398 84.6735 107.444 84.66 107.494C84.6465 107.544 84.6448 107.597 84.6552 107.648C84.7411 108.045 84.9988 108.291 85.4284 108.387ZM50.7497 108.62C50.6595 108.421 50.507 108.272 50.2922 108.173C50.0517 108.06 49.9421 108.138 49.9636 108.406C49.9808 108.648 50.056 108.842 50.1891 108.989C50.2445 109.046 50.3177 109.082 50.3964 109.091C50.4751 109.099 50.5543 109.08 50.6205 109.036C50.6867 108.993 50.7357 108.927 50.7593 108.851C50.7829 108.775 50.7795 108.694 50.7497 108.62ZM71.7812 110.525C72.331 110.547 72.5286 110.294 72.3739 109.767C72.3562 109.707 72.3234 109.652 72.2786 109.609C72.2338 109.565 72.1785 109.534 72.1181 109.519C72.0578 109.503 71.9944 109.503 71.9342 109.52C71.8741 109.536 71.8191 109.567 71.7747 109.611L71.5234 109.864C71.111 110.279 71.197 110.499 71.7812 110.525ZM69.9384 132.068C69.9384 132.003 69.9238 131.938 69.8956 131.877C69.8675 131.817 69.8262 131.762 69.7741 131.716C69.7221 131.669 69.6603 131.632 69.5923 131.607C69.5243 131.582 69.4514 131.569 69.3778 131.569C69.2291 131.569 69.0865 131.622 68.9814 131.716C68.8762 131.809 68.8172 131.936 68.8172 132.068C68.8172 132.201 68.8762 132.328 68.9814 132.421C69.0865 132.515 69.2291 132.568 69.3778 132.568C69.4514 132.568 69.5243 132.555 69.5923 132.53C69.6603 132.504 69.7221 132.468 69.7741 132.421C69.8262 132.375 69.8675 132.32 69.8956 132.259C69.9238 132.199 69.9384 132.134 69.9384 132.068ZM72.0453 134.317L74.7774 133.792C74.7978 133.789 74.8174 133.782 74.835 133.771C74.8526 133.76 74.8679 133.746 74.8799 133.729C74.8919 133.712 74.9005 133.693 74.905 133.673C74.9095 133.652 74.9099 133.631 74.9062 133.611L74.8869 133.52C74.8497 133.326 74.7759 133.141 74.6696 132.976C74.5634 132.811 74.4268 132.668 74.2676 132.557C74.1085 132.446 73.9298 132.368 73.742 132.327C73.5542 132.287 73.3608 132.285 73.1729 132.321L72.999 132.354C72.811 132.389 72.632 132.463 72.4723 132.57C72.3126 132.677 72.1753 132.816 72.0682 132.979C71.9611 133.141 71.8863 133.324 71.8481 133.517C71.8099 133.71 71.8091 133.909 71.8456 134.104L71.8649 134.194C71.8727 134.235 71.8961 134.27 71.9299 134.293C71.9637 134.316 72.0052 134.325 72.0453 134.317Z" fill="white"/>
</svg>
