<svg width="160" height="160" fill="none" xmlns="http://www.w3.org/2000/svg"><path d="M80 6 16 43v74l64 37 64-37V43L80 6Zm26.33 48.48H84.25l.12-10.83c-4.65-4.19-8.26-.11-8.26-.11l.12 18.15c.58-3.6 11.85-3.37 11.85-3.37 16.39 0 18.25 9.42 18.25 9.42v46.08c-3.03 19.08-27.08 16.17-27.08 16.17-26.74.59-25.57-16.75-25.57-16.75v-72.5C55.66 21.3 80.32 23.4 80.33 23.4c25.95-1.04 26 17.34 26 17.34v13.74ZM72.27 79.84h5.81c1.49 4.33 8.53.47 8.53.47 6.17-4.22 8.82-.44 8.82-.44v8.28c-7.14 0-10.99 1.98-10.99 1.98v9.04c-4.43-.55-6.35 1.97-6.35 1.97v17.3h-.7v.73h-5.3v-.65h-1.77v-1.79H71V83.45l-.02-.46h-.65v-1.35h.64v-1.22h1.3v-.58Z" fill="#fff"/></svg>