<svg width="160" height="160" viewBox="0 0 160 160" fill="none" xmlns="http://www.w3.org/2000/svg">
<path d="M17.1226 99.8984L16.6546 99.9944C16.5334 100.015 16.4457 99.9735 16.3914 99.8609L16.0529 99.1809C15.9485 98.9681 15.9986 98.8012 16.2034 98.6844C16.8802 98.2923 17.0139 97.7833 16.6045 97.1659C16.4917 96.9948 16.4332 96.8071 16.4373 96.5985C16.5836 89.6231 16.4708 82.6561 16.0989 75.7058C15.9903 73.6866 16.4666 71.7341 16.2577 69.7108C16.0153 67.3578 16.7632 65.4304 16.7967 63.2027C16.8259 61.2294 17.2437 59.2185 17.1852 57.4038C17.156 56.3316 17.1142 55.2636 17.0641 54.1956C17.0515 53.9453 16.9345 53.8702 16.7089 53.9745C16.6588 53.9953 16.6086 54.0037 16.5543 53.9953C16.4457 53.9787 16.3914 53.9161 16.3956 53.7993L16.571 49.1977C16.5836 48.9641 16.7047 48.8473 16.9387 48.8473C26.1601 48.889 36.7562 48.6679 48.7185 48.1839C49.9804 48.1339 51.1294 48.5594 52.1656 49.4647C52.3118 49.5898 52.387 49.7484 52.387 49.9403C52.4497 53.4739 52.433 56.9991 52.3453 60.5243C52.27 63.5489 52.7923 66.2398 53.3146 69.1309C53.4232 69.7358 53.1934 70.299 52.6294 70.8163C52.4706 70.9665 52.3996 71.1459 52.4163 71.3587L52.55 72.7479C52.5667 72.9356 52.4372 73.1067 52.2533 73.1359C51.05 73.332 49.8759 73.3111 48.7227 73.0733C47.4274 72.8105 46.6795 73.1234 45.4386 73.1484C45.2088 73.1484 45.1127 73.2652 45.1461 73.4905C46.55 82.1012 48.5974 90.2948 51.5221 102.952C51.6767 103.641 52.0946 104.721 52.7631 106.185C52.8341 106.344 52.7756 106.532 52.6252 106.619C52.2659 106.832 52.1113 107.137 52.1614 107.533C52.1907 107.767 52.316 107.929 52.5291 108.029C53.5402 108.501 53.7617 109.264 53.1893 110.316C53.1266 110.432 52.9803 110.478 52.8634 110.416C52.8299 110.399 52.8049 110.374 52.784 110.345C51.8982 109.122 50.8202 109.298 49.5542 110.015C49.0737 110.291 48.5514 110.478 47.9873 110.583C47.816 110.616 47.6698 110.695 47.5486 110.816C46.6795 111.713 43.6628 110.708 42.0542 111.275C41.8662 111.342 41.6991 111.313 41.5445 111.183C40.7255 110.491 40.1865 109.49 39.9358 108.175C39.213 104.462 36.9442 98.5676 35.7868 92.3682C35.4944 90.8038 34.9094 89.3394 34.6754 87.8376C33.9609 83.1901 32.9874 78.5969 31.7548 74.0579C31.6921 73.8201 31.5417 73.7033 31.2952 73.7033H29.1392C28.8927 73.7033 28.7715 73.8284 28.7799 74.0787C29.1852 86.3106 30.33 96.8571 28.947 110.282C28.9261 110.445 28.8467 110.57 28.7005 110.654C25.8718 112.276 23.0975 110.232 20.156 110.608C19.312 110.716 18.5641 110.67 17.9081 110.466C17.7326 110.412 17.5905 110.278 17.5237 110.107C16.4833 107.362 17.3565 103.666 17.0933 100.854C17.0724 100.674 17.1184 100.512 17.227 100.362C17.2981 100.257 17.3315 100.153 17.3231 100.04C17.3148 99.9193 17.2521 99.8692 17.1351 99.8901L17.1226 99.8984ZM21.0501 54.2498C20.9122 54.0746 20.5696 54.1163 20.2855 54.3416C20.0014 54.5669 19.8802 54.8881 20.0181 55.0633C20.156 55.2386 20.4986 55.1968 20.7827 54.9716C21.0668 54.7463 21.188 54.425 21.0501 54.2498ZM29.1977 62.8773L39.564 62.9231C39.7102 62.9231 39.7812 62.8564 39.7771 62.7104L39.681 58.9682C39.681 58.7721 39.5723 58.6762 39.3718 58.6845C35.9665 58.8055 32.6281 58.3925 29.2353 58.7471C29.0766 58.7596 28.9428 58.8723 28.9052 59.0266L28.2367 61.634C28.0988 62.168 28.4289 62.7146 28.9679 62.8481C29.0473 62.8689 29.1267 62.8773 29.2061 62.8773H29.1977ZM17.0348 99.4854C17.3733 99.5188 17.4401 99.402 17.2312 99.135L16.9053 98.722C16.8301 98.6302 16.6964 98.6177 16.6086 98.6928C16.571 98.722 16.546 98.7679 16.5334 98.8137C16.4582 99.2184 16.6254 99.4395 17.039 99.4812L17.0348 99.4854ZM107.624 99.8984L107.156 99.9944C107.034 100.015 106.947 99.9735 106.892 99.8609L106.554 99.1809C106.449 98.9681 106.5 98.8012 106.704 98.6844C107.381 98.2923 107.515 97.7833 107.105 97.1659C106.993 96.9948 106.934 96.8071 106.938 96.5985C107.085 89.6231 106.972 82.6561 106.6 75.7058C106.491 73.6866 106.968 71.7341 106.759 69.7108C106.516 67.3578 107.264 65.4304 107.298 63.2027C107.327 61.2294 107.745 59.2185 107.686 57.4038C107.657 56.3316 107.615 55.2636 107.565 54.1956C107.553 53.9453 107.436 53.8702 107.21 53.9745C107.16 53.9953 107.11 54.0037 107.055 53.9953C106.947 53.9787 106.892 53.9161 106.897 53.7993L107.072 49.1977C107.085 48.9641 107.206 48.8473 107.44 48.8473C116.661 48.889 127.257 48.6679 139.22 48.1839C140.481 48.1339 141.63 48.5594 142.667 49.4647C142.813 49.5898 142.888 49.7484 142.888 49.9403C142.951 53.4739 142.934 56.9991 142.846 60.5243C142.771 63.5489 143.293 66.2398 143.816 69.1309C143.924 69.7358 143.694 70.299 143.13 70.8163C142.972 70.9665 142.901 71.1459 142.917 71.3587L143.051 72.7479C143.068 72.9356 142.938 73.1067 142.754 73.1359C141.551 73.332 140.377 73.3111 139.224 73.0733C137.928 72.8105 137.181 73.1234 135.94 73.1484C135.71 73.1484 135.614 73.2652 135.647 73.4905C137.051 82.1012 139.098 90.2948 142.023 102.952C142.178 103.641 142.596 104.721 143.264 106.185C143.335 106.344 143.277 106.532 143.126 106.619C142.767 106.832 142.612 107.137 142.662 107.533C142.692 107.767 142.817 107.929 143.03 108.029C144.041 108.501 144.263 109.264 143.69 110.316C143.628 110.432 143.481 110.478 143.364 110.416C143.331 110.399 143.306 110.374 143.285 110.345C142.399 109.122 141.321 109.298 140.055 110.015C139.575 110.291 139.052 110.478 138.488 110.583C138.317 110.616 138.171 110.695 138.05 110.816C137.181 111.713 134.164 110.708 132.555 111.275C132.367 111.342 132.2 111.313 132.045 111.183C131.227 110.491 130.688 109.49 130.437 108.175C129.714 104.462 127.445 98.5676 126.288 92.3682C125.995 90.8038 125.41 89.3394 125.176 87.8376C124.462 83.1901 123.488 78.5969 122.256 74.0579C122.193 73.8201 122.043 73.7033 121.796 73.7033H119.64C119.394 73.7033 119.273 73.8284 119.281 74.0787C119.686 86.3106 120.831 96.8571 119.448 110.282C119.427 110.445 119.348 110.57 119.202 110.654C116.373 112.276 113.598 110.232 110.657 110.608C109.813 110.716 109.065 110.67 108.409 110.466C108.234 110.412 108.092 110.278 108.025 110.107C106.984 107.362 107.858 103.666 107.594 100.854C107.573 100.674 107.619 100.512 107.728 100.362C107.799 100.257 107.832 100.153 107.824 100.04C107.816 99.9193 107.753 99.8692 107.636 99.8901L107.624 99.8984ZM111.551 54.2498C111.413 54.0746 111.071 54.1163 110.787 54.3416C110.502 54.5669 110.381 54.8881 110.519 55.0633C110.657 55.2386 111 55.1968 111.284 54.9716C111.568 54.7463 111.689 54.425 111.551 54.2498ZM119.699 62.8773L130.065 62.9231C130.211 62.9231 130.282 62.8564 130.278 62.7104L130.182 58.9682C130.182 58.7721 130.073 58.6762 129.873 58.6845C126.468 58.8055 123.129 58.3925 119.736 58.7471C119.578 58.7596 119.444 58.8723 119.406 59.0266L118.738 61.634C118.6 62.168 118.93 62.7146 119.469 62.8481C119.548 62.8689 119.628 62.8773 119.707 62.8773H119.699ZM107.536 99.4896C107.874 99.523 107.941 99.4061 107.732 99.1391L107.406 98.7261C107.331 98.6344 107.197 98.6218 107.11 98.6969C107.072 98.7261 107.047 98.772 107.034 98.8179C106.959 99.2226 107.126 99.4437 107.54 99.4854L107.536 99.4896ZM96.6932 96.2772C96.9231 96.3315 97.1236 96.3065 97.2991 96.2022C97.5749 96.0436 97.7253 96.1229 97.7503 96.4441C97.9425 98.8888 97.8423 101.321 97.4579 103.732C97.4286 103.899 97.3492 104.054 97.2281 104.17C95.2476 106.11 93.5554 108.267 92.1473 110.645C92.0178 110.87 91.8214 110.983 91.5582 110.987L60.05 111.375C59.8202 111.375 59.7157 111.267 59.7366 111.037L60.6516 99.3769C60.6725 99.1058 60.8229 98.9681 61.0987 98.9598L65.5527 98.8555C65.7073 98.8555 65.8034 98.772 65.8327 98.6218C66.3925 95.8434 66.6558 93.7825 66.6224 92.4391C66.3424 81.8301 66.2714 71.2585 66.4009 60.7246C66.4009 60.5535 66.2672 60.4117 66.1001 60.4075C66.075 60.4075 66.0541 60.4075 66.029 60.4159C64.2909 60.7913 62.5527 60.8163 60.8271 60.4909C60.6015 60.4492 60.5012 60.3157 60.5221 60.0904C60.9274 56.2273 60.965 52.3558 60.6433 48.4718C60.6224 48.234 60.731 48.1172 60.9692 48.1172C69.5388 48.1172 78.0791 48.3591 86.5902 48.8556C87.7184 48.9182 89.327 49.6232 90.8938 49.1518C91.0902 49.0892 91.2573 49.1393 91.391 49.302C93.9732 52.3892 98.0136 55.7016 97.9175 59.982C97.6626 71.4505 97.5916 82.9189 97.7127 94.3916C97.7127 94.571 97.6501 94.7211 97.5247 94.8505L96.5679 95.8058C96.3297 96.0436 96.3757 96.198 96.7016 96.2731L96.6932 96.2772ZM71.77 60.8205C71.9454 60.9373 72.1836 60.8914 72.3048 60.7121C72.3215 60.687 72.3382 60.6578 72.3466 60.6244C72.5764 59.9569 72.3257 59.6524 71.5987 59.7025C71.3438 59.7191 71.1516 59.9403 71.1725 60.1989C71.185 60.3408 71.2602 60.4743 71.3772 60.5535L71.7741 60.8164L71.77 60.8205ZM79.0694 99.2101C81.6808 99.1767 81.3591 104.404 81.5011 107.45C81.5011 107.537 81.5471 107.558 81.6223 107.516C81.6682 107.495 81.71 107.458 81.7435 107.408C81.7894 107.349 81.8103 107.27 81.8103 107.162C81.8354 104.825 81.7685 102.481 81.6097 100.12C81.593 99.9235 81.6766 99.7774 81.8563 99.6898C82.7964 99.2226 83.7741 98.9848 84.7978 98.9806C85.0401 98.9806 85.1613 98.8596 85.1571 98.6135C85.015 85.7141 83.9663 72.9774 84.2337 60.032C84.2337 59.7942 84.1209 59.6858 83.8827 59.7066L80.2602 60.0362C80.068 60.0571 79.9677 60.1614 79.9552 60.3491C79.8173 62.6186 80.373 64.8464 79.178 66.4651C79.0652 66.6194 79.0025 66.7863 78.99 66.974C78.7811 69.6315 78.7268 72.2765 78.8229 74.9173C78.8312 75.1217 78.7852 75.4262 78.6891 75.8309C78.5137 76.5902 78.9315 77.5414 78.9357 78.1171C79.0443 84.984 78.8646 91.78 78.405 98.5092C78.3841 98.868 78.6557 99.1767 79.0151 99.1976C79.0318 99.1976 79.0485 99.1976 79.061 99.1976L79.0694 99.2101ZM74.2727 61.755C74.2142 61.7216 74.1516 61.7091 74.0764 61.7216C73.7881 61.7592 73.7379 61.8927 73.9343 62.118L74.2853 62.5185C74.3939 62.6436 74.5819 62.6561 74.7073 62.5477C74.7867 62.4768 74.8243 62.3683 74.8034 62.264C74.7574 62.0596 74.653 61.9261 74.4942 61.8677C74.4524 61.851 74.373 61.8134 74.2769 61.7592L74.2727 61.755ZM72.6014 65.3887L71.1516 65.9019C71.0722 65.9227 71.0262 66.002 71.0471 66.0771C71.068 66.1563 71.1474 66.2022 71.2226 66.1814L73.4956 65.7809C73.6627 65.7517 73.7713 65.5973 73.7421 65.4304C73.7337 65.3762 73.7087 65.3303 73.6752 65.2886L72.4552 63.7617C72.3842 63.6699 72.3048 63.6657 72.2254 63.745L72.1 63.8785C72.0165 63.9578 72.0081 64.0913 72.0792 64.1872L72.7101 65.0174C72.8396 65.1926 72.802 65.3178 72.5973 65.3887H72.6014ZM78.9607 133.682C78.6348 129.477 74.3521 125.693 72.0374 122.981C71.8911 122.815 71.8076 122.618 71.7867 122.397C71.6154 120.637 72.0248 118.851 72.4468 117.078H49.5584C49.6043 117.504 49.6085 117.95 49.4999 118.442C49.4539 118.651 49.4873 118.872 49.596 119.051C49.9595 119.669 49.9219 120.265 49.4873 120.85C49.4372 120.916 49.4079 120.996 49.4038 121.079L49.2868 126.482C49.2868 126.569 49.2575 126.657 49.2116 126.736C49.0611 126.991 48.7352 127.074 48.4804 126.924C47.4316 126.302 45.6183 127.224 44.5988 127.545C42.33 128.259 40.4205 130.107 40.7924 132.61C41.4358 136.874 39.7896 140.215 41.3648 144.316C41.4317 144.487 41.5612 144.571 41.745 144.567C45.3843 144.433 48.5598 145.76 51.7645 146.16C53.8787 146.419 56.5611 147.128 58.6377 146.719C60.0917 146.431 61.387 146.815 62.933 146.448C65.1976 145.91 67.3619 146.01 69.5931 145.622C71.7407 145.251 72.9023 145.505 74.5151 146.753C74.6947 146.886 74.9204 146.932 75.1335 146.874L78.7476 145.897C79.4538 145.706 79.9217 145.034 79.8549 144.304C79.5457 140.879 79.249 137.337 78.9607 133.674V133.682ZM51.4553 141.834C51.1837 141.951 50.6405 141.304 50.2311 140.386C49.8258 139.469 49.7171 138.63 49.9845 138.509C50.2561 138.392 50.7993 139.039 51.2088 139.957C51.6141 140.875 51.7227 141.713 51.4553 141.834ZM66.5095 124.542C66.426 124.646 66.2756 124.667 66.1753 124.583C65.7992 124.291 65.699 123.937 65.8744 123.52C65.8995 123.47 65.9413 123.428 65.9956 123.407C66.1042 123.365 66.2296 123.424 66.2672 123.532L66.5513 124.308C66.5806 124.387 66.5639 124.479 66.5137 124.546L66.5095 124.542ZM83.5861 29.3187C83.5986 29.3897 83.632 29.4564 83.6822 29.5106C84.8479 30.7372 85.9802 32.0012 87.0749 33.2987C87.8353 34.1915 88.0777 35.3262 88.9593 36.2524C90.2462 37.6124 90.2002 40.5661 89.9203 42.9232H110.406C110.406 42.6645 110.406 42.4017 110.406 42.1431C110.369 39.6399 111.083 37.6291 111.075 34.7797C111.075 34.5628 111.167 34.3583 111.325 34.2165C113.093 32.6145 115.161 31.6466 117.534 31.3087C117.961 31.2461 118.307 30.9332 118.408 30.5202C118.901 28.5052 118.984 26.486 118.667 24.4627C118.366 22.5436 118.859 21.4339 119.494 19.7526C119.582 19.5273 119.586 19.2812 119.507 19.0518L117.931 14.4168C117.869 14.2207 117.731 14.1039 117.522 14.0705C114.463 13.5365 111.969 13.0902 108.631 13.3321C105.881 13.5365 103.876 12.5937 100.654 13.2153C94.625 14.3751 88.8465 13.474 82.7713 15.2262C82.1738 15.3972 81.7894 15.9813 81.873 16.5987L83.5902 29.3187H83.5861ZM41.0974 23.695C41.0514 24.8882 41.7158 26.4485 41.5069 27.4122C41.1851 28.8765 41.0807 30.2908 41.1977 31.655C41.2311 32.0847 41.4525 32.3725 41.8537 32.5269L46.9846 34.4543C47.1851 34.5294 47.3397 34.6629 47.4483 34.8506C48.6057 36.8531 49.1071 38.7555 48.9609 40.5619C48.8898 41.3754 48.8898 42.1597 48.9107 42.9232H72.5179C72.451 41.6883 72.2755 40.4576 71.9831 39.2353C71.9371 39.0267 71.8368 38.8473 71.6822 38.6971L71.2853 38.2924C71.114 38.1255 71.1098 37.8502 71.2727 37.675C71.6655 37.2411 71.8828 36.7488 71.9162 36.194C71.9287 35.9854 72.0081 35.8018 72.1544 35.6475C74.2686 33.4656 76.6961 31.7342 79.4371 30.4493C79.9217 30.2199 80.1348 29.6441 79.9134 29.1519C78.6975 26.4485 78.5638 23.7284 79.5206 20.9958C79.5875 20.7956 79.5373 20.6329 79.3618 20.5077C79.1362 20.3534 79.0025 20.149 78.9649 19.8986C78.8897 19.3855 79.834 18.0255 79.905 17.1786C79.9217 16.9909 79.8591 16.8031 79.7295 16.6654C77.7114 14.4627 76.1279 13.3029 73.1195 14.9967C72.1627 15.5307 69.8354 15.0885 68.1808 14.6171C66.2338 14.0705 64.3995 15.9521 62.9162 13.9996C62.7867 13.8244 62.5402 13.7785 62.3522 13.8912L61.0527 14.6671C60.8898 14.7631 60.7185 14.7798 60.5388 14.7255C57.2714 13.7159 54.0207 13.8202 50.7742 15.0384C50.2394 15.2387 49.3411 15.1928 48.0793 14.9049C46.0653 14.4418 44.3397 14.9758 42.2924 14.8924C42.2046 14.8924 42.1211 14.8924 42.0333 14.9049C41.2269 15.0134 40.6629 15.756 40.7757 16.5611C41.0849 18.8348 41.1893 21.2128 41.0974 23.6992V23.695ZM60.6892 19.6275C62.2477 19.131 63.8438 18.839 65.4733 18.7556C65.7198 18.743 65.7909 18.8473 65.6864 19.0684C64.9719 20.5203 62.0806 19.9278 60.6976 19.7109C60.5806 19.6942 60.5806 19.665 60.6892 19.6275ZM118.462 129.748L115.215 128.964C115.023 128.918 114.873 128.809 114.773 128.638C113.845 127.045 111.217 123.248 111.656 121.496C111.706 121.292 111.706 121.083 111.656 120.875C111.376 119.777 111.338 118.509 111.53 117.078H88.6501C88.6167 117.249 88.5791 117.42 88.5415 117.591C87.9231 120.17 88.483 122.789 88.3242 125.447C88.3117 125.664 88.2323 125.856 88.086 126.019L83.5526 131.083C83.4022 131.25 83.3228 131.446 83.3103 131.676C83.1641 134.037 83.3019 136.377 83.7281 138.693C83.9914 140.149 83.5359 141.204 83.3563 142.627C83.3312 142.835 83.2476 143.036 83.1181 143.202C82.5582 143.933 82.4621 144.717 82.834 145.551C82.9217 145.747 83.0554 145.897 83.2434 146.002C86.6487 147.908 91.8715 146.577 95.6111 146.135C97.7253 145.885 100.554 145.076 103.287 145.489C105.764 145.856 107.014 146.039 107.039 146.039C110.695 146.21 114.259 145.676 117.727 144.441C117.927 144.371 118.052 144.229 118.107 144.024C118.312 143.215 118.546 142.41 118.8 141.613C119.615 139.047 118.976 135.781 119.323 133.006C119.456 131.955 119.072 131.183 118.867 130.178C118.821 129.957 118.683 129.815 118.462 129.761V129.748ZM101.962 131.463C101.824 131.509 101.703 131.492 101.603 131.404C101.569 131.371 101.527 131.35 101.482 131.342C101.273 131.304 101.206 131.133 101.289 130.833C101.302 130.779 101.331 130.733 101.373 130.699C101.486 130.608 101.649 130.62 101.745 130.733L102.071 131.104C102.092 131.129 102.108 131.158 102.117 131.192C102.15 131.308 102.079 131.429 101.958 131.467L101.962 131.463ZM104.49 123.586L104.064 124.304C103.729 124.871 103.044 125.092 102.534 124.792L102.472 124.754H102.468C102.392 124.704 102.367 124.604 102.417 124.529L103.884 122.026C103.934 121.947 104.03 121.926 104.105 121.976L104.168 122.014C104.678 122.314 104.824 123.019 104.49 123.586ZM106.433 136.198C106.178 136.34 105.923 136.327 105.668 136.165C105.501 136.064 105.451 135.847 105.555 135.685C105.66 135.518 105.881 135.464 106.048 135.564L106.441 135.806C106.658 135.943 106.658 136.073 106.433 136.198ZM112.153 133.027C111.748 133.227 111.422 133.148 111.183 132.789C111.087 132.648 111.066 132.51 111.112 132.381C111.175 132.201 111.325 132.109 111.564 132.109C111.626 132.109 111.685 132.084 111.722 132.047C111.969 131.817 112.195 131.93 112.391 132.393C112.491 132.635 112.391 132.915 112.153 133.027Z" fill="white"/>
</svg>
