<svg width="160" height="160" viewBox="0 0 160 160" fill="none" xmlns="http://www.w3.org/2000/svg">
<path d="M95.6428 71.5389L103.163 64.1182V53.3108L96.411 46.6481L60.982 47.0609V97.2309H75.0589V76.0514H89.1339V120.493L104 105.824V77.5261L95.6428 71.537V71.5389ZM89.4857 67.5462H73.1232V54.8737H89.4857V67.5462ZM82.5623 39.066V11.796L102.302 24.992V41.492L101.906 41.1018L99.6417 38.8671L96.4396 38.9046L82.5623 39.066ZM102.302 118.206V125.841L82.5623 156V137.684L94.6046 125.801L102.304 118.204L102.302 118.206ZM75.8747 104.663V149.09L56 117.986V104.661H75.8766L75.8747 104.663ZM56 39.3737V16.1959L75.8766 3V39.1429L60.8945 39.3174L56 39.3737Z" fill="white"/>
</svg>
