<svg width="160" height="160" viewBox="0 0 160 160" fill="none" xmlns="http://www.w3.org/2000/svg">
<path d="M80.0649 12.5114C81.9446 14.3597 76.6614 20.4831 71.3775 19.6742C66.0935 18.8653 60.0069 23.8335 58.7436 30.7657C57.4803 37.6979 53.2304 35.1563 53.1155 33.6542C50.7038 35.5026 56.2163 42.5504 56.2163 42.5504C56.2163 42.5504 54.608 38.9687 56.9054 38.0449C59.2028 37.1211 63.4177 38.7381 66.4785 33.7699C69.9992 35.6182 67.5519 40.7021 66.4785 40.2395C65.4051 39.7768 66.0935 46.0158 73.3299 45.7852C68.0467 41.9729 69.6542 38.3911 71.7217 36.7734C73.7891 35.1556 69.6542 30.997 71.7217 29.7255C73.7891 28.454 77.809 25.9132 85.3896 30.65C92.9702 35.3869 90.5579 47.5179 90.5579 47.5179C90.5579 47.5179 89.7537 41.6259 85.8488 40.47C88.2605 47.8641 85.2746 48.2111 85.2746 48.2111C85.2746 48.2111 88.3754 49.9438 88.0312 52.6017C87.687 55.2597 85.2746 53.5263 85.8488 52.6017C82.1731 56.0678 78.7281 55.3746 77.694 55.9522C76.66 56.5297 75.2824 59.6496 73.3292 59.4183L74.1333 57.8005C74.1333 57.8005 70.1134 59.0713 64.4853 57.8005C58.8571 56.5297 45.6491 50.984 44.5008 38.6217C43.3524 26.2594 52.5406 17.3632 55.8713 17.5945C57.2496 18.0564 57.0197 20.7136 57.0197 20.7136C57.0197 20.7136 61.3845 17.5945 56.1006 13.8971C50.8166 10.1997 37.6108 25.105 33.4759 30.8814C32.3276 35.5026 34.6242 41.2797 34.6242 41.2797C34.6242 41.2797 31.0635 40.0089 31.6377 34.8101C27.6185 43.5906 25.4361 50.4064 25.0912 55.8365C27.0436 58.8407 25.0912 60.9204 25.0912 60.9204C25.0912 60.9204 22.6795 85.298 42.664 101.588C62.6485 117.879 70.6883 113.719 72.6415 112.448C70.5741 108.52 69.4257 108.289 66.5542 108.058C69.8849 110.484 67.5875 117.416 44.8464 98.8154C33.7059 88.9947 38.5291 76.4018 43.5831 83.1027C48.6371 89.8036 48.4072 94.8874 65.1759 99.5086C67.2433 98.3535 67.2433 92.9234 66.4392 92.1145C61.271 97.429 50.9338 91.19 51.278 81.6006C51.6222 72.0112 56.217 65.5416 67.1276 70.2785C69.9992 71.4336 68.161 75.4773 65.4051 74.784C66.7834 77.095 72.0666 75.4773 72.7558 73.0514C71.2625 78.8277 65.5201 80.6768 63.6819 80.2141C71.3775 81.9468 74.0191 79.7522 77.3498 75.8235C80.2214 77.2099 76.0865 80.7917 75.3974 80.0985C79.7622 80.676 84.0113 74.5527 86.4237 71.5493C88.8361 68.5458 93.8893 70.3941 91.8219 73.2819C89.7545 76.1697 83.539 84.8354 76.7116 87.6082C75.8573 86.1061 73.6749 87.0307 69.425 93.2697C67.8168 95.9269 69.31 101.588 65.1752 101.126C68.5059 104.592 68.6209 104.823 71.0325 106.21C73.4442 107.596 76.4307 112.17 78.3832 113.869C80.3356 115.567 88.8354 119.034 89.4095 129.894C89.9837 140.754 82.2044 144.336 80.0642 144.566C77.924 144.797 74.6944 141.678 76.7109 138.674C78.7274 135.671 79.907 137.75 80.0642 138.79C82.0589 136.364 79.5315 134.746 77.4641 135.093C75.3966 135.439 71.8359 139.136 71.3767 143.064C73.9034 142.718 79.3016 151.036 79.3016 153C83.4364 148.379 94.3478 144.681 96.8744 133.591C99.401 122.5 95.8411 123.539 96.8744 120.998C94.922 118.34 85.8481 108.982 86.5372 108.405C87.2264 107.827 88.3747 108.059 88.3747 108.059C88.3747 108.059 81.139 104.246 82.4023 100.664C83.6657 97.0827 86.9964 94.8881 89.638 97.1984C90.4421 93.501 93.1987 92.3458 93.6579 94.5412C97.3336 89.9199 102.043 88.0716 106.292 83.3347C110.541 78.5979 112.838 74.7855 113.527 71.4351C111.805 66.1206 113.872 64.6185 116.054 66.005C118.236 67.3914 120.878 80.0999 106.406 93.1555C105.832 91.6534 106.521 90.1513 106.521 90.1513C106.521 90.1513 96.9879 100.434 92.1639 100.896C90.4414 101.127 91.0156 98.1229 91.8197 98.0073C88.144 98.7005 87.6848 102.051 87.7998 103.784C92.7388 103.668 96.9879 102.859 103.42 98.8154C109.852 94.7718 122.371 87.5973 125.243 67.2692C126.276 80.6768 120.878 97.8916 104.684 107.25C97.7921 110.484 94.3376 111.086 96.0696 106.441C91.4755 106.21 91.9347 110.369 92.1646 111.409C92.3946 112.449 95.8403 114.066 96.0696 115.568C98.7112 113.142 102.961 112.334 106.292 110.484C109.623 108.635 125.243 102.859 131.904 79.7522C138.566 56.6454 133.972 41.3953 122.946 26.9534C121.223 30.1881 119.959 30.5351 119.959 30.5351L121.911 25.7982C121.911 25.7982 109.166 10.4317 91.3627 7.89019C73.5599 5.34863 66.3242 9.04531 64.4867 9.16097C62.6493 9.27663 61.6152 9.27663 61.6152 9.27663C61.6152 9.27663 57.9395 14.7067 63.9126 16.5551C62.9935 12.7427 65.98 10.6631 70.3441 10.0855C68.1617 11.7033 68.7359 12.6271 68.7359 12.6271C68.7359 12.6271 71.7224 9.16097 77.4648 9.27663C83.2072 9.39228 94.6927 11.0093 100.666 18.9817C106.639 26.9541 102.848 35.3876 102.848 35.3876C102.848 35.3876 98.9258 33.062 101.47 31.4597C95.1526 27.5317 96.416 27.069 97.565 27.1847C95.4976 24.8737 97.2208 24.5275 98.3691 24.6431C95.8425 21.7546 93.6601 24.0656 91.1335 23.6037C88.6069 23.1417 85.6203 22.6791 85.6203 22.6791L85.9645 24.4118L82.4038 23.141C82.4038 23.141 84.5862 21.0614 86.5387 21.177C87.4578 19.7906 83.6671 20.1376 83.6671 20.1376L85.7346 19.213C85.7346 19.213 85.0636 18.1736 80.0009 19.3287C82.6338 15.7469 82.3201 13.0897 80.0649 12.5121V12.5114Z" fill="white"/>
</svg>
