<svg width="160" height="160" fill="none" xmlns="http://www.w3.org/2000/svg"><path fill-rule="evenodd" clip-rule="evenodd" d="M121.96 66.12l-20.9-25.42 1.93-1.59L79.88 11 57.5 38.42 59.43 40 36.97 67.52l-.08.12c-3.61 6.01-.97 10.85-.85 11.05l.87 1.06v34.45l27.63 35.16H95.8l-14.9-18.01.05-.06c.027-.035.248-.308.637-.788l.006-.008v-.001c.621-.767 1.663-2.055 3.017-3.733h28.49l10.05-11.72V78.96c.221-.271.406-.503.555-.69l.133-.165.092-.115c3.81-4.77-1.73-11.58-1.97-11.87zm.4 10.62c-1.897 2.37-15.622 19.389-27.058 33.569A55772.848 55772.848 0 0080.16 129.09L37.75 77.64c-.29-.57-1.93-4.27.82-8.92l22.41-27.46 1.94 1.58 16.98-20.8 17.69 21.51 1.93-1.59 20.9 25.42.015.02c.295.377 4.645 5.94 1.925 9.34zM84.1 42.01l1.59-2.08-5.84-7.31-5.48 6.94 1.6 2.35-22.62 27.71-.08.12c-2.317 3.858-.62 7.004-.531 7.168l.001.002 27.42 33.29.77-.95 6.092-7.553c7.352-9.113 18.903-23.433 20.288-25.157 2.491-3.12-.95-7.444-1.201-7.758l-.009-.012-22-26.76zm-4.26 5.58l3.01-3.95 16.17 19.67-19.7 23.26L61.5 62.8l15.64-19.17 2.7 3.96zm-24.9 23.24l5.97-7.31v20.19l-6.46-7.84c-.19-.41-1.02-2.46.49-5.04zm48.458 7.37l-.006.008-.018.023-3.944 4.899V63.79l5.13 6.24a.48.48 0 00.027.036c.276.369 2.58 3.438 1.163 5.214-.316.39-1.156 1.434-2.352 2.92zM90.47 62.65L79.69 76.8 69.58 61.98l10.11-12.81 10.78 13.48z" fill="#fff"/></svg>