<svg width="160" height="160" viewBox="0 0 160 160" fill="none" xmlns="http://www.w3.org/2000/svg">
<path d="M107.933 22.7045C107.878 22.6012 107.854 22.4856 107.856 22.37L107.99 19.2314C108.002 18.9904 108.141 18.7739 108.356 18.6633L115.198 15.0771C115.529 14.9049 115.942 15.0303 116.116 15.3624C116.158 15.4411 116.182 15.5296 116.19 15.6207L116.412 18.6264C116.432 18.8969 116.289 19.1527 116.046 19.2757L108.848 22.9923C108.514 23.1644 108.103 23.0365 107.93 22.7045H107.933ZM143.903 65.6306L132.578 85.0029C132.597 85.0078 132.615 85.0152 132.634 85.0176L131.999 86.095C128.213 92.0006 123.885 99.8273 120.285 105.846C119.427 107.287 118.272 108.471 116.6 108.148C116.009 108.035 115.406 108.301 115.089 108.815L94.8908 141.509C94.1341 142.409 93.6024 143.413 93.2982 144.514C93.1969 144.869 92.8259 145.075 92.4698 144.974C92.319 144.933 92.1879 144.839 92.0989 144.711L88.1992 139.064C85.2614 133.549 82.0145 128.362 78.4609 123.499C78.2755 123.251 78.1024 123.258 77.9416 123.526L71.3786 134.208L65.1197 144.178C64.5361 145.107 63.9624 145.1 63.4035 144.15C54.3775 128.93 44.8915 113.609 34.9431 98.1867L32.3317 94.4062L21.9951 77.0705L21.9827 77.0754L16.0577 67.8713C15.9464 67.6918 16.0008 67.4556 16.1813 67.345C16.2382 67.3105 16.3025 67.2908 16.3692 67.2884C22.8754 67.067 29.3593 66.8407 35.8185 66.6144C37.2181 66.5677 38.5362 66.2283 39.7726 65.5961C47.2729 61.764 54.7459 57.8728 62.1918 53.9226L62.7284 62.9249C62.7358 63.0578 62.8521 63.1586 62.9831 63.1512C63.0178 63.1512 63.0499 63.1389 63.0796 63.1242L91.6933 48.6958C92.0297 48.5261 92.2398 48.1817 92.2324 47.8054L91.911 36.3015C91.9011 36.0359 92.0173 35.8366 92.2596 35.7087L120.695 20.8376C120.923 20.7195 121.205 20.8105 121.321 21.0368C121.358 21.1057 121.375 21.1844 121.373 21.2631L121.089 28.2412C121.069 28.6101 121.353 28.9225 121.722 28.9422C121.85 28.9496 121.979 28.9176 122.09 28.8537L142.459 17.4531C142.58 17.3867 142.734 17.431 142.798 17.5515C142.815 17.5859 142.828 17.6228 142.828 17.6597L143.05 30.6886C143.055 30.996 142.919 31.2248 142.642 31.3723L115.873 45.3432C115.636 45.4712 115.525 45.6655 115.534 45.9262L115.861 54.1489C115.873 54.4047 116.088 54.6014 116.346 54.5916C116.4 54.5916 116.452 54.5768 116.501 54.5572L128.465 49.6673C128.571 49.5886 128.693 49.5985 128.831 49.6969C128.94 49.7657 128.992 49.8666 128.989 49.9969L129.101 64.9468C129.106 65.2419 129.256 65.3895 129.556 65.3846L143.619 65.1485C144 65.1411 144.096 65.3034 143.903 65.633V65.6306ZM85.8029 84.0781L92.5564 94.6202C92.6429 94.7505 92.821 94.7874 92.952 94.7014C92.9867 94.6792 93.0163 94.6472 93.0386 94.6128L106.743 71.7625C106.825 71.6272 106.78 71.4526 106.647 71.3714C106.602 71.3444 106.548 71.3296 106.496 71.3296L93.3897 71.551C93.2908 71.551 93.2018 71.6051 93.1499 71.6887L85.8079 83.7755C85.7485 83.8665 85.7461 83.9846 85.8029 84.0781ZM133.886 70.9287C133.821 70.8918 133.747 70.8721 133.673 70.8746L120.977 71.0886C120.668 71.0935 120.431 71.2288 120.268 71.4919L102.458 101.251C102.302 101.515 102.067 101.65 101.758 101.655L99.4879 101.694C99.112 101.702 98.8326 101.866 98.6471 102.189L93.4491 110.994C93.2636 111.311 93.0707 111.319 92.868 111.014L67.8424 72.3946C67.6717 72.1241 67.4244 71.9937 67.103 71.9986L54.2192 72.2151C53.8137 72.2225 53.7222 72.3946 53.9423 72.7365L71.6209 100.031C71.8237 100.349 71.8286 100.669 71.6382 100.991L65.4931 111.439C65.3126 111.739 65.1296 111.742 64.9392 111.449L39.9309 72.8595C39.7528 72.589 39.5031 72.4586 39.1816 72.4635L26.5674 72.675C26.1322 72.6824 26.0184 72.8767 26.2286 73.258L27.3266 75.2946L63.6508 133.532C64.1503 134.331 64.6523 134.329 65.1519 133.522L78.0356 112.782C78.2433 112.445 78.456 112.445 78.6711 112.782L92.1113 134.11C92.314 134.425 92.5143 134.425 92.7097 134.11C101.837 119.542 108.029 109.592 111.291 104.262C112.161 102.833 113.44 102.299 115.126 102.661C115.443 102.732 115.688 102.631 115.861 102.358L127.864 82.0488C127.859 82.0734 127.874 82.0857 127.872 82.1079L134.042 71.4969C134.158 71.2952 134.086 71.0418 133.886 70.9262V70.9287ZM70.8321 47.9407L80.7929 42.9869C80.9412 42.9156 81.0377 42.768 81.0426 42.6056L81.3295 34.9118C81.3295 34.8331 81.3122 34.7568 81.2751 34.688C81.1564 34.4715 80.8844 34.3928 80.6692 34.5109L70.7183 39.8557C70.5798 39.932 70.4908 40.0722 70.4859 40.2296L70.1817 47.5225C70.1768 47.6012 70.1941 47.6799 70.2312 47.7513C70.3449 47.9702 70.6145 48.0538 70.8345 47.9407H70.8321Z" fill="white"/>
</svg>
