<svg width="160" height="160" fill="none" xmlns="http://www.w3.org/2000/svg"><path d="M11.337 93.366a69.256 69.256 0 0 1-1.244-17.159c.508-9.918 3.016-19.302 7.572-28.131.704-1.366 1.488-2.684 2.279-4.002.46-.771.92-1.549 1.365-2.326.17-.298.298-.683.298-1.021.013-4.577.013-9.16.013-13.738v-5.361h.69c6.146 0 12.284 0 18.43-.014.317 0 .69-.108.966-.284 7.532-4.894 15.685-8.247 24.501-10.005a69.489 69.489 0 0 1 17.152-1.23c9.844.506 19.16 2.98 27.915 7.477 1.467.75 2.88 1.595 4.3 2.44.743.44 1.487.886 2.238 1.319.283.162.635.284.966.284 4.598.013 9.181.013 13.779.013h5.354v.723c0 6.065 0 12.136-.013 18.2 0 .507.128.926.405 1.346 4.766 7.328 8.052 15.272 9.81 23.838a69.285 69.285 0 0 1 1.21 19.41 70.545 70.545 0 0 1-1.737 10.98h-11.987c1.352-4.605 2.123-9.398 2.299-14.401.263-7.295-.852-14.387-3.293-21.27-1.913-5.401-4.617-10.377-7.944-15.022a2.053 2.053 0 0 1-.351-1.102c-.014-2.602-.014-5.199-.014-7.801V33.29c-.926 0-1.852-.007-2.765-.02-2.089-.02-4.151-.047-6.206.054-1.859.088-3.326-.446-4.854-1.508-8.188-5.679-17.301-8.95-27.219-9.904a57.163 57.163 0 0 0-12.582.19 57.002 57.002 0 0 0-11.614 2.677c-5.625 1.913-10.81 4.691-15.631 8.146-.298.21-.73.352-1.102.352-2.603.013-5.2.013-7.802.013H33.283c0 .933 0 1.866-.014 2.792-.013 2.299-.027 4.564.04 6.829.041 1.4-.33 2.528-1.135 3.67-5.639 7.999-9.005 16.882-10.141 26.604-.5 4.225-.5 8.464-.054 12.703a58.48 58.48 0 0 0 2.035 10.256H11.953a62.553 62.553 0 0 1-.616-2.758v-.02Zm67.303-4.611c.203-.568.406-1.136.622-1.717.162-.433.325-.886.494-1.352.027.054.054.094.074.128.04.068.06.115.074.156 1.217 3.387 2.427 6.767 3.644 10.154h22.304c.372-1.69.75-3.373 1.122-5.064.365-1.65.737-3.299 1.102-4.955l1.501-6.727a2507.467 2507.467 0 0 0 4.361-19.714c.459-2.103 1.23-3.895 2.886-5.328.805-.696 1.542-1.467 2.286-2.238.297-.31.595-.615.892-.919.074-.074.142-.149.21-.237.054-.067.114-.135.182-.203H97.259c.162.332.325.656.487.98.5 1.001.987 1.982 1.467 2.969.615 1.27.723 2.59.385 3.962l-1.054 4.218c-1.765 7.058-3.53 14.123-5.3 21.181-.035.109-.068.224-.116.365-.027.088-.067.197-.108.325a43573.572 43573.572 0 0 1-13.244-34.047c-2.488 6.39-4.949 12.73-7.41 19.045-1.927 4.956-3.847 9.898-5.773 14.84-.041 0-.088 0-.136.013a1.854 1.854 0 0 0-.054-.182c-.02-.061-.034-.122-.054-.183l-2.15-8.559c-1.433-5.706-2.866-11.412-4.286-17.118-.331-1.298-.19-2.582.392-3.793.358-.743.73-1.48 1.102-2.217.21-.42.426-.845.629-1.264.088-.17.162-.338.236-.52H39.11c1.542 1.527 3.002 2.994 4.47 4.454.851.839 1.419 1.819 1.676 2.995.994 4.51 1.994 9.012 2.995 13.515.554 2.481 1.102 4.956 1.656 7.437.98 4.374 1.954 8.755 2.928 13.129.283 1.278.567 2.549.851 3.826h22.297c.879-2.454 1.765-4.915 2.644-7.369l.013.014ZM13.988 123.18h9.708c2.197 0 4.13-.399 5.814-1.196 1.677-.798 2.982-1.941 3.915-3.421.926-1.481 1.392-3.225 1.392-5.233 0-2.008-.466-3.752-1.392-5.233-.927-1.48-2.231-2.623-3.915-3.421-1.677-.797-3.617-1.196-5.814-1.196h-9.708v19.7Zm6.645-5.178v-9.344h2.786c1.426 0 2.562.406 3.42 1.224.853.818 1.278 1.967 1.278 3.448 0 1.481-.425 2.63-1.277 3.448-.852.818-1.995 1.224-3.421 1.224h-2.786Zm28.402 5.178h7.092l-4.138-6.078c1.204-.622 2.123-1.453 2.759-2.508.635-1.048.96-2.278.96-3.684 0-1.501-.365-2.813-1.095-3.942s-1.772-1.987-3.124-2.589c-1.352-.602-2.934-.899-4.76-.899h-9.485v19.7h6.646v-4.955h1.798l3.354 4.955h-.007Zm-.027-12.27c0 .73-.223 1.298-.676 1.703-.453.406-1.13.609-2.028.609h-2.42v-4.618h2.42c.899 0 1.575.203 2.028.609.453.405.676.973.676 1.703v-.006Zm23.953 12.27h6.869l-8.613-19.7h-6.531l-8.613 19.7h6.754l1.325-3.434h7.49l1.326 3.434h-.007Zm-6.984-8.221 1.914-4.955 1.913 4.955h-3.827Zm27.672 2.813c-.77.318-1.575.48-2.42.48-1.427 0-2.57-.453-3.421-1.352-.852-.9-1.278-2.089-1.278-3.577 0-1.487.433-2.718 1.298-3.603.865-.879 2.028-1.325 3.488-1.325 1.71 0 3.178.723 4.422 2.17l4.252-3.746a9.733 9.733 0 0 0-3.813-2.826c-1.528-.649-3.258-.973-5.192-.973-2.136 0-4.056.439-5.753 1.312-1.697.872-3.022 2.095-3.969 3.657-.946 1.569-1.42 3.347-1.42 5.334 0 1.988.474 3.766 1.42 5.334.947 1.569 2.258 2.786 3.928 3.658 1.67.872 3.556 1.312 5.659 1.312 1.48 0 2.995-.217 4.53-.649 1.541-.433 2.886-1.048 4.056-1.86v-8.329h-5.774v4.983h-.013Zm18.943 5.855c2.123 0 4.023-.44 5.713-1.326 1.69-.878 3.009-2.109 3.969-3.671.96-1.568 1.433-3.333 1.433-5.307 0-1.974-.48-3.738-1.433-5.307-.96-1.568-2.279-2.792-3.969-3.671s-3.597-1.325-5.713-1.325-4.022.439-5.713 1.325c-1.69.886-3.015 2.109-3.968 3.671-.96 1.569-1.433 3.333-1.433 5.307 0 1.974.48 3.739 1.433 5.307.96 1.569 2.278 2.793 3.968 3.671 1.691.879 3.597 1.326 5.713 1.326Zm0-5.375c-.825 0-1.575-.203-2.238-.609-.669-.405-1.196-.973-1.588-1.717-.392-.744-.595-1.609-.595-2.603 0-.994.196-1.859.595-2.603a4.348 4.348 0 0 1 1.588-1.717c.663-.405 1.413-.608 2.238-.608s1.569.203 2.238.608c.669.406 1.197.974 1.589 1.717.392.744.588 1.609.588 2.603 0 .994-.196 1.866-.588 2.603a4.33 4.33 0 0 1-1.589 1.717 4.224 4.224 0 0 1-2.238.609Zm26.489-14.779v8.951l-7.491-8.951h-5.463v19.701h6.477v-8.952l7.491 8.952h5.462v-19.701h-6.476Zm-95.705 31.383v-5.01H27.36v19.701h6.646v-6.308h8.221v-5.009h-8.221v-3.381h9.37v.007Zm2.11 14.691h15.536v-5.152h-8.897v-14.549h-6.646v19.701h.007Zm17.368 0H69.5v-19.701h-6.646v19.701Zm22.885-5.402c-.77.318-1.575.48-2.42.48-1.427 0-2.57-.453-3.421-1.352-.852-.899-1.278-2.089-1.278-3.576 0-1.488.432-2.718 1.298-3.604.865-.879 2.028-1.325 3.488-1.325 1.71 0 3.178.724 4.422 2.17l4.252-3.745a9.724 9.724 0 0 0-3.813-2.826c-1.528-.649-3.258-.974-5.192-.974-2.136 0-4.056.44-5.753 1.312-1.697.872-3.022 2.096-3.969 3.658-.946 1.568-1.42 3.346-1.42 5.334 0 1.987.474 3.765 1.42 5.334.947 1.568 2.258 2.785 3.928 3.657 1.67.873 3.556 1.312 5.659 1.312 1.48 0 2.995-.216 4.53-.649 1.541-.433 2.886-1.048 4.056-1.859v-8.329h-5.774v4.982h-.013Zm21.391-14.299v6.984h-6.139v-6.984h-6.646v19.701h6.646v-7.261h6.139v7.261h6.645v-19.701h-6.645Zm14.129 19.701h6.646v-14.549h5.774v-5.152h-18.186v5.152h5.773v14.549h-.007Z" fill="#fff"/></svg>
