<svg width="160" height="160" fill="none" xmlns="http://www.w3.org/2000/svg"><path d="M76.062 96.124H53.765l-.851-3.826c-.974-4.381-1.947-8.756-2.928-13.13-.547-2.48-1.102-4.955-1.656-7.437-1-4.502-2.008-9.005-2.995-13.514-.257-1.176-.832-2.157-1.677-2.995-1.467-1.467-2.927-2.934-4.469-4.462h23.163a6.056 6.056 0 0 1-.237.52c-.21.42-.42.839-.629 1.265-.372.737-.743 1.474-1.102 2.217-.581 1.21-.723 2.495-.392 3.793 1.42 5.706 2.853 11.412 4.286 17.118l2.15 8.559c.014.06.034.122.054.183.02.06.034.121.054.182.055-.013.095-.013.136-.013 1.92-4.943 3.846-9.885 5.773-14.84 2.454-6.315 4.922-12.656 7.41-19.045 4.428 11.392 8.802 22.642 13.244 34.047.04-.129.075-.23.108-.325.048-.148.088-.257.115-.365 1.772-7.058 3.536-14.123 5.3-21.181l1.055-4.219c.338-1.372.237-2.684-.385-3.962-.48-.986-.967-1.967-1.467-2.967-.162-.325-.325-.65-.487-.98h23.135c-.067.067-.122.135-.182.202-.075.081-.142.162-.21.237-.297.304-.595.608-.892.92-.737.77-1.481 1.534-2.285 2.237-1.657 1.433-2.434 3.225-2.887 5.327-1.42 6.579-2.887 13.15-4.361 19.715l-1.501 6.727c-.365 1.65-.737 3.299-1.102 4.955-.378 1.69-.75 3.374-1.122 5.064H83.627c-1.216-3.387-2.427-6.768-3.644-10.155-.013-.04-.04-.088-.074-.155-.02-.034-.04-.081-.074-.129-.17.467-.332.913-.494 1.352-.216.582-.419 1.15-.622 1.718-.879 2.454-1.764 4.915-2.643 7.369l-.014-.007Zm-64.037 0h12.068a58.473 58.473 0 0 1-2.035-10.256c-.446-4.239-.446-8.471.054-12.703 1.136-9.715 4.503-18.606 10.14-26.604.805-1.149 1.177-2.271 1.137-3.67-.068-2.265-.054-4.53-.04-6.829 0-.926.013-1.852.013-2.792H36.6c2.603 0 5.199 0 7.802-.014.372 0 .804-.135 1.102-.351 4.82-3.448 10.006-6.233 15.63-8.147a56.994 56.994 0 0 1 11.615-2.677c4.192-.52 8.39-.595 12.582-.19 9.918.954 19.031 4.226 27.219 9.905 1.528 1.062 2.995 1.596 4.854 1.508 2.048-.095 4.117-.075 6.206-.054.92.006 1.839.02 2.765.02V36.508c0 2.603 0 5.2.014 7.802 0 .372.135.805.351 1.102 3.327 4.651 6.031 9.62 7.944 15.022 2.441 6.883 3.556 13.975 3.293 21.27-.176 4.996-.947 9.796-2.299 14.4h11.987a70.543 70.543 0 0 0 1.737-10.98 69.286 69.286 0 0 0-1.21-19.41c-1.765-8.572-5.043-16.51-9.81-23.838a2.334 2.334 0 0 1-.405-1.345c.013-6.064.013-12.136.013-18.2v-.723h-5.354c-4.591 0-9.181 0-13.779-.014-.331 0-.682-.128-.966-.284a142.53 142.53 0 0 1-2.238-1.318c-1.42-.845-2.84-1.69-4.3-2.44-8.762-4.476-18.071-6.95-27.915-7.458a69.567 69.567 0 0 0-17.159 1.23c-8.815 1.752-16.969 5.105-24.5 10.007a1.848 1.848 0 0 1-.967.284c-6.145.013-12.284.013-18.43.013h-.69v5.361c0 4.577 0 9.161-.013 13.738 0 .338-.128.723-.297 1.02-.447.785-.906 1.556-1.366 2.327-.784 1.318-1.575 2.636-2.278 4.002-4.557 8.822-7.058 18.213-7.572 28.131a69.252 69.252 0 0 0 1.244 17.159c.182.926.399 1.845.615 2.758Zm19.248 7.349-3.63 11.344-3.435-11.344h-6.112l-3.63 11.202-3.435-11.202H4.196l6.308 19.701h7.119l3.353-10.527 3.178 10.527h7.119l6.307-19.701h-6.307Zm19.565 19.701h7.092l-4.138-6.078c1.204-.622 2.123-1.454 2.759-2.509.635-1.047.96-2.278.96-3.684 0-1.501-.365-2.813-1.095-3.942s-1.772-1.987-3.124-2.589c-1.352-.602-2.934-.899-4.76-.899h-9.485v19.701h6.646v-4.956h1.799l3.353 4.956h-.007Zm-.027-12.271c0 .73-.223 1.298-.676 1.704-.453.405-1.13.601-2.028.601h-2.42v-4.617h2.42c.899 0 1.575.203 2.028.608.453.406.676.974.676 1.704Zm23.953 12.271h6.869l-8.613-19.701h-6.53l-8.614 19.701h6.754l1.325-3.435h7.49l1.326 3.435h-.007Zm-6.984-8.221 1.914-4.956 1.913 4.956H67.78Zm18.214 8.221h6.645v-14.556h5.774v-5.152H80.227v5.152H86v14.556h-.006Zm26.907-19.701v6.984h-6.138v-6.984h-6.646v19.701h6.646v-7.261h6.138v7.261h6.646v-19.701h-6.646ZM4 149.547h15.536v-5.152h-8.89V129.84H4v19.707Zm17.368 0h6.646v-19.701h-6.646v19.701Zm20.039.453c1.913 0 3.624-.338 5.125-1.014a9.547 9.547 0 0 0 3.718-2.927l-4.192-3.746c-1.217 1.542-2.657 2.305-4.306 2.305-1.386 0-2.509-.446-3.347-1.338-.838-.893-1.264-2.089-1.264-3.59s.42-2.698 1.264-3.59c.845-.892 1.96-1.339 3.347-1.339 1.65 0 3.09.771 4.306 2.306l4.192-3.746c-.974-1.277-2.218-2.251-3.718-2.927-1.501-.676-3.212-1.014-5.125-1.014-2.082 0-3.962.439-5.632 1.311-1.67.873-2.981 2.096-3.928 3.658-.946 1.568-1.42 3.347-1.42 5.334 0 1.988.474 3.766 1.42 5.334.947 1.569 2.258 2.786 3.928 3.658 1.67.872 3.55 1.311 5.632 1.311V150Zm23.534-20.154v6.984h-6.139v-6.984h-6.646v19.701h6.646v-7.261h6.139v7.261h6.646v-19.701H64.94Zm31.241 19.701h7.687l-8.275-11.033 7.883-8.668h-7.234l-6.477 7.153v-7.153h-6.53v19.701h6.53v-4.868l1.494-1.663 4.929 6.531h-.007Zm8.586 0h6.646v-19.701h-6.646v19.701Zm22.797-19.701v8.952l-7.484-8.952h-5.463v19.701h6.477v-8.951l7.484 8.951h5.463v-19.701h-6.477Zm22.716 14.299a6.279 6.279 0 0 1-2.42.48c-1.427 0-2.569-.453-3.421-1.352-.852-.899-1.278-2.089-1.278-3.576 0-1.488.433-2.718 1.298-3.604.865-.879 2.028-1.325 3.489-1.325 1.71 0 3.177.724 4.421 2.17l4.253-3.745a9.73 9.73 0 0 0-3.813-2.826c-1.528-.649-3.259-.974-5.193-.974-2.136 0-4.056.44-5.753 1.312-1.697.872-3.022 2.096-3.969 3.658-.946 1.561-1.419 3.346-1.419 5.334 0 1.987.473 3.765 1.419 5.334.947 1.568 2.259 2.785 3.928 3.657 1.67.873 3.557 1.312 5.659 1.312 1.481 0 2.995-.216 4.53-.649 1.541-.433 2.887-1.048 4.056-1.859v-8.329h-5.773v4.982h-.014Zm-18.004-31.795c.913 0 1.731-.19 2.461-.568a4.258 4.258 0 0 0 1.711-1.582c.412-.676.615-1.433.615-2.285 0-.852-.203-1.609-.615-2.285a4.252 4.252 0 0 0-1.711-1.582c-.73-.379-1.548-.568-2.461-.568-.912 0-1.73.189-2.461.568a4.242 4.242 0 0 0-1.71 1.582c-.412.676-.615 1.433-.615 2.285 0 .852.203 1.609.615 2.285a4.25 4.25 0 0 0 1.71 1.582c.731.378 1.549.568 2.461.568Zm0-2.312a1.78 1.78 0 0 1-.96-.264 1.892 1.892 0 0 1-.682-.737c-.17-.318-.257-.69-.257-1.122 0-.433.087-.805.257-1.123.169-.317.398-.567.682-.736.284-.176.609-.264.96-.264.352 0 .676.088.96.264.284.175.514.419.683.736.169.318.257.69.257 1.123 0 .432-.088.804-.257 1.122a1.847 1.847 0 0 1-.683.737 1.795 1.795 0 0 1-.96.264Zm12.724-4.206v-2.156h-6.896v8.484h2.86v-2.711h3.536v-2.156h-3.536v-1.454h4.036v-.007Zm-15.327 17.68h2.86v-6.268h2.481v-2.217h-7.828v2.217h2.481v6.268h.006Zm11.582-8.485v3.002h-2.644v-3.002h-2.86v8.485h2.86v-3.124h2.644v3.124h2.859v-8.485h-2.859Zm7.051 6.328v-1.116h3.59v-2.062h-3.59v-.993h4.083v-2.157h-6.895v8.485h7.051v-2.157h-4.239Z" fill="#fff"/></svg>