<svg width="160" height="160" viewBox="0 0 160 160" fill="none" xmlns="http://www.w3.org/2000/svg"><path d="M76.0622 96.1241H53.7654C53.4814 94.8463 53.1975 93.5753 52.9135 92.2975C51.94 87.9166 50.9665 83.5424 49.9862 79.1682C49.4385 76.6871 48.8842 74.2127 48.3298 71.7315C47.3292 67.2289 46.3219 62.7262 45.3348 58.2169C45.0779 57.0405 44.5032 56.0602 43.6582 55.2219C42.1911 53.7548 40.7308 52.2877 39.1893 50.7598H62.3515C62.2771 50.9424 62.2027 51.1114 62.1148 51.2804C61.9053 51.6996 61.6957 52.1187 61.4861 52.5446C61.1143 53.2816 60.7424 54.0185 60.3841 54.7621C59.8027 55.9723 59.6607 57.2568 59.992 58.5549C61.4117 64.2609 62.845 69.9669 64.2783 75.673C64.9949 78.526 65.7115 81.379 66.4282 84.232C66.4417 84.2928 66.462 84.3537 66.4823 84.4145C66.5025 84.4754 66.5161 84.5362 66.5363 84.5971C66.5904 84.5836 66.631 84.5836 66.6716 84.5836C68.5916 79.6415 70.5184 74.6994 72.4452 69.7438C74.8993 63.4294 77.367 57.0878 79.8549 50.699C84.2832 62.0907 88.6573 73.3405 93.0991 84.7458C93.1397 84.6174 93.1735 84.5159 93.2073 84.4213C93.2546 84.2726 93.2952 84.1644 93.3222 84.0562C95.0935 76.9981 96.858 69.9331 98.6226 62.875C98.9741 61.4688 99.3257 60.0625 99.6773 58.6563C100.015 57.2839 99.9139 55.9723 99.2919 54.6945C98.8119 53.7075 98.3251 52.7272 97.8248 51.7266C97.6626 51.4021 97.5003 51.0776 97.3381 50.7463H120.473C120.406 50.8139 120.351 50.8815 120.291 50.9491C120.216 51.0302 120.149 51.1114 120.081 51.1857C119.784 51.49 119.486 51.7942 119.189 52.1052C118.452 52.8759 117.708 53.6399 116.903 54.343C115.247 55.7762 114.47 57.5678 114.017 59.6704C112.597 66.2486 111.13 72.82 109.656 79.3846C109.156 81.6291 108.655 83.8669 108.155 86.1115C107.79 87.7611 107.418 89.4107 107.053 91.0671C106.675 92.7572 106.303 94.4406 105.931 96.1308H83.6274C82.4104 92.7437 81.2003 89.3634 79.9834 85.9763C79.9698 85.9357 79.9428 85.8884 79.909 85.8208C79.8887 85.787 79.8684 85.7396 79.8346 85.6923C79.6656 86.1588 79.5033 86.605 79.3411 87.0444C79.1248 87.6259 78.9219 88.1938 78.7191 88.7617C77.8402 91.2158 76.9546 93.6767 76.0757 96.1308L76.0622 96.1241ZM12.0249 96.1241H24.0927C23.1124 92.7775 22.4296 89.3566 22.0577 85.8681C21.6115 81.6291 21.6115 77.3969 22.1118 73.1647C23.2476 63.4496 26.6145 54.5593 32.2529 46.5614C33.0574 45.4121 33.4292 44.2898 33.3887 42.8904C33.3211 40.6255 33.3346 38.3607 33.3481 36.0621C33.3481 35.1359 33.3616 34.2096 33.3616 33.2699H33.9971C34.8625 33.2699 35.7346 33.2699 36.6 33.2699C39.2029 33.2699 41.799 33.2699 44.4018 33.2564C44.7737 33.2564 45.2064 33.1212 45.5038 32.9048C50.3242 29.4569 55.5097 26.6715 61.1345 24.7582C64.9138 23.4601 68.7809 22.5677 72.7494 22.081C76.941 21.5604 81.1394 21.486 85.3311 21.8917C95.249 22.8449 104.362 26.1171 112.55 31.7961C114.078 32.8575 115.545 33.3916 117.404 33.3037C119.452 33.2091 121.521 33.2293 123.61 33.2496C124.53 33.2564 125.449 33.2699 126.375 33.2699V33.9054C126.375 34.7708 126.375 35.6429 126.375 36.5083C126.375 39.1111 126.375 41.7073 126.389 44.3101C126.389 44.682 126.524 45.1146 126.74 45.4121C130.067 50.0635 132.771 55.0326 134.684 60.4344C137.125 67.3167 138.24 74.4087 137.977 81.7035C137.801 86.6996 137.03 91.4997 135.678 96.1038H147.665C148.523 92.5409 149.105 88.8834 149.402 85.1244C149.909 78.5936 149.51 72.1304 148.192 65.7145C146.427 57.1419 143.148 49.2049 138.382 41.8763C138.105 41.4503 137.977 41.0379 137.977 40.5309C137.99 34.4666 137.99 28.3955 137.99 22.3311V21.6077H137.233C135.698 21.6077 134.17 21.6077 132.636 21.6077C128.045 21.6077 123.455 21.6077 118.857 21.5942C118.526 21.5942 118.175 21.4657 117.891 21.3102C117.14 20.8776 116.396 20.4381 115.653 19.9919C114.233 19.1468 112.813 18.3017 111.353 17.5513C102.591 13.0757 93.2816 10.6013 83.4381 10.0943C77.6644 9.79679 71.9517 10.2024 66.2794 11.3247C57.4635 13.0757 49.3101 16.429 41.7787 21.3305C41.5015 21.5131 41.1297 21.6145 40.8119 21.6145C34.6664 21.628 28.5277 21.628 22.3823 21.628H21.6927V22.4122C21.6927 23.9402 21.6927 25.4681 21.6927 26.9892C21.6927 31.5662 21.6927 36.15 21.6792 40.727C21.6792 41.065 21.5507 41.4503 21.3817 41.7478C20.9355 42.5321 20.4757 43.3028 20.016 44.0735C19.2318 45.3918 18.4408 46.7102 17.7377 48.0758C13.181 56.8985 10.6795 66.2891 10.1657 76.2071C9.86822 81.9807 10.2806 87.6935 11.4097 93.3657C11.5922 94.2919 11.8085 95.2114 12.0249 96.1241Z" fill="#ffffff"/><path d="M23.6704 124C21.9947 124 20.4386 123.74 19.0023 123.219C17.5858 122.678 16.349 121.916 15.2917 120.934C14.2543 119.953 13.4463 118.791 12.8678 117.448C12.2893 116.106 12 114.623 12 113C12 111.377 12.2893 109.894 12.8678 108.552C13.4463 107.209 14.2543 106.047 15.2917 105.066C16.349 104.084 17.5858 103.332 19.0023 102.811C20.4386 102.27 21.9947 102 23.6704 102C25.7252 102 27.5406 102.361 29.1166 103.082C30.7126 103.803 32.0293 104.845 33.0666 106.208L28.6079 110.205C27.9895 109.423 27.3012 108.822 26.5431 108.402C25.805 107.961 24.9671 107.74 24.0295 107.74C23.2914 107.74 22.6231 107.861 22.0246 108.101C21.4261 108.342 20.9074 108.692 20.4685 109.153C20.0496 109.614 19.7204 110.175 19.481 110.836C19.2417 111.477 19.122 112.199 19.122 113C19.122 113.801 19.2417 114.533 19.481 115.194C19.7204 115.835 20.0496 116.386 20.4685 116.847C20.9074 117.308 21.4261 117.658 22.0246 117.899C22.6231 118.139 23.2914 118.26 24.0295 118.26C24.9671 118.26 25.805 118.049 26.5431 117.628C27.3012 117.188 27.9895 116.577 28.6079 115.795L33.0666 119.792C32.0293 121.135 30.7126 122.177 29.1166 122.918C27.5406 123.639 25.7252 124 23.6704 124Z" fill="#ffffff"/><path d="M35.1057 123.519V102.481H42.1678V118.019H51.6238V123.519H35.1057Z" fill="#ffffff"/><path d="M51.5925 123.519L60.7493 102.481H67.6917L76.8485 123.519H69.547L62.7841 105.847H65.5372L58.7743 123.519H51.5925ZM57.0387 119.852L58.8341 114.743H68.4697L70.2652 119.852H57.0387Z" fill="#ffffff"/><path d="M85.7858 124C84.0302 124 82.3345 123.8 80.6987 123.399C79.0628 122.998 77.7162 122.477 76.6589 121.836L78.9331 116.667C79.9306 117.248 81.0378 117.719 82.2547 118.079C83.4916 118.42 84.6886 118.59 85.8456 118.59C86.5239 118.59 87.0526 118.55 87.4316 118.47C87.8306 118.37 88.1199 118.24 88.2994 118.079C88.4789 117.899 88.5687 117.689 88.5687 117.448C88.5687 117.067 88.3592 116.767 87.9403 116.546C87.5214 116.326 86.9628 116.146 86.2645 116.005C85.5863 115.845 84.8382 115.685 84.0202 115.525C83.2023 115.344 82.3744 115.114 81.5365 114.833C80.7186 114.553 79.9605 114.182 79.2623 113.721C78.584 113.26 78.0354 112.659 77.6165 111.918C77.1975 111.157 76.9881 110.215 76.9881 109.093C76.9881 107.791 77.3472 106.608 78.0653 105.546C78.8035 104.464 79.8907 103.603 81.3271 102.962C82.7834 102.321 84.5888 102 86.7433 102C88.1598 102 89.5562 102.15 90.9327 102.451C92.3092 102.751 93.5461 103.212 94.6433 103.833L92.5187 108.973C91.4813 108.452 90.4739 108.061 89.4964 107.801C88.5388 107.54 87.6012 107.41 86.6835 107.41C86.0052 107.41 85.4666 107.47 85.0676 107.59C84.6686 107.71 84.3793 107.871 84.1998 108.071C84.0402 108.271 83.9604 108.492 83.9604 108.732C83.9604 109.093 84.1699 109.383 84.5888 109.604C85.0077 109.804 85.5564 109.974 86.2346 110.115C86.9329 110.255 87.6909 110.405 88.5089 110.566C89.3467 110.726 90.1746 110.946 90.9926 111.227C91.8105 111.507 92.5586 111.878 93.2369 112.339C93.9351 112.8 94.4937 113.401 94.9126 114.142C95.3316 114.883 95.5411 115.805 95.5411 116.907C95.5411 118.189 95.172 119.372 94.4339 120.454C93.7157 121.515 92.6384 122.377 91.202 123.038C89.7657 123.679 87.9603 124 85.7858 124Z" fill="#ffffff"/><path d="M105.453 124C103.697 124 102.001 123.8 100.366 123.399C98.7298 122.998 97.3832 122.477 96.3259 121.836L98.6001 116.667C99.5976 117.248 100.705 117.719 101.922 118.079C103.159 118.42 104.356 118.59 105.513 118.59C106.191 118.59 106.72 118.55 107.099 118.47C107.498 118.37 107.787 118.24 107.966 118.079C108.146 117.899 108.236 117.689 108.236 117.448C108.236 117.067 108.026 116.767 107.607 116.546C107.188 116.326 106.63 116.146 105.932 116.005C105.253 115.845 104.505 115.685 103.687 115.525C102.869 115.344 102.041 115.114 101.203 114.833C100.386 114.553 99.6275 114.182 98.9293 113.721C98.251 113.26 97.7024 112.659 97.2834 111.918C96.8645 111.157 96.655 110.215 96.655 109.093C96.655 107.791 97.0141 106.608 97.7323 105.546C98.4704 104.464 99.5577 103.603 100.994 102.962C102.45 102.321 104.256 102 106.41 102C107.827 102 109.223 102.15 110.6 102.451C111.976 102.751 113.213 103.212 114.31 103.833L112.186 108.973C111.148 108.452 110.141 108.061 109.163 107.801C108.206 107.54 107.268 107.41 106.35 107.41C105.672 107.41 105.134 107.47 104.735 107.59C104.336 107.71 104.046 107.871 103.867 108.071C103.707 108.271 103.627 108.492 103.627 108.732C103.627 109.093 103.837 109.383 104.256 109.604C104.675 109.804 105.223 109.974 105.902 110.115C106.6 110.255 107.358 110.405 108.176 110.566C109.014 110.726 109.842 110.946 110.66 111.227C111.477 111.507 112.226 111.878 112.904 112.339C113.602 112.8 114.161 113.401 114.58 114.142C114.999 114.883 115.208 115.805 115.208 116.907C115.208 118.189 114.839 119.372 114.101 120.454C113.383 121.515 112.305 122.377 110.869 123.038C109.433 123.679 107.627 124 105.453 124Z" fill="#ffffff"/><path d="M117.309 123.519V102.481H124.372V123.519H117.309Z" fill="#ffffff"/><path d="M138.604 124C136.928 124 135.372 123.74 133.936 123.219C132.519 122.678 131.282 121.916 130.225 120.934C129.188 119.953 128.38 118.791 127.801 117.448C127.223 116.106 126.933 114.623 126.933 113C126.933 111.377 127.223 109.894 127.801 108.552C128.38 107.209 129.188 106.047 130.225 105.066C131.282 104.084 132.519 103.332 133.936 102.811C135.372 102.27 136.928 102 138.604 102C140.659 102 142.474 102.361 144.05 103.082C145.646 103.803 146.963 104.845 148 106.208L143.541 110.205C142.923 109.423 142.235 108.822 141.477 108.402C140.738 107.961 139.901 107.74 138.963 107.74C138.225 107.74 137.556 107.861 136.958 108.101C136.359 108.342 135.841 108.692 135.402 109.153C134.983 109.614 134.654 110.175 134.414 110.836C134.175 111.477 134.055 112.199 134.055 113C134.055 113.801 134.175 114.533 134.414 115.194C134.654 115.835 134.983 116.386 135.402 116.847C135.841 117.308 136.359 117.658 136.958 117.899C137.556 118.139 138.225 118.26 138.963 118.26C139.901 118.26 140.738 118.049 141.477 117.628C142.235 117.188 142.923 116.577 143.541 115.795L148 119.792C146.963 121.135 145.646 122.177 144.05 122.918C142.474 123.639 140.659 124 138.604 124Z" fill="#ffffff"/><path d="M53.5216 139.429H62.9417V144.286H53.5216V139.429ZM54.0047 146.914H64.5721V152H47V132H64.1796V137.086H54.0047V146.914Z" fill="#ffffff"/><path d="M67.3151 152V132H77.49C79.4626 132 81.1634 132.305 82.5926 132.914C84.0418 133.524 85.1589 134.4 85.9439 135.543C86.7289 136.667 87.1214 138 87.1214 139.543C87.1214 141.086 86.7289 142.419 85.9439 143.543C85.1589 144.648 84.0418 145.495 82.5926 146.086C81.1634 146.676 79.4626 146.971 77.49 146.971H71.2703L74.4406 144.2V152H67.3151ZM79.9658 152L74.7727 144.714H82.3208L87.5743 152H79.9658ZM74.4406 144.943L71.2703 141.886H77.0371C78.0234 141.886 78.748 141.676 79.211 141.257C79.6941 140.838 79.9356 140.267 79.9356 139.543C79.9356 138.819 79.6941 138.248 79.211 137.829C78.748 137.41 78.0234 137.2 77.0371 137.2H71.2703L74.4406 134.143V144.943Z" fill="#ffffff"/><path d="M87.5175 152L96.7564 132H103.761L113 152H105.633L98.8095 135.2H101.587L94.7637 152H87.5175ZM93.0125 148.514L94.8241 143.657H104.546L106.358 148.514H93.0125Z" fill="#ffffff"/></svg>