<svg xmlns="http://www.w3.org/2000/svg" width="160" height="160" fill="none"><path fill="#fff" d="M76.06 96.12h-22.3l-.85-3.82L50 79.17l-1.66-7.44-3-13.51a5.92 5.92 0 0 0-1.67-3l-4.47-4.46h23.16c-.07.18-.15.35-.24.52l-.62 1.26c-.38.74-.75 1.48-1.1 2.22a5.46 5.46 0 0 0-.4 3.8l4.29 17.11 2.15 8.56.05.18.06.19c.05-.02.1-.02.13-.02l5.78-14.84 7.4-19.04L93.1 84.75l.1-.33c.05-.15.1-.26.12-.36l5.3-21.19 1.06-4.21a5.66 5.66 0 0 0-.39-3.97c-.48-.98-.96-1.96-1.47-2.96l-.48-.98h23.13l-.18.2-.2.24-.9.92a35.6 35.6 0 0 1-2.29 2.23c-1.65 1.44-2.43 3.23-2.88 5.33a2441.3 2441.3 0 0 1-4.36 19.71l-1.5 6.73-1.1 4.96c-.39 1.69-.76 3.37-1.13 5.06h-22.3l-3.65-10.15-.07-.16-.08-.13a237.77 237.77 0 0 1-1.11 3.07l-2.64 7.37h-.02Zm-64.04 0H24.1a58.48 58.48 0 0 1-1.98-22.96 56.97 56.97 0 0 1 10.14-26.6 5.75 5.75 0 0 0 1.14-3.67c-.07-2.26-.06-4.53-.04-6.83l.01-2.79h3.24l7.8-.01a2 2 0 0 0 1.1-.36 60.1 60.1 0 0 1 15.63-8.14 57 57 0 0 1 11.62-2.68c4.2-.52 8.39-.6 12.58-.19a56.51 56.51 0 0 1 27.22 9.9c1.53 1.07 3 1.6 4.85 1.51 2.05-.1 4.12-.07 6.21-.05l2.77.02v11.04c0 .37.14.8.36 1.1a60.43 60.43 0 0 1 7.94 15.02 58.18 58.18 0 0 1 1 35.67h11.99a69.29 69.29 0 0 0-9.28-54.23c-.29-.42-.41-.83-.41-1.34l.01-18.2v-.72H132.63c-4.59 0-9.17 0-13.77-.02-.33 0-.69-.12-.97-.28-.75-.43-1.5-.87-2.24-1.32a79.83 79.83 0 0 0-4.3-2.44 68.43 68.43 0 0 0-27.91-7.46 69.57 69.57 0 0 0-41.66 11.24c-.28.18-.65.28-.97.28-6.14.02-12.28.02-18.43.02h-.69v5.36l-.01 13.74c0 .34-.13.72-.3 1.02-.44.78-.9 1.55-1.36 2.32-.79 1.32-1.58 2.64-2.28 4a68.33 68.33 0 0 0-7.57 28.14 69.25 69.25 0 0 0 1.85 19.91ZM45.94 103.5h7.24v21.25h-7.24V103.5Zm-6.7 21.25H32V103.5h7.25v21.25Zm7.19-7.83h-7.68v-5.9h7.68v5.9ZM54.34 124.75l9.4-21.25h7.12l9.4 21.25h-7.5l-6.94-17.85h2.83l-6.94 17.85h-7.37Zm5.59-3.7 1.84-5.16h9.89l1.84 5.16H59.93ZM81.4 124.75V103.5h10.35c2 0 3.74.32 5.2.97a7.63 7.63 0 0 1 3.4 2.8c.8 1.19 1.2 2.6 1.2 4.24 0 1.64-.4 3.06-1.2 4.25a7.58 7.58 0 0 1-3.4 2.7c-1.46.63-3.2.95-5.2.95h-6.32l3.22-2.95v8.29h-7.24Zm12.87 0-5.28-7.74h7.68l5.34 7.74h-7.74Zm-5.62-7.5L85.43 114h5.86c1 0 1.74-.22 2.21-.66.5-.45.74-1.06.74-1.83s-.25-1.37-.74-1.82c-.47-.44-1.2-.66-2.2-.66h-5.87l3.22-3.25v11.47ZM104.28 124.75V103.5h10.6c2.39 0 4.5.44 6.32 1.3a9.99 9.99 0 0 1 4.27 3.65 10.16 10.16 0 0 1 1.53 5.64c0 2.21-.51 4.11-1.53 5.71a10.19 10.19 0 0 1-4.27 3.67 14.8 14.8 0 0 1-6.33 1.28h-10.59Zm7.25-5.59h3.04c1.02 0 1.91-.19 2.67-.57a4.18 4.18 0 0 0 1.8-1.7c.44-.77.65-1.7.65-2.8a5.4 5.4 0 0 0-.64-2.73 4.18 4.18 0 0 0-1.81-1.7 5.82 5.82 0 0 0-2.67-.57h-3.04v10.07ZM43.97 151c-1.72 0-3.31-.26-4.79-.78a11.7 11.7 0 0 1-3.8-2.27 10.36 10.36 0 0 1-3.38-7.89 10.36 10.36 0 0 1 7.18-10.13c1.48-.54 3.07-.8 4.79-.8 2.1 0 3.97.35 5.59 1.07 1.63.72 2.98 1.75 4.05 3.1l-4.58 3.98a7.08 7.08 0 0 0-2.11-1.79 5.63 5.63 0 0 0-4.63-.3 4.5 4.5 0 0 0-1.6 1.05 4.94 4.94 0 0 0-1.02 1.67 5.95 5.95 0 0 0-.37 2.15c0 .8.13 1.53.37 2.18a5 5 0 0 0 1.02 1.65c.45.46.98.8 1.6 1.04.6.24 1.3.36 2.05.36.96 0 1.82-.2 2.58-.63a7.5 7.5 0 0 0 2.11-1.82l4.58 3.98a10.71 10.71 0 0 1-4.05 3.1 13.66 13.66 0 0 1-5.59 1.08ZM66.51 151a14.2 14.2 0 0 1-4.85-.8 10.87 10.87 0 0 1-6.38-5.77c-.6-1.34-.89-2.8-.89-4.37 0-1.6.3-3.05.89-4.36a10.54 10.54 0 0 1 2.55-3.47c1.08-1 2.36-1.76 3.83-2.3 1.5-.54 3.11-.8 4.85-.8 1.76 0 3.38.26 4.85.8 1.48.54 2.76 1.3 3.84 2.3 1.08.98 1.92 2.14 2.52 3.47.61 1.31.92 2.77.92 4.36a10.49 10.49 0 0 1-3.44 7.86 11.63 11.63 0 0 1-3.84 2.27c-1.47.54-3.09.81-4.85.81Zm0-5.7a4.81 4.81 0 0 0 3.41-1.38c.45-.46.8-1 1.04-1.65.25-.65.37-1.4.37-2.2 0-.82-.12-1.55-.37-2.19-.24-.66-.59-1.2-1.04-1.64-.43-.46-.94-.81-1.53-1.05a5.04 5.04 0 0 0-3.78 0 4.64 4.64 0 0 0-2.55 2.7 6.04 6.04 0 0 0-.36 2.17c0 .82.12 1.56.36 2.21.25.64.59 1.19 1.02 1.65a4.9 4.9 0 0 0 3.43 1.37ZM81.27 150.52V129.6H91.6c2 0 3.73.32 5.19.96a7.6 7.6 0 0 1 3.4 2.75 7.27 7.27 0 0 1 1.2 4.18c0 1.62-.4 3.01-1.2 4.19a7.56 7.56 0 0 1-3.4 2.66c-1.46.61-3.18.92-5.19.92h-6.32l3.22-2.9v8.16h-7.24Zm12.86 0-5.28-7.62h7.67l5.34 7.62h-7.73Zm-5.62-7.38-3.22-3.2h5.86c1 0 1.74-.22 2.21-.65.5-.44.74-1.04.74-1.8 0-.75-.25-1.35-.74-1.8-.47-.43-1.2-.65-2.21-.65h-5.86l3.22-3.2v11.3ZM110.77 137.37h9.57v5.08h-9.57v-5.08Zm.49 7.83H122v5.32h-17.86V129.6h17.46v5.32h-10.34v10.28Z"/></svg>